<svg width="20" height="20" viewBox="0 0 20 20" fill="none" xmlns="http://www.w3.org/2000/svg">
<g id="type=normal, icon=circle_arrow_history">
<g id="component_1">
<path d="M10 3.40039C13.6451 3.40039 16.5996 6.35492 16.5996 10C16.5996 10.3314 16.3314 10.5996 16 10.5996C15.6686 10.5996 15.4004 10.3314 15.4004 10C15.4004 7.01766 12.9823 4.59961 10 4.59961C7.01766 4.59961 4.59961 7.01766 4.59961 10C4.59961 12.9823 7.01766 15.4004 10 15.4004C11.2836 15.4004 12.4611 14.9526 13.3877 14.2051C13.6762 13.9723 13.9387 13.7092 14.1738 13.4229L13.5391 13.4648C13.2086 13.4862 12.923 13.2356 12.9014 12.9053C12.8801 12.5747 13.1305 12.2891 13.4609 12.2676L15.2598 12.1514C15.5015 12.1358 15.7296 12.2672 15.8369 12.4844L16.6357 14.1006C16.7824 14.3976 16.6602 14.7575 16.3633 14.9043C16.0665 15.0505 15.7074 14.9284 15.5605 14.6318L15.248 14C14.9256 14.4226 14.5549 14.8062 14.1416 15.1396C13.0094 16.053 11.5676 16.5996 10 16.5996C6.35492 16.5996 3.40039 13.6451 3.40039 10C3.40039 6.35492 6.35492 3.40039 10 3.40039Z" fill="black"/>
<path d="M10 6C10.2761 6 10.5 6.22386 10.5 6.5V10C10.5 10.1326 10.4473 10.2597 10.3535 10.3535L8.85352 11.8535C8.65825 12.0488 8.34175 12.0488 8.14648 11.8535C7.95122 11.6583 7.95122 11.3417 8.14648 11.1465L9.5 9.79297V6.5C9.5 6.22386 9.72386 6 10 6Z" fill="black"/>
</g>
</g>
</svg>
