<svg width="20" height="20" viewBox="0 0 20 20" fill="none" xmlns="http://www.w3.org/2000/svg">
<g id="type=normal, icon=process">
<g id="component_1">
<path d="M9.59961 9.26387V13.3879L8.3125 12.8859C7.51799 12.5754 7.00016 11.8481 7 11.0412V8.24727L9.59961 9.26387Z" fill="black"/>
<path fill-rule="evenodd" clip-rule="evenodd" d="M4 6.0002C4.00042 5.28713 4.77425 4.80419 5.47656 5.07833L10.6865 7.11251L10.832 7.17501C10.8777 7.19673 10.9223 7.21982 10.9658 7.24434C10.9791 7.25181 10.9918 7.26006 11.0049 7.26778C11.0742 7.30882 11.1409 7.35284 11.2041 7.40059L11.2275 7.41817C11.2413 7.42883 11.2542 7.44042 11.2676 7.45137C11.29 7.46971 11.3125 7.48788 11.334 7.50704C11.3428 7.51485 11.3507 7.52351 11.3594 7.53145C11.4225 7.58957 11.4813 7.65128 11.5361 7.71602C11.5504 7.73282 11.5645 7.7496 11.5781 7.7668C11.5899 7.78173 11.6019 7.7965 11.6133 7.81173C11.6336 7.83891 11.653 7.86663 11.6719 7.89473C11.6795 7.90607 11.687 7.91744 11.6943 7.92891C11.71 7.95329 11.7247 7.97814 11.7393 8.00313C11.7494 8.02054 11.759 8.03817 11.7686 8.05587C11.7808 8.07843 11.7924 8.10121 11.8037 8.12423C11.8148 8.14674 11.8248 8.16967 11.835 8.19258C11.8454 8.21621 11.8557 8.23985 11.8652 8.26387C11.8735 8.28486 11.8811 8.30608 11.8887 8.32735C11.8954 8.34627 11.903 8.36485 11.9092 8.38399C11.9178 8.41077 11.9252 8.43787 11.9326 8.46505C11.9508 8.5318 11.9668 8.59934 11.9775 8.66817C11.9925 8.7636 12 8.86083 12 8.95919V15.9992L11.9912 16.1301L11.9697 16.2395C11.8397 16.7389 11.3133 17.0679 10.7715 16.9885L10.6553 16.965L10.5234 16.9221L5.3125 14.8869C4.5676 14.5958 4.06587 13.9376 4.00586 13.1916L4 13.0412V6.0002ZM5.47266 6.36446C5.34169 6.31343 5.20049 6.40951 5.2002 6.55001V13.0412C5.20042 13.3175 5.38006 13.6245 5.74902 13.7688L10.5273 15.634C10.6583 15.6849 10.7997 15.5881 10.7998 15.4475V8.95919C10.7998 8.86862 10.7802 8.77436 10.7412 8.6838C10.676 8.53255 10.5562 8.39088 10.3799 8.29122L10.25 8.23067L5.47266 6.36446Z" fill="black"/>
<path d="M7 4.0002C7.00027 3.287 7.77416 2.8041 8.47656 3.07833L13.6865 5.11251C14.4814 5.423 15 6.15194 15 6.95919V13.9992L14.9912 14.1291C14.9096 14.7266 14.275 15.1239 13.6553 14.965L13.5234 14.9211L13.2002 14.7941V8.95919C13.2002 7.70501 12.4472 6.61606 11.3477 6.092L11.123 5.99434L7 4.38399V4.0002Z" fill="black"/>
</g>
</g>
</svg>
