<svg width="20" height="20" viewBox="0 0 20 20" fill="none" xmlns="http://www.w3.org/2000/svg">
<g id="type=normal, icon=trashcan">
<g id="component_1">
<path d="M10 7.5C10.2761 7.5 10.5 7.72386 10.5 8V14C10.5 14.2761 10.2761 14.5 10 14.5C9.72386 14.5 9.5 14.2761 9.5 14V8C9.5 7.72386 9.72386 7.5 10 7.5Z" fill="black"/>
<path d="M7.45801 7.50195C7.73303 7.47903 7.97487 7.68306 7.99805 7.95801L8.49805 13.958C8.52096 14.233 8.31693 14.4749 8.04199 14.498C7.76697 14.521 7.52513 14.3169 7.50195 14.042L7.00195 8.04199C6.97903 7.76696 7.18306 7.52513 7.45801 7.50195Z" fill="black"/>
<path d="M12.542 7.50195C12.8169 7.52513 13.021 7.76697 12.998 8.04199L12.498 14.042C12.4749 14.3169 12.233 14.521 11.958 14.498C11.6831 14.4749 11.479 14.233 11.502 13.958L12.002 7.95801C12.0251 7.68306 12.267 7.47903 12.542 7.50195Z" fill="black"/>
<path fill-rule="evenodd" clip-rule="evenodd" d="M12 3.5C12.8284 3.5 13.5 4.17157 13.5 5V5.40039H16C16.3314 5.40039 16.5996 5.66863 16.5996 6C16.5996 6.33137 16.3314 6.59961 16 6.59961H15.543L14.7412 14.6191C14.7167 14.8641 14.6953 15.0821 14.6631 15.2617C14.6295 15.4487 14.5772 15.6405 14.4668 15.8242C14.304 16.0952 14.0641 16.3113 13.7783 16.4463C13.5845 16.5378 13.3886 16.5711 13.1992 16.5859C13.0173 16.6001 12.798 16.5996 12.5518 16.5996H7.44824C7.20202 16.5996 6.98273 16.6001 6.80078 16.5859C6.61136 16.5711 6.41548 16.5378 6.22168 16.4463C5.93588 16.3113 5.696 16.0952 5.5332 15.8242C5.42282 15.6405 5.37049 15.4487 5.33691 15.2617C5.30468 15.0821 5.28329 14.8641 5.25879 14.6191L4.45703 6.59961H4C3.66863 6.59961 3.40039 6.33137 3.40039 6C3.40039 5.66863 3.66863 5.40039 4 5.40039H6.5V5C6.5 4.17157 7.17157 3.5 8 3.5H12ZM6.45312 14.499C6.47951 14.7629 6.49649 14.9269 6.51855 15.0498C6.5393 15.1653 6.55736 15.1975 6.5625 15.2061C6.6032 15.2737 6.66299 15.3276 6.73438 15.3613C6.7435 15.3656 6.77709 15.3805 6.89355 15.3896C7.01801 15.3994 7.18309 15.4004 7.44824 15.4004H12.5518C12.8169 15.4004 12.982 15.3994 13.1064 15.3896C13.2229 15.3805 13.2565 15.3656 13.2656 15.3613C13.337 15.3276 13.3968 15.2737 13.4375 15.2061C13.4426 15.1975 13.4607 15.1653 13.4814 15.0498C13.5035 14.9269 13.5205 14.7629 13.5469 14.499L14.3369 6.59961H5.66309L6.45312 14.499ZM8 4.5C7.72386 4.5 7.5 4.72386 7.5 5V5.40039H12.5V5C12.5 4.72386 12.2761 4.5 12 4.5H8Z" fill="black"/>
</g>
</g>
</svg>
