<svg width="20" height="20" viewBox="0 0 20 20" fill="none" xmlns="http://www.w3.org/2000/svg">
<g id="type=normal, icon=message_downright">
<path id="component_2" fill-rule="evenodd" clip-rule="evenodd" d="M13.5 10C15.433 10 17 11.567 17 13.5C17 15.433 15.433 17 13.5 17C11.567 17 10 15.433 10 13.5C10 11.567 11.567 10 13.5 10ZM12.5547 12.0449C12.4142 11.9051 12.1853 11.9049 12.0449 12.0449C11.905 12.1853 11.9053 12.4132 12.0449 12.5537L13.8311 14.3398H12.9004C12.7019 14.34 12.5405 14.5008 12.54 14.6992C12.54 14.898 12.7017 15.0594 12.9004 15.0596H14.7002C14.7239 15.0595 14.7482 15.0574 14.7715 15.0527C14.866 15.0336 14.947 14.9768 14.999 14.8994C15.0014 14.8958 15.0036 14.8914 15.0059 14.8877C15.0397 14.8328 15.0605 14.7683 15.0605 14.6992V12.8994C15.0602 12.701 14.8986 12.5393 14.7002 12.5391C14.5017 12.5392 14.3402 12.7009 14.3398 12.8994V13.8301L12.5547 12.0449Z" fill="black"/>
<path id="component_1" d="M12.5 3.90039C13.1907 3.90039 13.7391 3.89943 14.1826 3.92969C14.6314 3.96033 15.0171 4.02436 15.3779 4.17383C16.2599 4.5392 16.9608 5.24011 17.3262 6.12207C17.4757 6.48294 17.5397 6.8686 17.5703 7.31739C17.6006 7.76091 17.5996 8.30931 17.5996 9C17.5996 9.6907 17.6006 10.2391 17.5703 10.6826C17.553 10.9361 17.5216 11.1686 17.4736 11.3887C17.2012 10.877 16.8338 10.4237 16.3936 10.0537C16.3992 9.76053 16.4004 9.41607 16.4004 9C16.4004 8.29292 16.3999 7.79262 16.3731 7.39942C16.3466 7.01199 16.2965 6.7723 16.2178 6.58203C15.9742 5.99398 15.506 5.52581 14.918 5.28223C14.7277 5.20352 14.488 5.15339 14.1006 5.12696C13.7074 5.10013 13.2071 5.09961 12.5 5.09961H7.5C6.79292 5.09961 6.29262 5.10013 5.89942 5.12696C5.51199 5.15339 5.2723 5.20352 5.08203 5.28223C4.49398 5.52582 4.02582 5.99398 3.78223 6.58203C3.70352 6.7723 3.65339 7.01199 3.62696 7.39942C3.60013 7.79262 3.59961 8.29292 3.59961 9V10.5C3.59961 11.8255 4.67453 12.9004 6 12.9004C6.09043 12.9003 6.18225 12.9197 6.26856 12.9629C6.56494 13.1111 6.6853 13.4722 6.53711 13.7686L6.24219 14.3564L9.00684 13.251C9.00234 13.3334 9 13.4164 9 13.5C9 13.8438 9.03931 14.1783 9.11231 14.5L5.22266 16.0566C4.99139 16.1491 4.72727 16.0895 4.5586 15.9063C4.38994 15.7229 4.35149 15.4542 4.46289 15.2314L5.08692 13.9824C3.54102 13.5783 2.40039 12.1727 2.40039 10.5V9C2.40039 8.30931 2.39943 7.76091 2.42969 7.31739C2.46033 6.8686 2.52436 6.48294 2.67383 6.12207C3.03921 5.24011 3.74011 4.53921 4.62207 4.17383C4.98294 4.02436 5.3686 3.96033 5.81739 3.92969C6.26091 3.89943 6.80931 3.90039 7.5 3.90039H12.5Z" fill="black"/>
</g>
</svg>
