<svg width="20" height="20" viewBox="0 0 20 20" fill="none" xmlns="http://www.w3.org/2000/svg">
<g id="type=normal, icon=circle_check_fill">
<path id="component_1" fill-rule="evenodd" clip-rule="evenodd" d="M10 3.40039C13.6451 3.40039 16.5996 6.35492 16.5996 10C16.5996 13.6451 13.6451 16.5996 10 16.5996C6.35492 16.5996 3.40039 13.6451 3.40039 10C3.40039 6.35492 6.35492 3.40039 10 3.40039ZM12.8271 6.99707C12.5494 6.81652 12.1777 6.89516 11.9971 7.17285L9.17969 11.5088L7.95117 10.1045C7.73291 9.8555 7.35374 9.83074 7.10449 10.0488C6.8555 10.2671 6.83074 10.6463 7.04883 10.8955L8.79883 12.8955C8.92261 13.0367 9.10564 13.112 9.29297 13.0986C9.4569 13.0869 9.60816 13.0087 9.71191 12.8838L9.75293 12.8271L13.0029 7.82715C13.1835 7.54937 13.1048 7.17771 12.8271 6.99707Z" fill="black"/>
</g>
</svg>
