<svg width="20" height="20" viewBox="0 0 20 20" fill="none" xmlns="http://www.w3.org/2000/svg">
<g id="type=normal, icon=arrow_down">
<path id="component_1" d="M10.0001 3.40039C10.3314 3.40046 10.5997 3.66867 10.5997 4V14.7998L13.6398 12.5195C13.9049 12.3208 14.2818 12.3746 14.4806 12.6396C14.6793 12.9047 14.6255 13.2816 14.3605 13.4805L10.3605 16.4805L10.339 16.4932C10.3331 16.4972 10.3265 16.5001 10.3204 16.5039L10.2765 16.5322C10.2685 16.5364 10.2593 16.5382 10.2511 16.542C10.2385 16.5478 10.226 16.5536 10.213 16.5586C10.1909 16.567 10.1684 16.5734 10.1456 16.5791C10.1336 16.5821 10.1218 16.5866 10.1095 16.5889C10.0765 16.595 10.0433 16.598 10.0099 16.5986C10.0066 16.5987 10.0034 16.5996 10.0001 16.5996C9.9969 16.5996 9.99357 16.5987 9.99035 16.5986C9.95628 16.5982 9.9224 16.5951 9.88879 16.5889C9.8842 16.588 9.87968 16.5869 9.87512 16.5859C9.83923 16.5784 9.80396 16.5679 9.76965 16.5537C9.76669 16.5525 9.7638 16.5511 9.76086 16.5498C9.72981 16.5363 9.69994 16.52 9.67102 16.501C9.66709 16.4984 9.66316 16.4958 9.6593 16.4932C9.65293 16.4888 9.646 16.4851 9.63977 16.4805L5.63977 13.4805C5.37467 13.2816 5.32083 12.9047 5.51965 12.6396C5.71848 12.3746 6.09539 12.3207 6.36047 12.5195L9.40051 14.7998V4C9.40051 3.66863 9.66875 3.40039 10.0001 3.40039Z" fill="black"/>
</g>
</svg>
