<svg width="20" height="20" viewBox="0 0 20 20" fill="none" xmlns="http://www.w3.org/2000/svg">
<g id="type=normal, icon=triangle_exclamation_fill">
<path id="component_1" fill-rule="evenodd" clip-rule="evenodd" d="M8.73964 4.14715C9.29539 3.15068 10.7032 3.15096 11.2592 4.14715L16.4086 13.3874C16.9408 14.3423 16.2962 15.5992 15.1488 15.5993H4.84999C3.70302 15.5988 3.05823 14.3422 3.59023 13.3874L8.73964 4.14715ZM9.99941 11.9997C9.55805 12 9.19991 12.3581 9.1996 12.7995C9.1996 13.2411 9.55786 13.599 9.99941 13.5993C10.4412 13.5993 10.8002 13.2413 10.8002 12.7995C10.7999 12.3579 10.441 11.9997 9.99941 11.9997ZM9.99941 6.90008C9.66844 6.90041 9.4 7.1687 9.3998 7.49969V10.4997C9.3998 10.8309 9.66831 11.099 9.99941 11.0993C10.3308 11.0993 10.599 10.8311 10.599 10.4997V7.49969C10.5988 7.1685 10.3306 6.90008 9.99941 6.90008Z" fill="black"/>
</g>
</svg>
