<svg width="20" height="20" viewBox="0 0 20 20" fill="none" xmlns="http://www.w3.org/2000/svg">
<g id="type=normal, icon=video">
<path id="component_1" fill-rule="evenodd" clip-rule="evenodd" d="M9.2002 4.4004C10.0303 4.4004 10.6894 4.39906 11.2197 4.44239C11.7569 4.48631 12.2153 4.57829 12.6348 4.792C13.312 5.13712 13.8629 5.68799 14.208 6.36524C14.4217 6.78467 14.5137 7.24311 14.5576 7.78028C14.5609 7.82018 14.5617 7.86097 14.5645 7.90235L15.4238 7.33008C15.6158 7.20207 15.7945 7.08228 15.9463 7C16.0744 6.9306 16.2555 6.8459 16.4707 6.83594H16.5654C16.8864 6.85511 17.1829 7.01414 17.377 7.27051C17.5323 7.47585 17.5698 7.71099 17.585 7.87696C17.6007 8.04898 17.5996 8.26425 17.5996 8.49512V11.5049C17.5996 11.7358 17.6007 11.951 17.585 12.1231C17.5698 12.289 17.5323 12.5242 17.377 12.7295C17.1829 12.9859 16.8864 13.1449 16.5654 13.1641C16.3086 13.1794 16.0928 13.0794 15.9463 13C15.7945 12.9177 15.6158 12.7979 15.4238 12.6699L14.5645 12.0967C14.5617 12.1384 14.5609 12.1795 14.5576 12.2197C14.5137 12.7569 14.4217 13.2153 14.208 13.6348C13.8629 14.312 13.312 14.8629 12.6348 15.208C12.2153 15.4217 11.7569 15.5137 11.2197 15.5576C10.6894 15.601 10.0303 15.5996 9.2002 15.5996H7.79981C6.96973 15.5996 6.31059 15.601 5.78028 15.5576C5.24311 15.5137 4.78467 15.4217 4.36524 15.208C3.68799 14.8629 3.13712 14.312 2.792 13.6348C2.57829 13.2153 2.48631 12.7569 2.44239 12.2197C2.39906 11.6894 2.4004 11.0303 2.4004 10.2002V9.79981C2.4004 8.96973 2.39906 8.31059 2.44239 7.78028C2.48631 7.24311 2.57828 6.78467 2.792 6.36524C3.13712 5.68799 3.68799 5.13712 4.36524 4.792C4.78467 4.57828 5.2431 4.48631 5.78028 4.44239C6.31059 4.39906 6.96973 4.4004 7.79981 4.4004H9.2002ZM7.79981 5.59961C6.95021 5.59961 6.34896 5.6003 5.87891 5.63868C5.41576 5.67652 5.13235 5.74812 4.91016 5.86133C4.45866 6.09141 4.09141 6.45866 3.86133 6.91016C3.74812 7.13235 3.67652 7.41576 3.63868 7.87891C3.6003 8.34896 3.59961 8.95021 3.59961 9.79981V10.2002C3.59961 11.0498 3.6003 11.651 3.63868 12.1211C3.67652 12.5842 3.74813 12.8677 3.86133 13.0898C4.09141 13.5413 4.45866 13.9086 4.91016 14.1387C5.13235 14.2519 5.41576 14.3235 5.87891 14.3613C6.34896 14.3997 6.95021 14.4004 7.79981 14.4004H9.2002C10.0498 14.4004 10.651 14.3997 11.1211 14.3613C11.5842 14.3235 11.8677 14.2519 12.0898 14.1387C12.5414 13.9086 12.9086 13.5414 13.1387 13.0898C13.2519 12.8677 13.3235 12.5842 13.3613 12.1211C13.3997 11.651 13.4004 11.0498 13.4004 10.2002V9.79981C13.4004 8.95021 13.3997 8.34896 13.3613 7.87891C13.3235 7.41576 13.2519 7.13235 13.1387 6.91016C12.9086 6.45866 12.5413 6.09141 12.0898 5.86133C11.8677 5.74813 11.5842 5.67652 11.1211 5.63868C10.651 5.6003 10.0498 5.59961 9.2002 5.59961H7.79981ZM16.0889 8.32813L14.5996 9.32032V10.6787L16.0889 11.6719C16.2202 11.7594 16.3192 11.8225 16.3965 11.8711C16.3989 11.7799 16.4004 11.6624 16.4004 11.5049V8.49512C16.4004 8.33703 16.3989 8.21925 16.3965 8.12793C16.3191 8.17655 16.2205 8.2404 16.0889 8.32813Z" fill="black"/>
</g>
</svg>
