<svg width="20" height="20" viewBox="0 0 20 20" fill="none" xmlns="http://www.w3.org/2000/svg">
<g id="type=normal, icon=ellipsis_handle">
<g id="component_1">
<path d="M8 6.5C7.30964 6.5 6.75 5.94036 6.75 5.25C6.75 4.55964 7.30964 4 8 4C8.69036 4 9.25 4.55964 9.25 5.25C9.25 5.94036 8.69036 6.5 8 6.5Z" fill="black"/>
<path d="M8 11.5C7.30964 11.5 6.75 10.9404 6.75 10.25C6.75 9.55964 7.30964 9 8 9C8.69036 9 9.25 9.55964 9.25 10.25C9.25 10.9404 8.69036 11.5 8 11.5Z" fill="black"/>
<path d="M8 16.5C7.30964 16.5 6.75 15.9404 6.75 15.25C6.75 14.5596 7.30964 14 8 14C8.69036 14 9.25 14.5596 9.25 15.25C9.25 15.9404 8.69036 16.5 8 16.5Z" fill="black"/>
<path d="M12 6.5C11.3096 6.5 10.75 5.94036 10.75 5.25C10.75 4.55964 11.3096 4 12 4C12.6904 4 13.25 4.55964 13.25 5.25C13.25 5.94036 12.6904 6.5 12 6.5Z" fill="black"/>
<path d="M12 11.5C11.3096 11.5 10.75 10.9404 10.75 10.25C10.75 9.55964 11.3096 9 12 9C12.6904 9 13.25 9.55964 13.25 10.25C13.25 10.9404 12.6904 11.5 12 11.5Z" fill="black"/>
<path d="M12 16.5C11.3096 16.5 10.75 15.9404 10.75 15.25C10.75 14.5596 11.3096 14 12 14C12.6904 14 13.25 14.5596 13.25 15.25C13.25 15.9404 12.6904 16.5 12 16.5Z" fill="black"/>
</g>
</g>
</svg>
