<svg width="20" height="20" viewBox="0 0 20 20" fill="none" xmlns="http://www.w3.org/2000/svg">
<g id="type=normal, icon=rectangle_timeline">
<g id="component_2">
<path d="M4.79962 7.30005C4.79962 7.02391 5.02348 6.80005 5.29962 6.80005H10.2996C10.5758 6.80005 10.7996 7.02391 10.7996 7.30005V7.90005C10.7996 8.17619 10.5758 8.40005 10.2996 8.40005H5.29962C5.02348 8.40005 4.79962 8.17619 4.79962 7.90005V7.30005Z" fill="black"/>
<path d="M9.19962 12.1001C9.19962 11.8239 9.42347 11.6001 9.69962 11.6001H14.6996C14.9758 11.6001 15.1996 11.8239 15.1996 12.1001V12.7001C15.1996 12.9762 14.9758 13.2001 14.6996 13.2001H9.69962C9.42347 13.2001 9.19962 12.9762 9.19962 12.7001V12.1001Z" fill="black"/>
<path d="M7.99962 9.70007C7.99962 9.42393 8.22348 9.20007 8.49962 9.20007H11.4996C11.7758 9.20007 11.9996 9.42393 11.9996 9.70007V10.3001C11.9996 10.5762 11.7758 10.8001 11.4996 10.8001H8.49962C8.22348 10.8001 7.99962 10.5762 7.99962 10.3001V9.70007Z" fill="black"/>
</g>
<path id="component_1" d="M16.4 8C16.4 6.67452 15.3251 5.59961 13.9996 5.59961H5.99963C4.67415 5.59961 3.59924 6.67452 3.59924 8V12C3.59924 13.3255 4.67415 14.4004 5.99963 14.4004H13.9996C15.3251 14.4004 16.4 13.3255 16.4 12V8ZM17.5992 12C17.5992 13.9882 15.9879 15.5996 13.9996 15.5996H5.99963C4.01141 15.5996 2.40002 13.9882 2.40002 12V8C2.40002 6.01178 4.01141 4.40039 5.99963 4.40039H13.9996C15.9879 4.40039 17.5992 6.01178 17.5992 8V12Z" fill="black"/>
</g>
</svg>
