<svg width="20" height="20" viewBox="0 0 20 20" fill="none" xmlns="http://www.w3.org/2000/svg">
<g id="type=normal, icon=text_underline">
<g id="component_1">
<path d="M14 14.5C14.2761 14.5 14.5 14.7239 14.5 15C14.5 15.2761 14.2761 15.5 14 15.5H6C5.72386 15.5 5.5 15.2761 5.5 15C5.5 14.7239 5.72386 14.5 6 14.5H14Z" fill="black"/>
<path d="M13 4.40039C13.3314 4.40039 13.5996 4.66863 13.5996 5V10C13.5996 11.9882 11.9882 13.5996 10 13.5996C8.01178 13.5996 6.40039 11.9882 6.40039 10V5C6.40039 4.66863 6.66863 4.40039 7 4.40039C7.33137 4.40039 7.59961 4.66863 7.59961 5V10C7.59961 11.3255 8.67452 12.4004 10 12.4004C11.3255 12.4004 12.4004 11.3255 12.4004 10V5C12.4004 4.66863 12.6686 4.40039 13 4.40039Z" fill="black"/>
</g>
</g>
</svg>
