<svg width="20" height="20" viewBox="0 0 20 20" fill="none" xmlns="http://www.w3.org/2000/svg">
<g id="type=normal, icon=square_plus_fill">
<path id="component_1" fill-rule="evenodd" clip-rule="evenodd" d="M11.2002 3.4004C12.0303 3.4004 12.6894 3.39906 13.2197 3.44239C13.7569 3.48631 14.2153 3.57829 14.6348 3.792C15.312 4.13712 15.8629 4.68799 16.208 5.36524C16.4217 5.78467 16.5137 6.2431 16.5576 6.78028C16.601 7.31059 16.5996 7.96972 16.5996 8.79981V11.2002C16.5996 12.0303 16.601 12.6894 16.5576 13.2197C16.5137 13.7569 16.4217 14.2153 16.208 14.6348C15.8629 15.312 15.312 15.8629 14.6348 16.208C14.2153 16.4217 13.7569 16.5137 13.2197 16.5576C12.6894 16.601 12.0303 16.5996 11.2002 16.5996H8.79981C7.96973 16.5996 7.31059 16.601 6.78028 16.5576C6.24311 16.5137 5.78467 16.4217 5.36524 16.208C4.68799 15.8629 4.13712 15.312 3.792 14.6348C3.57829 14.2153 3.48631 13.7569 3.44239 13.2197C3.39906 12.6894 3.4004 12.0303 3.4004 11.2002V8.79981C3.4004 7.96972 3.39906 7.31059 3.44239 6.78028C3.48631 6.2431 3.57828 5.78467 3.792 5.36524C4.13712 4.68799 4.68799 4.13712 5.36524 3.792C5.78467 3.57828 6.24311 3.48631 6.78028 3.44239C7.31059 3.39906 7.96973 3.4004 8.79981 3.4004H11.2002ZM9.99805 6.9004C9.66668 6.9004 9.39844 7.16864 9.39844 7.5V9.39747H7.5C7.16877 9.39747 6.90062 9.6659 6.9004 9.99707C6.9004 10.3284 7.16864 10.5967 7.5 10.5967H9.39844V12.5C9.39844 12.8314 9.66668 13.0996 9.99805 13.0996C10.3292 13.0994 10.5977 12.8312 10.5977 12.5V10.5967H12.5C12.8314 10.5967 13.0996 10.3284 13.0996 9.99707C13.0994 9.6659 12.8312 9.39747 12.5 9.39747H10.5977V7.5C10.5977 7.1688 10.3292 6.90066 9.99805 6.9004Z" fill="black"/>
</g>
</svg>
