<svg width="20" height="20" viewBox="0 0 20 20" fill="none" xmlns="http://www.w3.org/2000/svg">
<g id="type=normal, icon=link">
<path id="component_1" d="M5.78318 6.86812C7.18902 5.46272 9.46823 5.4626 10.874 6.86812C12.1358 8.12988 12.2649 10.0946 11.2627 11.5009C11.0704 11.7707 10.6956 11.8337 10.4258 11.6416C10.156 11.4493 10.093 11.0745 10.2851 10.8046C10.9528 9.86774 10.8658 8.55722 10.0254 7.71675C9.08822 6.77986 7.56902 6.77998 6.63181 7.71675L3.80271 10.5459C2.86579 11.4831 2.86576 13.0022 3.80271 13.9394C4.73996 14.8767 6.25998 14.8767 7.19724 13.9394C7.43157 13.7053 7.81163 13.7052 8.04587 13.9394C8.28008 14.1736 8.27995 14.5537 8.04587 14.788C6.63998 16.1939 4.35996 16.1939 2.95407 14.788C1.5485 13.3822 1.54852 11.1031 2.95407 9.69722L5.78318 6.86812ZM11.4394 5.45406C12.8453 4.0482 15.1253 4.04818 16.5312 5.45406C17.9371 6.85993 17.9371 9.13998 16.5312 10.5459L13.7021 13.374C12.2962 14.7797 10.0171 14.7798 8.6113 13.374C7.34963 12.1123 7.22063 10.1484 8.22263 8.74214C8.41495 8.47229 8.78969 8.4092 9.05954 8.60152C9.3293 8.79386 9.39246 9.16862 9.20017 9.43843C8.5325 10.3753 8.61948 11.6849 9.45993 12.5253C10.3971 13.4625 11.9162 13.4624 12.8535 12.5253L15.6826 9.69722C16.6198 8.75997 16.6198 7.23994 15.6826 6.30269C14.7453 5.36544 13.2253 5.36547 12.2881 6.30269C12.0537 6.537 11.6737 6.537 11.4394 6.30269C11.2053 6.06836 11.2052 5.6883 11.4394 5.45406Z" fill="black"/>
</g>
</svg>
