<svg width="20" height="20" viewBox="0 0 20 20" fill="none" xmlns="http://www.w3.org/2000/svg">
<g id="type=normal, icon=document_down">
<path id="component_2" fill-rule="evenodd" clip-rule="evenodd" d="M15.9751 15.9749C14.6082 17.3415 12.3921 17.3416 11.0253 15.9749C9.65857 14.6081 9.65868 12.392 11.0253 11.0251C12.3922 9.65829 14.6083 9.65829 15.9751 11.0251C17.3419 12.392 17.3419 14.608 15.9751 15.9749ZM15.0284 14.1788C15.1684 14.0383 15.1685 13.8097 15.0284 13.6692C14.8879 13.5289 14.6593 13.5291 14.5188 13.6692L13.8607 14.3273V11.8027C13.8602 11.6044 13.6985 11.4425 13.5002 11.4422C13.3021 11.4426 13.1411 11.6039 13.1404 11.802V14.3279L12.4824 13.6699C12.3419 13.5296 12.114 13.5292 11.9734 13.6692C11.8331 13.8097 11.8331 14.0382 11.9734 14.1788L13.2461 15.4514C13.2629 15.4682 13.2816 15.4839 13.3013 15.497C13.3816 15.5503 13.4792 15.5674 13.5707 15.5495C13.5748 15.5486 13.5796 15.5471 13.5838 15.5461C13.6464 15.5312 13.7069 15.5002 13.7557 15.4514L15.0284 14.1788Z" fill="black"/>
<path id="component_1" fill-rule="evenodd" clip-rule="evenodd" d="M9.43848 2.90028C9.62239 2.90028 9.7978 2.89706 9.9707 2.93251C10.1118 2.96148 10.2486 3.00955 10.377 3.07509C10.5341 3.15541 10.6699 3.26683 10.8135 3.38173L14.7744 6.55067C14.9688 6.7062 15.1578 6.85137 15.2959 7.04189C15.3303 7.08934 15.3607 7.13956 15.3896 7.19032C15.437 7.24988 15.473 7.31921 15.4893 7.39638C15.5097 7.4484 15.5281 7.50152 15.543 7.55556C15.6053 7.78223 15.5996 8.01972 15.5996 8.26845V9.51747C15.2184 9.31634 14.8139 9.17477 14.4004 9.09071V8.26845C14.4004 8.14005 14.3982 8.05621 14.3965 7.99989H11C10.1717 7.99989 9.50013 7.32821 9.5 6.49989V4.0995H8.2002C7.63044 4.0995 7.23891 4.10013 6.93555 4.12489C6.63919 4.14911 6.47948 4.19412 6.36426 4.25282C6.1011 4.387 5.8871 4.60099 5.75293 4.86415C5.69427 4.97936 5.6492 5.13926 5.625 5.43544C5.60026 5.73875 5.59961 6.13052 5.59961 6.70009V13.2997C5.59961 13.8693 5.60025 14.261 5.625 14.5643C5.64922 14.8605 5.69425 15.0204 5.75293 15.1356C5.88712 15.3988 6.10112 15.6128 6.36426 15.747C6.47948 15.8057 6.63924 15.8507 6.93555 15.8749C7.23891 15.8997 7.63044 15.9003 8.2002 15.9003H9.69336C9.86856 16.1776 10.0767 16.4408 10.3184 16.6825C10.4709 16.835 10.6322 16.9735 10.7998 17.0995H8.2002C7.65021 17.0995 7.20144 17.0999 6.83789 17.0702C6.46732 17.0399 6.1319 16.9755 5.81934 16.8163C5.33044 16.5671 4.93282 16.1694 4.68359 15.6806C4.52438 15.3681 4.45997 15.0325 4.42969 14.662C4.40002 14.2985 4.40039 13.8495 4.40039 13.2997V6.70009C4.40039 6.15025 4.40003 5.70127 4.42969 5.33778C4.45996 4.96728 4.5244 4.63175 4.68359 4.31923C4.93281 3.83032 5.33043 3.43271 5.81934 3.18349C6.13191 3.02423 6.4673 2.95986 6.83789 2.92958C7.20144 2.8999 7.6502 2.90028 8.2002 2.90028H9.43848ZM10.5 6.49989C10.5001 6.77592 10.7239 6.99989 11 6.99989H13.4141L10.5 4.66786V6.49989Z" fill="black"/>
</g>
</svg>
