<svg width="20" height="20" viewBox="0 0 20 20" fill="none" xmlns="http://www.w3.org/2000/svg">
<g id="type=normal, icon=circle_profile_fill">
<path id="component_1" fill-rule="evenodd" clip-rule="evenodd" d="M10 3.40039C13.6451 3.40039 16.5996 6.35492 16.5996 10C16.5996 13.6451 13.6451 16.5996 10 16.5996C6.35492 16.5996 3.40039 13.6451 3.40039 10C3.40039 6.35492 6.35492 3.40039 10 3.40039ZM9.99902 11C8.49876 11.0001 7.15259 11.6614 6.23633 12.708C6.09 12.8754 6.09 13.1246 6.23633 13.292C7.15259 14.3386 8.49876 14.9999 9.99902 15C11.4992 14.9999 12.8445 14.3384 13.7607 13.292C13.9073 13.1245 13.9073 12.8755 13.7607 12.708C12.8445 11.6616 11.4992 11.0001 9.99902 11ZM10 6C8.89563 6.00024 8 6.89558 8 8C8 9.10442 8.89563 9.99976 10 10C11.1044 9.99978 12 9.10443 12 8C12 6.89557 11.1044 6.00022 10 6Z" fill="black"/>
</g>
</svg>
