<svg width="20" height="20" viewBox="0 0 20 20" fill="none" xmlns="http://www.w3.org/2000/svg">
<g id="type=normal, icon=circle_profile_line">
<g id="component_2">
<path d="M9.99947 10.9444C11.333 10.9445 12.5288 11.5324 13.3432 12.4627C13.4735 12.6115 13.4735 12.8329 13.3432 12.9818C12.5288 13.912 11.333 14.4999 9.99947 14.5C8.66575 14.5 7.46939 13.9122 6.65485 12.9818C6.52455 12.8329 6.52455 12.6115 6.65485 12.4627C7.46939 11.5323 8.66575 10.9444 9.99947 10.9444Z" fill="black"/>
<path d="M10.0003 6.5C10.982 6.5002 11.7781 7.29606 11.7781 8.27778C11.7781 9.25949 10.982 10.0554 10.0003 10.0556C9.0185 10.0556 8.22256 9.25962 8.22256 8.27778C8.22256 7.29594 9.0185 6.5 10.0003 6.5Z" fill="black"/>
</g>
<path id="component_1" d="M15.4004 10C15.4004 7.01766 12.9823 4.59961 10 4.59961C7.01766 4.59961 4.59961 7.01766 4.59961 10C4.59961 12.9823 7.01766 15.4004 10 15.4004C12.9823 15.4004 15.4004 12.9823 15.4004 10ZM16.5996 10C16.5996 13.6451 13.6451 16.5996 10 16.5996C6.35492 16.5996 3.40039 13.6451 3.40039 10C3.40039 6.35492 6.35492 3.40039 10 3.40039C13.6451 3.40039 16.5996 6.35492 16.5996 10Z" fill="black"/>
</g>
</svg>
