<svg width="20" height="20" viewBox="0 0 20 20" fill="none" xmlns="http://www.w3.org/2000/svg">
<g id="type=normal, icon=home">
<path id="component_1" fill-rule="evenodd" clip-rule="evenodd" d="M9.73287 3.46322C9.92906 3.36551 10.1666 3.38175 10.3491 3.51205L17.3491 8.51205C17.6183 8.70472 17.6811 9.07947 17.4887 9.34896C17.2962 9.61844 16.9214 9.68076 16.6518 9.48861L15.6001 8.73666V15.0003C15.5999 15.8837 14.8838 16.5997 14.0004 16.5999H6.00044C5.11689 16.5999 4.40099 15.8839 4.40084 15.0003V8.73666L3.34908 9.48861C3.07957 9.68104 2.70483 9.61824 2.51216 9.34896C2.31964 9.07932 2.38219 8.70463 2.65181 8.51205L9.65181 3.51205L9.73287 3.46322ZM5.60005 7.88021V15.0003C5.60021 15.2211 5.77963 15.4007 6.00044 15.4007H7.50044V12.0003C7.50044 11.1719 8.17202 10.5003 9.00044 10.5003H11.0004C11.8287 10.5006 12.5004 11.1721 12.5004 12.0003V15.4007H14.0004C14.2211 15.4005 14.4007 15.221 14.4008 15.0003V7.88021L10.0004 4.73764L5.60005 7.88021ZM9.00044 11.5003C8.7243 11.5003 8.50044 11.7242 8.50044 12.0003V15.4007H11.5004V12.0003C11.5004 11.7243 11.2764 11.5006 11.0004 11.5003H9.00044Z" fill="black"/>
</g>
</svg>
