<svg width="20" height="20" viewBox="0 0 20 20" fill="none" xmlns="http://www.w3.org/2000/svg">
<g id="type=normal, icon=bell">
<path id="component_1" fill-rule="evenodd" clip-rule="evenodd" d="M13.0968 14.5996C13.0442 16.2655 11.6788 17.5995 10.0001 17.5996C8.32139 17.5996 6.95604 16.2656 6.90345 14.5996H4.32141C3.33201 14.5996 2.94349 13.3164 3.76673 12.7676L4.77649 12.0947C5.16591 11.8351 5.4005 11.3977 5.40052 10.9297V8C5.40052 5.45949 7.45962 3.40039 10.0001 3.40039C12.5406 3.40045 14.5997 5.45953 14.5997 8V10.9297C14.5998 11.3978 14.8343 11.8351 15.2238 12.0947L16.2335 12.7676C17.0566 13.3164 16.6681 14.5995 15.6788 14.5996H13.0968ZM8.10462 14.5996C8.15651 15.6026 8.98424 16.4004 10.0001 16.4004C11.016 16.4003 11.8437 15.6026 11.8956 14.5996H8.10462ZM10.0001 4.59961C8.12236 4.59961 6.59973 6.12223 6.59973 8V10.9297C6.59972 11.7989 6.16564 12.6105 5.44251 13.0928L4.98059 13.4004H15.0197L14.5577 13.0928C13.8346 12.6106 13.4005 11.7989 13.4005 10.9297V8C13.4005 6.12227 11.8778 4.59967 10.0001 4.59961Z" fill="black"/>
</g>
</svg>
