<svg width="20" height="20" viewBox="0 0 20 20" fill="none" xmlns="http://www.w3.org/2000/svg">
<g id="type=normal, icon=arrow_up">
<path id="component_1" d="M10.0099 3.40137C10.0436 3.40185 10.0772 3.40401 10.1105 3.41016C10.1151 3.41101 10.1196 3.41213 10.1241 3.41309C10.159 3.42037 10.1933 3.43077 10.2267 3.44434C10.2323 3.44665 10.2377 3.44967 10.2433 3.45215C10.2736 3.46555 10.303 3.48131 10.3312 3.5C10.3329 3.50115 10.3343 3.50274 10.3361 3.50391C10.344 3.50928 10.3527 3.51373 10.3605 3.51953L14.3605 6.51953C14.6255 6.71835 14.6793 7.09528 14.4806 7.36035C14.2818 7.62542 13.9049 7.67922 13.6398 7.48047L10.5997 5.19922V16C10.5997 16.3313 10.3314 16.5995 10.0001 16.5996C9.66875 16.5996 9.40051 16.3314 9.40051 16V5.19922L6.36047 7.48047C6.09539 7.67928 5.71849 7.6254 5.51965 7.36035C5.32083 7.09525 5.37467 6.71835 5.63977 6.51953L9.63977 3.51953L9.65637 3.50879C9.66547 3.50241 9.67523 3.49708 9.68469 3.49121L9.72375 3.46777C9.73179 3.4636 9.73999 3.45984 9.74817 3.45605C9.75967 3.45073 9.77144 3.44601 9.78332 3.44141C9.80699 3.43221 9.83116 3.42504 9.85559 3.41895C9.86696 3.41613 9.87815 3.41231 9.88977 3.41016C9.92299 3.40391 9.95668 3.40198 9.99035 3.40137C9.99357 3.40132 9.9969 3.40039 10.0001 3.40039C10.0034 3.40039 10.0066 3.40131 10.0099 3.40137Z" fill="black"/>
</g>
</svg>
