<svg width="20" height="20" viewBox="0 0 20 20" fill="none" xmlns="http://www.w3.org/2000/svg">
<g id="type=normal, icon=chevron_code">
<path id="component_2" d="M7.43104 15.8106L11.4311 3.81035C11.5359 3.49599 11.8752 3.32634 12.1896 3.43113C12.504 3.53591 12.6736 3.87521 12.5688 4.18958L8.56872 16.1899C8.46382 16.504 8.12454 16.6738 7.81027 16.5691C7.496 16.4643 7.32645 16.1249 7.43104 15.8106Z" fill="black"/>
<g id="component_1">
<path d="M17.5323 9.72363C17.6372 9.9256 17.6205 10.1737 17.4805 10.3603L14.4805 14.3603C14.2817 14.6254 13.9048 14.6793 13.6397 14.4805C13.3746 14.2816 13.3207 13.9047 13.5196 13.6396L16.25 10L13.5196 6.36035C13.3207 6.09525 13.3746 5.71835 13.6397 5.51953C13.9048 5.32071 14.2817 5.37455 14.4805 5.63965L17.4805 9.63965L17.5323 9.72363Z" fill="black"/>
<path d="M2.4678 10.2764C2.36283 10.0744 2.37957 9.8263 2.51956 9.63965L5.51956 5.63965C5.71839 5.37455 6.09529 5.32071 6.36038 5.51953C6.62548 5.71835 6.67932 6.09525 6.4805 6.36035L3.75003 10L6.4805 13.6396C6.67932 13.9047 6.62548 14.2816 6.36038 14.4805C6.09529 14.6793 5.71838 14.6254 5.51956 14.3603L2.51956 10.3603L2.4678 10.2764Z" fill="black"/>
</g>
</g>
</svg>
