<svg width="20" height="20" viewBox="0 0 20 20" fill="none" xmlns="http://www.w3.org/2000/svg">
<g id="type=normal, icon=hand">
<path id="component_1" fill-rule="evenodd" clip-rule="evenodd" d="M6.77184 4.17309C7.27862 3.8805 7.89693 3.95849 8.31557 4.3215C8.40664 4.22081 8.51465 4.13218 8.63854 4.06061C9.27748 3.69172 10.0952 3.91042 10.4643 4.54911L12.0517 7.29857C12.1365 6.64244 12.6958 6.13573 13.375 6.13541C14.1128 6.13541 14.7119 6.73311 14.7121 7.47096L14.7123 9.13527C14.7589 9.77154 14.8429 10.0829 14.9249 10.3532C15.0164 10.6548 15.1227 10.9579 15.1726 11.5205C15.2899 12.8443 15.0659 13.7457 14.6551 14.3859C14.2487 15.0189 13.6969 15.3315 13.3357 15.54C11.0969 16.8326 8.23383 16.0658 6.94093 13.8273L4.64063 9.84305C4.27192 9.20406 4.49081 8.38715 5.12962 8.01813C5.23048 7.9599 5.33608 7.91735 5.44337 7.88773L5.25294 7.5579C4.88444 6.91895 5.1032 6.10194 5.74193 5.73297C5.86583 5.66147 5.9966 5.61226 6.12936 5.58371C6.0241 5.03989 6.2654 4.46581 6.77184 4.17309ZM7.27184 5.03912C7.11155 5.13208 7.05636 5.33742 7.14888 5.49801L7.55709 6.20504C7.56042 6.21063 7.56443 6.21582 7.5677 6.22147L9.65852 9.84288C9.79648 10.0818 9.71422 10.3877 9.4755 10.5259C9.44565 10.5431 9.41413 10.5578 9.38267 10.5682C9.31971 10.5892 9.25426 10.5969 9.1903 10.5924C9.03029 10.5811 8.87789 10.4928 8.79165 10.3434L6.69594 6.7135C6.60076 6.5597 6.3997 6.50811 6.24193 6.599C6.0815 6.69182 6.02661 6.89724 6.11896 7.0579L8.41926 11.0421C8.55694 11.2811 8.47504 11.5871 8.23624 11.7251C7.99724 11.8631 7.69142 11.7809 7.55323 11.5421L6.08936 9.00663C5.99643 8.84601 5.79036 8.79135 5.62962 8.88415C5.4691 8.97703 5.41408 9.18236 5.50666 9.34305L7.80695 13.3273C8.82371 15.0875 11.0752 15.6904 12.8357 14.674C13.1985 14.4645 13.5518 14.2539 13.8141 13.8452C14.072 13.4431 14.2802 12.7818 14.1765 11.6097C14.1369 11.1627 14.0616 10.9508 13.9685 10.6438C13.8668 10.3089 13.7649 9.91918 13.7127 9.18127C13.712 9.17228 13.7129 9.16303 13.7128 9.15413C13.7127 9.15079 13.7126 9.14744 13.7126 9.14408L13.712 7.47105C13.7118 7.28549 13.5607 7.13557 13.3751 7.13557C13.1897 7.13587 13.0401 7.28576 13.0399 7.47114L13.0393 9.14381C13.0393 9.14515 13.0382 9.14647 13.0382 9.14781C13.038 9.17817 13.0348 9.20795 13.0291 9.23761C13.0284 9.24148 13.0276 9.24529 13.0268 9.24912C13.0218 9.272 13.0148 9.29397 13.0067 9.31596C13.0028 9.32666 12.9993 9.3374 12.9946 9.34775C12.9842 9.37102 12.9714 9.39272 12.9575 9.41429C12.955 9.41809 12.9533 9.42234 12.9508 9.42607C12.9364 9.44707 12.9204 9.46659 12.9027 9.48539C12.8973 9.49111 12.8923 9.49709 12.8867 9.50254C12.8704 9.51829 12.8524 9.53188 12.8337 9.54554C12.8255 9.55155 12.8175 9.5577 12.8089 9.56321C12.8023 9.56743 12.7969 9.57352 12.7901 9.57747C12.7769 9.58509 12.7623 9.58941 12.7487 9.5957C12.7404 9.59957 12.7322 9.60342 12.7236 9.60684C12.7009 9.61588 12.6782 9.62293 12.6549 9.62846C12.6463 9.63051 12.6378 9.6328 12.629 9.63439C12.6023 9.63923 12.5758 9.64181 12.549 9.64226C12.5458 9.64232 12.5426 9.64327 12.5394 9.64327C12.5374 9.64327 12.5353 9.64235 12.5332 9.64233C12.5073 9.64194 12.482 9.63902 12.4566 9.63467C12.4472 9.63309 12.4376 9.63278 12.4284 9.63068C12.4072 9.6258 12.3868 9.6188 12.3664 9.61121C12.3564 9.60751 12.3461 9.60464 12.3364 9.60032C12.3183 9.59221 12.3011 9.58224 12.284 9.57197C12.2725 9.56507 12.2604 9.55907 12.2495 9.55129C12.2355 9.54126 12.2229 9.52935 12.2099 9.51779C12.1991 9.5083 12.1883 9.49899 12.1784 9.48862C12.1668 9.47645 12.1563 9.46337 12.1458 9.44988C12.1348 9.43568 12.1243 9.42118 12.1148 9.40581C12.1124 9.40202 12.1093 9.39833 12.1071 9.39446L9.59829 5.04911C9.50528 4.88871 9.29919 4.83388 9.13854 4.92663C8.97812 5.01946 8.92324 5.22488 9.01558 5.38553L11.3159 9.36976C11.4536 9.60875 11.3717 9.9147 11.1329 10.0528C10.9995 10.1296 10.846 10.1363 10.7119 10.0872C10.6053 10.0484 10.5105 9.9748 10.4494 9.86891L7.73159 5.16159C7.63865 5.00098 7.43258 4.94631 7.27184 5.03912Z" fill="black"/>
</g>
</svg>
