<svg width="20" height="20" viewBox="0 0 20 20" fill="none" xmlns="http://www.w3.org/2000/svg">
<g id="type=normal, icon=circle_arrow_refresh">
<path id="component_1" d="M16.0302 9.41938C16.0571 9.42023 16.0837 9.42373 16.1103 9.42817C16.1181 9.42955 16.126 9.4304 16.1337 9.43208C16.2243 9.45094 16.3114 9.48996 16.3867 9.55024L17.7939 10.6772C18.0524 10.8844 18.0937 11.2624 17.8867 11.5209C17.6795 11.7792 17.3024 11.8206 17.0439 11.6137L16.499 11.1772C16.1682 13.0246 15.0585 14.7212 13.3046 15.7338C10.1479 17.5562 6.1115 16.4745 4.28899 13.3178C4.12347 13.0309 4.22181 12.6641 4.50872 12.4985C4.7957 12.3328 5.16237 12.4312 5.32806 12.7182C6.81923 15.301 10.1222 16.1859 12.705 14.6948C14.099 13.8899 14.9979 12.5568 15.2958 11.0932L14.7177 11.4106C14.4271 11.5694 14.0623 11.4628 13.9033 11.1723C13.7442 10.8818 13.8512 10.5171 14.1415 10.3579L15.665 9.52387C15.7476 9.46667 15.8455 9.4319 15.9511 9.42231C15.9625 9.42116 15.9739 9.41988 15.9853 9.41938C15.9923 9.41915 15.9997 9.41742 16.0068 9.41743C16.0146 9.41744 16.0224 9.41907 16.0302 9.41938ZM6.70501 4.3022C9.86172 2.47978 13.8981 3.56153 15.7206 6.71821C15.8862 7.00517 15.7878 7.37189 15.5009 7.53755C15.2139 7.70322 14.8473 7.60479 14.6816 7.31782C13.1904 4.7351 9.88737 3.8501 7.30462 5.34126C5.9087 6.14722 5.00857 7.48271 4.71185 8.94868L5.29778 8.62837C5.58847 8.46929 5.95315 8.57596 6.11224 8.86665C6.27131 9.15734 6.16464 9.52202 5.87396 9.6811L4.2929 10.5463C4.20296 10.5956 4.10409 10.6175 4.00579 10.6176L4.00286 10.6186L3.99798 10.6176C3.92113 10.6167 3.84499 10.6027 3.77337 10.5727C3.76799 10.5705 3.76304 10.5673 3.75774 10.5649C3.72986 10.5523 3.70271 10.538 3.67669 10.5209C3.6704 10.5168 3.66426 10.5126 3.65813 10.5082C3.64882 10.5016 3.63881 10.4959 3.62981 10.4887L2.22259 9.36177C1.96401 9.15468 1.92189 8.77666 2.12884 8.51802C2.33591 8.25946 2.71395 8.21737 2.97259 8.42427L3.51067 8.85493C3.84226 7.009 4.95231 5.31412 6.70501 4.3022Z" fill="black"/>
</g>
</svg>
