<svg width="20" height="20" viewBox="0 0 20 20" fill="none" xmlns="http://www.w3.org/2000/svg">
<g id="type=normal, icon=line_list_check_plus">
<path id="component_2" fill-rule="evenodd" clip-rule="evenodd" d="M14.5 11C16.4328 11.0002 18 12.5671 18 14.5C18 16.4329 16.4328 17.9998 14.5 18C12.5671 17.9999 11 16.4329 11 14.5C11 12.5671 12.5671 11.0001 14.5 11ZM14.5 12.5C14.2239 12.5001 14 12.7239 14 13V14H13C12.7239 14 12.5 14.2239 12.5 14.5C12.5 14.7761 12.7239 15 13 15H14V16C14 16.2761 14.2239 16.4999 14.5 16.5C14.776 16.4998 15 16.276 15 16V15H16C16.276 14.9998 16.5 14.776 16.5 14.5C16.5 14.224 16.276 14.0002 16 14H15V13C15 12.724 14.776 12.5002 14.5 12.5Z" fill="black"/>
<g id="component_1">
<path d="M5.2963 12.5597L5.37638 12.5812L5.39005 12.587L5.46525 12.6222L5.49259 12.6388L5.55802 12.6886L5.56876 12.6964C5.73555 12.8495 5.79421 13.0919 5.71329 13.3048L5.67032 13.3937L4.59903 15.1798C4.52819 15.2976 4.41676 15.3825 4.29044 15.423C4.28487 15.4247 4.27859 15.4267 4.27286 15.4278L4.17618 15.4464C4.17052 15.4474 4.16436 15.448 4.1586 15.4484C4.00062 15.4587 3.84452 15.4018 3.73185 15.2921L3.68595 15.2413L2.9711 14.3478C2.78014 14.108 2.81813 13.7569 3.05802 13.5646C3.06218 13.5612 3.06719 13.5577 3.07169 13.5548L3.14103 13.5109L3.15275 13.504L3.22892 13.4718C3.38377 13.4198 3.55489 13.4392 3.69474 13.5235L3.76212 13.5714L3.77384 13.5821L3.83146 13.6417L3.84122 13.6525L4.05314 13.9181L4.71427 12.8204L4.72306 12.8077L4.77189 12.7423L4.78165 12.7306C4.9128 12.5875 5.10903 12.5243 5.2963 12.5597Z" fill="black"/>
<path d="M10.1361 13.4005C10.0477 13.7524 10.0004 14.1207 10.0004 14.5001C10.0004 14.5334 10.0026 14.5666 10.0033 14.5997H7.90079C7.56945 14.5997 7.30123 14.3314 7.30118 14.0001C7.30118 13.6687 7.56942 13.4005 7.90079 13.4005H10.1361Z" fill="black"/>
<path d="M5.2963 8.55968L5.37638 8.58116L5.39005 8.58702L5.46525 8.62218L5.49259 8.63878L5.55802 8.68858L5.56876 8.6964C5.73555 8.84946 5.79421 9.09186 5.71329 9.3048L5.67032 9.39366L4.59903 11.1798C4.52819 11.2976 4.41676 11.3825 4.29044 11.423C4.28487 11.4247 4.27859 11.4267 4.27286 11.4278L4.17618 11.4464C4.17051 11.4474 4.16437 11.448 4.1586 11.4484C4.00062 11.4587 3.84452 11.4018 3.73185 11.2921L3.68595 11.2413L2.9711 10.3478C2.78014 10.108 2.81813 9.7569 3.05802 9.56456C3.06218 9.56123 3.06719 9.55767 3.07169 9.5548L3.14103 9.51085L3.15275 9.50401L3.22892 9.47179C3.38377 9.41976 3.55489 9.43916 3.69474 9.52355L3.76212 9.5714L3.77384 9.58214L3.83146 9.64171L3.84122 9.65245L4.05314 9.91808L4.71427 8.82042L4.72306 8.80773L4.77189 8.7423L4.78165 8.73058C4.9128 8.58749 5.10903 8.52431 5.2963 8.55968Z" fill="black"/>
<path d="M16.0004 9.4005C16.3316 9.40073 16.6 9.66888 16.6 10.0001C16.6 10.1682 16.5296 10.319 16.4184 10.4278C15.8367 10.1534 15.1862 10.0002 14.5004 10.0001C13.6834 10.0001 12.9177 10.2191 12.2572 10.5997H7.90079C7.56945 10.5997 7.30123 10.3314 7.30118 10.0001C7.30118 9.66874 7.56942 9.4005 7.90079 9.4005H16.0004Z" fill="black"/>
<path d="M5.2963 4.55968L5.37638 4.58116L5.39005 4.58702L5.46525 4.62218C5.47489 4.62669 5.48412 4.63234 5.49259 4.63878L5.55802 4.68858L5.56876 4.6964C5.73555 4.84946 5.79421 5.09186 5.71329 5.3048L5.67032 5.39366L4.59903 7.1798C4.52819 7.29759 4.41676 7.38249 4.29044 7.42296C4.28487 7.42474 4.27859 7.42674 4.27286 7.42784L4.17618 7.4464C4.17051 7.44745 4.16437 7.44797 4.1586 7.44835C4.00062 7.45865 3.84452 7.40181 3.73185 7.2921L3.68595 7.24132L2.9711 6.34776C2.78014 6.10803 2.81813 5.7569 3.05802 5.56456C3.06218 5.56124 3.06719 5.55767 3.07169 5.5548L3.14103 5.51085L3.15275 5.50401L3.22892 5.47179C3.38377 5.41976 3.55489 5.43916 3.69474 5.52355L3.76212 5.5714L3.77384 5.58214L3.83146 5.64171L3.84122 5.65245L4.05314 5.91808L4.71427 4.82042L4.72306 4.80773L4.77189 4.7423L4.78165 4.73058C4.9128 4.58749 5.10903 4.52431 5.2963 4.55968Z" fill="black"/>
<path d="M16.0004 5.4005C16.3316 5.40073 16.6 5.66888 16.6 6.00011C16.6 6.3313 16.3315 6.59949 16.0004 6.59972H7.90079C7.56945 6.59972 7.30123 6.33144 7.30118 6.00011C7.30118 5.66874 7.56942 5.4005 7.90079 5.4005H16.0004Z" fill="black"/>
</g>
</g>
</svg>
