<svg width="20" height="20" viewBox="0 0 20 20" fill="none" xmlns="http://www.w3.org/2000/svg">
<g id="type=normal, icon=triangle_exclamation_line">
<g id="component_1">
<path d="M9.99969 11.9999C10.4414 11.9999 10.8003 12.358 10.8005 12.7997C10.8005 13.2416 10.4415 13.5996 9.99969 13.5996C9.55802 13.5994 9.19989 13.2415 9.19989 12.7997C9.20003 12.3581 9.5581 12.0001 9.99969 11.9999Z" fill="black"/>
<path d="M9.99969 6.90033C10.331 6.90033 10.5993 7.1686 10.5993 7.49994V10.4999C10.5993 10.8313 10.3311 11.0996 9.99969 11.0996C9.66847 11.0994 9.40008 10.8312 9.40008 10.4999V7.49994C9.40012 7.1687 9.66849 6.9005 9.99969 6.90033Z" fill="black"/>
<path fill-rule="evenodd" clip-rule="evenodd" d="M8.73993 4.1474C9.2957 3.15068 10.7036 3.15079 11.2595 4.1474L16.4089 13.3876C16.9411 14.3426 16.2965 15.5995 15.1491 15.5996H4.85028C3.70313 15.5993 3.05847 14.3425 3.59051 13.3876L8.73993 4.1474ZM10.2116 4.73236C10.1134 4.55643 9.88589 4.55632 9.78778 4.73236L4.63934 13.9716C4.58457 14.07 4.58999 14.1788 4.63934 14.2675C4.6882 14.3552 4.7644 14.4002 4.85028 14.4003H15.1491C15.2351 14.4003 15.3111 14.3552 15.36 14.2675C15.4095 14.1787 15.4149 14.0701 15.36 13.9716L10.2116 4.73236Z" fill="black"/>
</g>
</g>
</svg>
