<svg width="20" height="20" viewBox="0 0 20 20" fill="none" xmlns="http://www.w3.org/2000/svg">
<g id="type=normal, icon=mail">
<g id="component_1">
<path d="M14.2949 7.30762C14.5351 7.11571 14.8859 7.15458 15.0781 7.39453C15.2703 7.6348 15.2315 7.9865 14.9912 8.17871L10.3486 11.8926L10.2686 11.9463C10.0742 12.053 9.83035 12.0348 9.65234 11.8926L5.00977 8.17871C4.7695 7.9865 4.72966 7.6348 4.92188 7.39453C5.11409 7.15429 5.4658 7.11541 5.70605 7.30762L10 10.7432L14.2949 7.30762Z" fill="black"/>
<path fill-rule="evenodd" clip-rule="evenodd" d="M14 4.40039C15.9881 4.40059 17.5996 6.0119 17.5996 8V12C17.5996 13.9881 15.9881 15.5994 14 15.5996H6C4.01178 15.5996 2.40039 13.9882 2.40039 12V8C2.40039 6.01178 4.01177 4.40039 6 4.40039H14ZM6 5.59961C4.67452 5.59961 3.59961 6.67452 3.59961 8V12C3.59961 13.3255 4.67452 14.4004 6 14.4004H14C15.3253 14.4002 16.4004 13.3254 16.4004 12V8C16.4004 6.67464 15.3253 5.59981 14 5.59961H6Z" fill="black"/>
</g>
</g>
</svg>
