<svg width="20" height="20" viewBox="0 0 20 20" fill="none" xmlns="http://www.w3.org/2000/svg">
<g id="type=normal, icon=image_down">
<path id="component_2" fill-rule="evenodd" clip-rule="evenodd" d="M16.975 16.9749C15.6082 18.3415 13.3921 18.3416 12.0253 16.9749C10.6585 15.6081 10.6586 13.392 12.0253 12.0251C13.3921 10.6583 15.6082 10.6583 16.975 12.0251C18.3419 13.392 18.3419 15.608 16.975 16.9749ZM16.0283 15.1788C16.1684 15.0383 16.1684 14.8097 16.0283 14.6692C15.8878 14.5289 15.6593 14.5291 15.5187 14.6692L14.8606 15.3273V12.8027C14.8601 12.6044 14.6984 12.4425 14.5002 12.4422C14.3021 12.4426 14.141 12.6039 14.1404 12.802V15.3279L13.4823 14.6699C13.3419 14.5296 13.114 14.5292 12.9734 14.6692C12.833 14.8097 12.833 15.0382 12.9734 15.1788L14.246 16.4514C14.2628 16.4682 14.2815 16.4839 14.3013 16.497C14.3816 16.5503 14.4792 16.5674 14.5706 16.5495C14.5748 16.5486 14.5796 16.5471 14.5837 16.5461C14.6464 16.5312 14.7068 16.5002 14.7557 16.4514L16.0283 15.1788Z" fill="black"/>
<g id="component_1">
<path d="M12.2002 4.4004C13.0303 4.4004 13.6894 4.39906 14.2197 4.44239C14.7569 4.4863 15.2153 4.57829 15.6348 4.792C16.312 5.13712 16.8629 5.68799 17.208 6.36524C17.4217 6.78467 17.5137 7.24311 17.5576 7.78028C17.601 8.31059 17.5996 8.96973 17.5996 9.79981V10.2002C17.5996 10.58 17.5986 10.9241 17.5947 11.2363C17.2328 10.8928 16.8295 10.6191 16.3994 10.4189C16.3995 10.3479 16.4004 10.275 16.4004 10.2002V9.79981C16.4004 8.95022 16.3997 8.34896 16.3613 7.87891C16.3235 7.41577 16.2519 7.13235 16.1387 6.91016C15.9086 6.45866 15.5413 6.09141 15.0898 5.86133C14.8677 5.74813 14.5842 5.67652 14.1211 5.63868C13.651 5.6003 13.0498 5.59961 12.2002 5.59961H7.79981C6.95021 5.59961 6.34896 5.6003 5.87891 5.63868C5.41577 5.67652 5.13235 5.74812 4.91016 5.86133C4.45866 6.09141 4.09141 6.45866 3.86133 6.91016C3.74813 7.13234 3.67652 7.41577 3.63868 7.87891C3.6003 8.34896 3.59961 8.95022 3.59961 9.79981V10.2002C3.59961 11.0498 3.6003 11.651 3.63868 12.1211C3.67652 12.5842 3.74813 12.8677 3.86133 13.0898C3.95044 13.2647 4.06033 13.4267 4.1875 13.5732L7.23145 9.92188C7.63124 9.44213 8.36876 9.44213 8.76856 9.92188L10.6465 12.1758C10.0187 13.2149 9.84978 14.4527 10.1377 15.5996H7.79981C6.96973 15.5996 6.31059 15.601 5.78028 15.5576C5.24311 15.5137 4.78467 15.4217 4.36524 15.208C3.68799 14.8629 3.13712 14.312 2.792 13.6348C2.57829 13.2153 2.48631 12.7569 2.44239 12.2197C2.39906 11.6894 2.4004 11.0303 2.4004 10.2002V9.79981C2.4004 8.96973 2.39906 8.31059 2.44239 7.78028C2.48631 7.24311 2.57829 6.78467 2.792 6.36524C3.13712 5.68799 3.68799 5.13712 4.36524 4.792C4.78467 4.57829 5.24311 4.48631 5.78028 4.44239C6.31059 4.39906 6.96973 4.4004 7.79981 4.4004H12.2002Z" fill="black"/>
<path d="M13.5 7C14.3284 7 15 7.67158 15 8.5C15 9.32843 14.3284 10 13.5 10C12.6716 10 12 9.32842 12 8.5C12 7.67159 12.6716 7.00001 13.5 7Z" fill="black"/>
</g>
</g>
</svg>
