<svg width="20" height="20" viewBox="0 0 20 20" fill="none" xmlns="http://www.w3.org/2000/svg">
<g id="type=normal, icon=circle_chart">
<g id="component_1">
<path fill-rule="evenodd" clip-rule="evenodd" d="M10 3.40039C10.3314 3.40039 10.5996 3.66863 10.5996 4V9.65332L15.4961 12.4805C15.6339 12.56 15.7342 12.691 15.7754 12.8447C15.8166 12.9984 15.7953 13.162 15.7158 13.2998C15.1365 14.3031 14.3031 15.1365 13.2998 15.7158C12.2965 16.295 11.1585 16.5996 10 16.5996C8.84152 16.5996 7.70348 16.295 6.7002 15.7158C5.69687 15.1365 4.86345 14.3031 4.28418 13.2998C3.70497 12.2965 3.40039 11.1585 3.40039 10C3.40039 8.84152 3.70497 7.70348 4.28418 6.7002C4.86345 5.69687 5.69687 4.86345 6.7002 4.28418C7.70348 3.70497 8.84152 3.40039 10 3.40039ZM9.40039 4.63574C8.66239 4.71823 7.94663 4.9498 7.2998 5.32324C6.47894 5.79718 5.79718 6.47894 5.32324 7.2998C4.84929 8.12071 4.59961 9.0521 4.59961 10C4.59961 10.9479 4.84929 11.8793 5.32324 12.7002C5.79718 13.5211 6.47894 14.2028 7.2998 14.6768C8.12071 15.1507 9.0521 15.4004 10 15.4004C10.9479 15.4004 11.8793 15.1507 12.7002 14.6768C13.3469 14.3034 13.9043 13.7989 14.3447 13.2012L9.7002 10.5195C9.51455 10.4124 9.40039 10.2144 9.40039 10V4.63574Z" fill="black"/>
<path d="M11.9551 4.29395C12.0933 3.99287 12.4489 3.86089 12.75 3.99902C15.0207 5.0412 16.5996 7.33548 16.5996 10C16.5996 10.1847 16.5921 10.3678 16.5771 10.5488C16.5499 10.8791 16.2599 11.1249 15.9297 11.0977C15.5997 11.0702 15.3546 10.7803 15.3818 10.4502C15.3941 10.3019 15.4004 10.1517 15.4004 10C15.4004 7.82164 14.1102 5.94269 12.25 5.08887C11.9489 4.95065 11.8169 4.59509 11.9551 4.29395Z" fill="black"/>
</g>
</g>
</svg>
