<svg width="20" height="20" viewBox="0 0 20 20" fill="none" xmlns="http://www.w3.org/2000/svg">
<g id="type=normal, icon=square_plus_ai_fill">
<g id="component_2">
<path d="M14.3624 13.2801C14.4649 13.6902 14.785 14.0104 15.1951 14.1129L15.9113 14.2919C15.9884 14.3112 15.9884 14.4207 15.9113 14.44L15.1953 14.6188C14.7851 14.7213 14.4649 15.0415 14.3624 15.4517L14.1836 16.1677C14.1643 16.2448 14.0548 16.2448 14.0355 16.1677L13.8565 15.4515C13.754 15.0414 13.4338 14.7213 13.0237 14.6188L12.3078 14.44C12.2307 14.4207 12.2307 14.3112 12.3078 14.2919L13.0239 14.1129C13.4339 14.0104 13.754 13.6903 13.8565 13.2803L14.0356 12.5642C14.0548 12.4871 14.1643 12.4871 14.1836 12.5642L14.3624 13.2801Z" fill="black"/>
<path d="M15.8964 15.2198C15.9939 15.6099 16.2986 15.9145 16.6886 16.012C16.7619 16.0303 16.7619 16.1345 16.6887 16.1528C16.2985 16.2503 15.9939 16.5549 15.8964 16.945C15.8781 17.0183 15.7739 17.0183 15.7556 16.945C15.6581 16.555 15.3535 16.2503 14.9634 16.1528C14.8901 16.1345 14.8901 16.0303 14.9634 16.012C15.3535 15.9145 15.6581 15.6099 15.7556 15.2198C15.7739 15.1465 15.8781 15.1465 15.8964 15.2198Z" fill="black"/>
<path d="M15.2891 12.0275C15.3378 12.2225 15.4901 12.3748 15.6852 12.4236C15.7218 12.4327 15.7218 12.4848 15.6852 12.494C15.4901 12.5427 15.3378 12.695 15.2891 12.8901C15.2799 12.9267 15.2278 12.9267 15.2187 12.8901C15.1699 12.6951 15.0176 12.5427 14.8226 12.494C14.7859 12.4848 14.7859 12.4327 14.8226 12.4236C15.0176 12.3748 15.1699 12.2225 15.2187 12.0275C15.2278 11.9908 15.2799 11.9908 15.2891 12.0275Z" fill="black"/>
</g>
<path id="component_1" fill-rule="evenodd" clip-rule="evenodd" d="M11.2002 3.4004C12.0303 3.4004 12.6894 3.39906 13.2197 3.44239C13.7569 3.4863 14.2153 3.57829 14.6348 3.792C15.312 4.13712 15.8629 4.68799 16.208 5.36524C16.4217 5.78467 16.5137 6.2431 16.5576 6.78028C16.601 7.31059 16.5996 7.96973 16.5996 8.79981V11.2002C16.5996 11.3732 16.597 11.5387 16.5967 11.6973C16.0123 11.2594 15.2864 11 14.5 11C12.567 11 11 12.567 11 14.5C11 15.2864 11.2594 16.0123 11.6973 16.5967C11.5388 16.597 11.3732 16.5996 11.2002 16.5996H8.79981C7.96973 16.5996 7.31059 16.601 6.78028 16.5576C6.24311 16.5137 5.78467 16.4217 5.36524 16.208C4.68799 15.8629 4.13712 15.312 3.792 14.6348C3.57829 14.2153 3.48631 13.7569 3.44239 13.2197C3.39906 12.6894 3.4004 12.0303 3.4004 11.2002V8.79981C3.4004 7.96973 3.39906 7.31059 3.44239 6.78028C3.4863 6.24311 3.57829 5.78467 3.792 5.36524C4.13712 4.68799 4.68799 4.13712 5.36524 3.792C5.78467 3.57829 6.24311 3.48631 6.78028 3.44239C7.31059 3.39906 7.96973 3.4004 8.79981 3.4004H11.2002ZM9.99805 6.9004C9.66669 6.9004 9.39844 7.16864 9.39844 7.5V9.39747H7.5C7.16878 9.39747 6.90062 9.6659 6.9004 9.99707C6.9004 10.3284 7.16864 10.5967 7.5 10.5967H9.39844V12.5C9.39845 12.8314 9.66669 13.0996 9.99805 13.0996C10.3292 13.0994 10.5977 12.8312 10.5977 12.5V10.5967H12.5C12.8314 10.5967 13.0996 10.3284 13.0996 9.99707C13.0994 9.6659 12.8312 9.39747 12.5 9.39747H10.5977V7.5C10.5977 7.1688 10.3292 6.90066 9.99805 6.9004Z" fill="black"/>
</g>
</svg>
