<svg width="20" height="20" viewBox="0 0 20 20" fill="none" xmlns="http://www.w3.org/2000/svg">
<g id="type=normal, icon=document">
<path id="component_1" fill-rule="evenodd" clip-rule="evenodd" d="M9.43848 2.9001C9.62239 2.9001 9.7978 2.89687 9.9707 2.93233C10.1119 2.9613 10.2486 3.00936 10.377 3.07491C10.5342 3.15523 10.6698 3.26662 10.8135 3.38155L14.7744 6.55049C14.9689 6.70605 15.1578 6.85115 15.2959 7.0417C15.3303 7.0892 15.3607 7.13932 15.3896 7.19014C15.4371 7.24973 15.473 7.31896 15.4893 7.39619C15.5097 7.44828 15.5281 7.50126 15.543 7.55537C15.6054 7.78211 15.5996 8.01946 15.5996 8.26827V13.2995C15.5996 13.8495 15.6 14.2983 15.5703 14.6618C15.54 15.0324 15.4757 15.3678 15.3164 15.6804C15.0672 16.1693 14.6696 16.5669 14.1807 16.8161C13.8681 16.9754 13.5327 17.0397 13.1621 17.07C12.7986 17.0997 12.3498 17.0993 11.7998 17.0993H8.2002C7.6502 17.0993 7.20144 17.0997 6.83789 17.07C6.46728 17.0397 6.13193 16.9754 5.81934 16.8161C5.33038 16.5669 4.93282 16.1693 4.68359 15.6804C4.52434 15.3678 4.45997 15.0324 4.42969 14.6618C4.40001 14.2983 4.40039 13.8495 4.40039 13.2995V6.69991C4.40039 6.14994 4.40001 5.70113 4.42969 5.3376C4.45997 4.96702 4.52433 4.63162 4.68359 4.31905C4.93282 3.8301 5.33038 3.43252 5.81934 3.1833C6.13192 3.02404 6.46729 2.95968 6.83789 2.9294C7.20144 2.89972 7.6502 2.9001 8.2002 2.9001H9.43848ZM8.2002 4.09932C7.63044 4.09932 7.23891 4.09995 6.93555 4.12471C6.63917 4.14892 6.47949 4.19393 6.36426 4.25264C6.10106 4.38682 5.88712 4.60078 5.75293 4.86397C5.69422 4.97919 5.64922 5.13891 5.625 5.43526C5.60024 5.73861 5.59961 6.13018 5.59961 6.69991V13.2995C5.59961 13.8692 5.60024 14.2608 5.625 14.5642C5.64921 14.8605 5.69423 15.0202 5.75293 15.1355C5.88711 15.3987 6.10105 15.6126 6.36426 15.7468C6.47949 15.8055 6.63915 15.8505 6.93555 15.8747C7.23891 15.8995 7.63043 15.9001 8.2002 15.9001H11.7998C12.3696 15.9001 12.7611 15.8995 13.0645 15.8747C13.3608 15.8505 13.5205 15.8055 13.6357 15.7468C13.8989 15.6126 14.1129 15.3987 14.2471 15.1355C14.3058 15.0202 14.3508 14.8605 14.375 14.5642C14.3998 14.2608 14.4004 13.8692 14.4004 13.2995V8.26827C14.4004 8.13968 14.3982 8.05603 14.3965 7.99971H11C10.1716 7.99971 9.5 7.32814 9.5 6.49971V4.09932H8.2002ZM10.5 6.49971C10.5 6.77585 10.7239 6.99971 11 6.99971H13.4141L10.5 4.66768V6.49971Z" fill="black"/>
</g>
</svg>
