<svg width="20" height="20" viewBox="0 0 20 20" fill="none" xmlns="http://www.w3.org/2000/svg">
<g id="type=normal, icon=circle_check_line">
<g id="component_1">
<path d="M11.9971 7.17285C12.1777 6.89516 12.5494 6.81652 12.8271 6.99707C13.1048 7.1777 13.1835 7.54937 13.0029 7.82715L9.75293 12.8271L9.71191 12.8838C9.60816 13.0087 9.45691 13.0869 9.29297 13.0986C9.10564 13.112 8.92261 13.0367 8.79883 12.8955L7.04883 10.8955C6.83074 10.6463 6.8555 10.2671 7.10449 10.0488C7.35374 9.83074 7.73291 9.8555 7.95117 10.1045L9.17969 11.5088L11.9971 7.17285Z" fill="black"/>
<path fill-rule="evenodd" clip-rule="evenodd" d="M10 3.40039C13.6451 3.40039 16.5996 6.35492 16.5996 10C16.5996 13.6451 13.6451 16.5996 10 16.5996C6.35492 16.5996 3.40039 13.6451 3.40039 10C3.40039 6.35492 6.35492 3.40039 10 3.40039ZM10 4.59961C7.01766 4.59961 4.59961 7.01766 4.59961 10C4.59961 12.9823 7.01766 15.4004 10 15.4004C12.9823 15.4004 15.4004 12.9823 15.4004 10C15.4004 7.01766 12.9823 4.59961 10 4.59961Z" fill="black"/>
</g>
</g>
</svg>
