<svg width="20" height="20" viewBox="0 0 20 20" fill="none" xmlns="http://www.w3.org/2000/svg">
<g id="type=normal, icon=circle_globe">
<path id="component_1" d="M10.0005 3.40009C13.6453 3.40033 16.5999 6.35491 16.6001 9.99969C16.6001 13.6446 13.6454 16.5991 10.0005 16.5993C6.35541 16.5993 3.40088 13.6448 3.40088 9.99969C3.40104 6.35476 6.35551 3.40009 10.0005 3.40009ZM10.0024 11.9811C9.52935 11.9811 9.06978 12.0131 8.63037 12.069C8.72818 12.84 8.87665 13.5256 9.06299 14.0847C9.23413 14.5979 9.42692 14.9775 9.6167 15.2184C9.67914 15.2977 9.73717 15.3529 9.78662 15.3942C9.85744 15.397 9.92899 15.4001 10.0005 15.4001C10.0731 15.4001 10.1453 15.3971 10.2173 15.3942C10.2669 15.3528 10.3255 15.298 10.3882 15.2184C10.578 14.9775 10.7708 14.5979 10.9419 14.0847C11.1282 13.5256 11.2757 12.8399 11.3735 12.069C10.9344 12.0132 10.4752 11.9811 10.0024 11.9811ZM7.64404 12.239C6.78772 12.4259 6.04586 12.692 5.48291 12.9597C6.16739 14.0021 7.20288 14.7927 8.42139 15.1647C8.30791 14.9308 8.20505 14.6739 8.11377 14.4001C7.90818 13.7832 7.74909 13.0489 7.64404 12.239ZM12.3599 12.239C12.2548 13.0488 12.0967 13.7832 11.8911 14.4001C11.7999 14.6736 11.6968 14.9301 11.5835 15.1638C12.8005 14.791 13.8335 13.9995 14.5171 12.9577C13.9545 12.6908 13.2142 12.4254 12.3599 12.239ZM5.02686 7.89032C4.75159 8.53832 4.60014 9.25133 4.6001 9.99969C4.6001 10.7356 4.74659 11.4375 5.01318 12.0768C5.6737 11.7584 6.54296 11.4468 7.54346 11.238C7.51621 10.8368 7.50244 10.4224 7.50244 9.99969C7.50245 9.56277 7.51829 9.13517 7.54736 8.72137C6.55218 8.51395 5.68656 8.20635 5.02686 7.89032ZM14.9731 7.89227C14.3138 8.20756 13.4497 8.51445 12.4565 8.72137C12.4856 9.13519 12.5024 9.56274 12.5024 9.99969C12.5024 10.4224 12.4877 10.8367 12.4604 11.238C13.4589 11.4463 14.3267 11.7572 14.9868 12.0749C15.253 11.436 15.4009 10.7349 15.4009 9.99969C15.4008 9.25195 15.248 8.53984 14.9731 7.89227ZM11.4653 8.88739C10.9957 8.94578 10.5061 8.98016 10.0024 8.98016C9.49848 8.98016 9.00846 8.94585 8.53857 8.88739C8.51543 9.24635 8.50245 9.61818 8.50244 9.99969C8.50244 10.3673 8.51509 10.7262 8.53662 11.0729C9.00708 11.0143 9.49782 10.9811 10.0024 10.9811C10.5067 10.9811 10.9971 11.0144 11.4673 11.0729C11.4888 10.7261 11.5024 10.3673 11.5024 9.99969C11.5024 9.61815 11.4885 9.24637 11.4653 8.88739ZM9.78662 4.60516C9.73715 4.64652 9.67914 4.70174 9.6167 4.78094C9.42691 5.02182 9.23415 5.40146 9.06299 5.91473C8.8798 6.46429 8.73317 7.13636 8.63525 7.8913C9.07323 7.94682 9.53105 7.98016 10.0024 7.98016C10.4735 7.98016 10.931 7.94675 11.3687 7.8913C11.2707 7.13641 11.1251 6.46426 10.9419 5.91473C10.7707 5.40146 10.578 5.02182 10.3882 4.78094C10.3257 4.70174 10.2677 4.64652 10.2183 4.60516C10.146 4.60229 10.0734 4.59931 10.0005 4.5993C9.929 4.5993 9.85743 4.60241 9.78662 4.60516ZM8.42041 4.83466C7.21386 5.20323 6.18688 5.98287 5.50244 7.01044C6.06406 7.27501 6.80047 7.53648 7.64893 7.72137C7.75407 6.92702 7.9115 6.20621 8.11377 5.5993C8.205 5.32564 8.30701 5.06847 8.42041 4.83466ZM11.5835 4.83563C11.6968 5.06934 11.7999 5.3258 11.8911 5.5993C12.0934 6.20618 12.2498 6.92707 12.355 7.72137C13.2016 7.53695 13.9363 7.27534 14.4976 7.01141C13.8138 5.9846 12.7887 5.20476 11.5835 4.83563Z" fill="black"/>
</g>
</svg>
