<svg width="20" height="20" viewBox="0 0 20 20" fill="none" xmlns="http://www.w3.org/2000/svg">
<g id="type=normal, icon=rectangle_inset">
<path id="component_2" d="M13.5 6.5C13.5 6.22386 13.2761 6 13 6H7C6.72386 6 6.5 6.22386 6.5 6.5V10.5C6.5 10.7761 6.72386 11 7 11H13C13.2761 11 13.5 10.7761 13.5 10.5V6.5ZM14.5 10.5C14.5 11.3284 13.8284 12 13 12H7C6.17157 12 5.5 11.3284 5.5 10.5V6.5C5.5 5.67157 6.17157 5 7 5H13C13.8284 5 14.5 5.67157 14.5 6.5V10.5Z" fill="black"/>
<path id="component_1" d="M15.4004 6.5C15.4004 5.17452 14.3255 4.09961 13 4.09961H7C5.67452 4.09961 4.59961 5.17452 4.59961 6.5V13.5C4.59961 14.8255 5.67452 15.9004 7 15.9004H13C14.3255 15.9004 15.4004 14.8255 15.4004 13.5V6.5ZM16.5996 13.5C16.5996 15.4882 14.9882 17.0996 13 17.0996H7C5.01177 17.0996 3.40039 15.4882 3.40039 13.5V6.5C3.40039 4.51177 5.01178 2.90039 7 2.90039H13C14.9882 2.90039 16.5996 4.51178 16.5996 6.5V13.5Z" fill="black"/>
</g>
</svg>
