<svg width="20" height="20" viewBox="0 0 20 20" fill="none" xmlns="http://www.w3.org/2000/svg">
<g id="type=normal, icon=trigger_downright">
<path id="component_1" d="M9.47971 3.98731C9.70488 3.5876 10.2956 3.58753 10.5207 3.98731L10.5627 4.07911L11.3791 6.28028L13.592 4.88477L13.6848 4.83594C14.1526 4.63823 14.6672 5.1032 14.4719 5.60841L13.676 7.66114L16.2971 7.64747C16.9037 7.64438 17.1313 8.44102 16.6145 8.7588L15.4778 9.45606C15.0865 9.26438 14.6629 9.12898 14.218 9.05762L14.8733 8.65528L13.0949 8.66505C12.672 8.66735 12.3788 8.2431 12.5315 7.84864L13.1018 6.37598L11.4963 7.38966C11.174 7.59308 10.7461 7.44816 10.6135 7.09083L10.0002 5.43751L9.38694 7.09083C9.2544 7.44814 8.82646 7.59293 8.50413 7.38966L6.89768 6.37598L7.46897 7.84864C7.62154 8.24301 7.32834 8.66718 6.9055 8.66505L5.1262 8.65528L6.48362 9.48926C6.864 9.72357 6.864 10.2764 6.48362 10.5107L5.1262 11.3438L6.9055 11.335L6.98362 11.3389C7.36356 11.3852 7.61199 11.7817 7.46897 12.1514L6.89768 13.6231L8.50413 12.6104L8.56565 12.5762C8.73867 12.4931 8.93258 12.5026 9.093 12.583C9.03172 12.879 9.00023 13.1858 9.00022 13.5C9.00024 14.564 9.37016 15.5412 9.98753 16.3115C9.75892 16.3069 9.53277 16.1771 9.43772 15.9209L8.62034 13.7188L6.40842 15.1152C5.91957 15.4238 5.32009 14.9307 5.52854 14.3916L6.32346 12.3379L3.70335 12.3525C3.09644 12.3559 2.86887 11.559 3.38596 11.2412L5.4055 10L3.38596 8.7588C2.86887 8.44106 3.09644 7.64416 3.70335 7.64747L6.32346 7.66114L5.52854 5.60841C5.33312 5.10308 5.84777 4.63799 6.31565 4.83594L6.40842 4.88477L8.62034 6.28028L9.43772 4.07911L9.47971 3.98731Z" fill="black"/>
<path id="component_2" fill-rule="evenodd" clip-rule="evenodd" d="M13.5002 10C15.4331 10.0001 17.0002 11.5671 17.0002 13.5C17.0002 15.4329 15.4331 16.9999 13.5002 17C11.5672 17 10.0002 15.433 10.0002 13.5C10.0002 11.567 11.5672 10 13.5002 10ZM12.5549 12.0449C12.4145 11.9051 12.1856 11.9051 12.0452 12.0449C11.9053 12.1853 11.9055 12.4132 12.0452 12.5537L13.8313 14.3398H12.9006C12.7022 14.34 12.5407 14.5008 12.5403 14.6992C12.5403 14.898 12.7019 15.0594 12.9006 15.0596H14.7004C14.724 15.0595 14.7485 15.0574 14.7717 15.0527C14.8661 15.0336 14.9473 14.9767 14.9993 14.8994C15.0016 14.8958 15.0039 14.8913 15.0061 14.8877C15.0399 14.8328 15.0608 14.7683 15.0608 14.6992V12.8994C15.0605 12.7011 14.8988 12.5394 14.7004 12.5391C14.5019 12.5392 14.3404 12.7009 14.3401 12.8994V13.8301L12.5549 12.0449Z" fill="black"/>
</g>
</svg>
