<svg width="20" height="20" viewBox="0 0 20 20" fill="none" xmlns="http://www.w3.org/2000/svg">
<g id="type=normal, icon=octagon_x_line">
<g id="component_1">
<path d="M12.0811 7.07031C12.3125 6.83366 12.6876 6.83355 12.9189 7.07031C13.1502 7.30731 13.15 7.69156 12.9189 7.92871L10.8369 10.0605L12.7988 12.0703C13.0302 12.3074 13.0301 12.6916 12.7988 12.9287C12.5674 13.1657 12.1924 13.1658 11.9609 12.9287L9.99902 10.9189L8.03809 12.9287C7.80662 13.1657 7.43162 13.1658 7.2002 12.9287C6.96922 12.6916 6.969 12.3073 7.2002 12.0703L9.16113 10.0605L7.08105 7.92871C6.8501 7.69157 6.84986 7.3073 7.08105 7.07031C7.31231 6.83377 7.68657 6.83401 7.91797 7.07031L9.99902 9.20215L12.0811 7.07031Z" fill="black"/>
<path fill-rule="evenodd" clip-rule="evenodd" d="M12.0859 3.40039C12.51 3.40043 12.9168 3.5684 13.2168 3.86816L16.1318 6.7832C16.4316 7.08319 16.5996 7.48997 16.5996 7.91406V12.0859C16.5996 12.51 16.4316 12.9168 16.1318 13.2168L13.2168 16.1318C12.9168 16.4316 12.51 16.5996 12.0859 16.5996H7.91406C7.48996 16.5996 7.08319 16.4316 6.7832 16.1318L3.86816 13.2168C3.5684 12.9168 3.40043 12.51 3.40039 12.0859V7.91406C3.40043 7.48996 3.5684 7.08319 3.86816 6.7832L6.7832 3.86816C7.08319 3.5684 7.48996 3.40043 7.91406 3.40039H12.0859ZM7.91406 4.59961C7.80822 4.59965 7.70678 4.64208 7.63184 4.7168L4.7168 7.63184C4.64208 7.70677 4.59965 7.80822 4.59961 7.91406V12.0859C4.59965 12.1918 4.64208 12.2932 4.7168 12.3682L7.63184 15.2832C7.70677 15.3579 7.80822 15.4004 7.91406 15.4004H12.0859C12.1918 15.4004 12.2932 15.3579 12.3682 15.2832L15.2832 12.3682C15.3579 12.2932 15.4004 12.1918 15.4004 12.0859V7.91406C15.4004 7.80822 15.3579 7.70678 15.2832 7.63184L12.3682 4.7168C12.2932 4.64208 12.1918 4.59965 12.0859 4.59961H7.91406Z" fill="black"/>
</g>
</g>
</svg>
