<svg width="20" height="20" viewBox="0 0 20 20" fill="none" xmlns="http://www.w3.org/2000/svg">
<g id="type=normal, icon=arrow_maximize_4">
<g id="component_1">
<path d="M8.07617 11.0762C8.31049 10.8419 8.68951 10.8419 8.92383 11.0762C9.15814 11.3105 9.15814 11.6895 8.92383 11.9238L6.44727 14.4004H8C8.33137 14.4004 8.59961 14.6686 8.59961 15C8.59961 15.3314 8.33137 15.5996 8 15.5996H5C4.84666 15.5996 4.69333 15.541 4.57617 15.4238C4.45901 15.3067 4.40039 15.1533 4.40039 15V12C4.40039 11.6686 4.66863 11.4004 5 11.4004C5.33137 11.4004 5.59961 11.6686 5.59961 12V13.5527L8.07617 11.0762Z" fill="black"/>
<path d="M11.0762 11.0762C11.3105 10.8419 11.6895 10.8419 11.9238 11.0762L14.4004 13.5527V12C14.4004 11.6686 14.6686 11.4004 15 11.4004C15.3314 11.4004 15.5996 11.6686 15.5996 12V15C15.5996 15.1533 15.541 15.3067 15.4238 15.4238C15.3067 15.541 15.1533 15.5996 15 15.5996H12C11.6686 15.5996 11.4004 15.3314 11.4004 15C11.4004 14.6686 11.6686 14.4004 12 14.4004H13.5527L11.0762 11.9238C10.8419 11.6895 10.8419 11.3105 11.0762 11.0762Z" fill="black"/>
<path d="M8 4.40039C8.33137 4.40039 8.59961 4.66863 8.59961 5C8.59961 5.33137 8.33137 5.59961 8 5.59961H6.44727L8.92383 8.07617C9.15814 8.31049 9.15814 8.68951 8.92383 8.92383C8.68951 9.15814 8.31049 9.15814 8.07617 8.92383L5.59961 6.44727V8C5.59961 8.33137 5.33137 8.59961 5 8.59961C4.66863 8.59961 4.40039 8.33137 4.40039 8V5C4.40039 4.84666 4.45901 4.69333 4.57617 4.57617C4.69333 4.45901 4.84666 4.40039 5 4.40039H8Z" fill="black"/>
<path d="M15 4.40039C15.1533 4.40039 15.3067 4.45901 15.4238 4.57617C15.541 4.69333 15.5996 4.84666 15.5996 5V8C15.5996 8.33137 15.3314 8.59961 15 8.59961C14.6686 8.59961 14.4004 8.33137 14.4004 8V6.44727L11.9238 8.92383C11.6895 9.15814 11.3105 9.15814 11.0762 8.92383C10.8419 8.68951 10.8419 8.31049 11.0762 8.07617L13.5527 5.59961H12C11.6686 5.59961 11.4004 5.33137 11.4004 5C11.4004 4.66863 11.6686 4.40039 12 4.40039H15Z" fill="black"/>
</g>
</g>
</svg>
