<svg width="20" height="20" viewBox="0 0 20 20" fill="none" xmlns="http://www.w3.org/2000/svg">
<g id="type=normal, icon=circle_people_line">
<g id="component_2">
<path d="M8.71971 10.3332C9.71999 10.3332 10.617 10.7745 11.2279 11.4722C11.3256 11.5839 11.3256 11.7493 11.2279 11.8609C10.617 12.5587 9.72002 13 8.71971 13C7.71951 12.9999 6.82234 12.5587 6.21151 11.8609C6.11408 11.7494 6.11405 11.5838 6.21151 11.4722C6.82234 10.7745 7.71951 10.3333 8.71971 10.3332Z" fill="black"/>
<path d="M12.1957 10.2665C12.9959 10.2665 13.7138 10.6197 14.2025 11.1779C14.2805 11.2672 14.2806 11.3997 14.2025 11.4889C13.7138 12.0471 12.9959 12.4003 12.1957 12.4003C12.0626 12.4003 11.9316 12.389 11.8038 12.3702L11.807 12.3678C12.1584 11.9661 12.1585 11.367 11.807 10.9654C11.6387 10.7731 11.4515 10.5976 11.2501 10.4395C11.5439 10.3279 11.8627 10.2666 12.1957 10.2665Z" fill="black"/>
<path d="M12.1964 7.59968C12.7855 7.59968 13.2633 8.07751 13.2633 8.66658C13.2633 9.25568 12.7855 9.73347 12.1964 9.73347C11.6074 9.73344 11.1295 9.25566 11.1295 8.66658C11.1296 8.07753 11.6074 7.59971 12.1964 7.59968Z" fill="black"/>
<path d="M8.7205 7C9.45688 7 10.0539 7.59705 10.0539 8.33342C10.0539 9.06975 9.45685 9.66684 8.7205 9.66684C7.98423 9.66676 7.38714 9.0697 7.38708 8.33342C7.38708 7.5971 7.9842 7.00008 8.7205 7Z" fill="black"/>
</g>
<path id="component_1" d="M15.4004 10C15.4004 7.01766 12.9823 4.59961 10 4.59961C7.01766 4.59961 4.59961 7.01766 4.59961 10C4.59961 12.9823 7.01766 15.4004 10 15.4004C12.9823 15.4004 15.4004 12.9823 15.4004 10ZM16.5996 10C16.5996 13.6451 13.6451 16.5996 10 16.5996C6.35492 16.5996 3.40039 13.6451 3.40039 10C3.40039 6.35492 6.35492 3.40039 10 3.40039C13.6451 3.40039 16.5996 6.35492 16.5996 10Z" fill="black"/>
</g>
</svg>
