<svg width="20" height="20" viewBox="0 0 20 20" fill="none" xmlns="http://www.w3.org/2000/svg">
<g id="type=normal, icon=rectangle_panel_right">
<g id="component_1">
<path d="M13 8.4004C12.7791 8.4004 12.5996 8.22092 12.5996 8.00001C12.5996 7.77909 12.7791 7.59961 13 7.59961L15 7.59961C15.2209 7.59962 15.4004 7.77909 15.4004 8.00001C15.4004 8.22091 15.2209 8.40039 15 8.4004L13 8.4004Z" fill="black"/>
<path d="M13 10.4004C12.7791 10.4004 12.5996 10.2209 12.5996 10C12.5996 9.77909 12.7791 9.59961 13 9.59961L15 9.59962C15.2209 9.59962 15.4004 9.77909 15.4004 10C15.4004 10.2209 15.2209 10.4004 15 10.4004L13 10.4004Z" fill="black"/>
<path d="M13 12.4004C12.7791 12.4004 12.5996 12.2209 12.5996 12C12.5996 11.7791 12.7791 11.5996 13 11.5996L15 11.5996C15.2209 11.5996 15.4004 11.7791 15.4004 12C15.4004 12.2209 15.2209 12.4004 15 12.4004L13 12.4004Z" fill="black"/>
<path fill-rule="evenodd" clip-rule="evenodd" d="M7.79981 15.5996C6.96973 15.5996 6.31059 15.601 5.78028 15.5576C5.24311 15.5137 4.78467 15.4217 4.36524 15.208C3.68798 14.8629 3.13712 14.312 2.792 13.6348C2.57828 13.2153 2.48631 12.7569 2.44239 12.2197C2.39906 11.6894 2.4004 11.0303 2.4004 10.2002L2.4004 9.79981C2.4004 8.96973 2.39906 8.31059 2.44239 7.78028C2.48631 7.2431 2.57828 6.78467 2.792 6.36524C3.13712 5.68798 3.68798 5.13712 4.36524 4.792C4.78468 4.57828 5.2431 4.48631 5.78028 4.44239C6.31059 4.39906 6.96973 4.4004 7.79981 4.4004L12.2002 4.4004C13.0303 4.4004 13.6894 4.39906 14.2197 4.44239C14.7569 4.48631 15.2153 4.57828 15.6348 4.792C16.312 5.13712 16.8629 5.68799 17.208 6.36524C17.4217 6.78468 17.5137 7.24311 17.5576 7.78028C17.601 8.31059 17.5996 8.96973 17.5996 9.79981V10.2002C17.5996 11.0303 17.601 11.6894 17.5576 12.2197C17.5137 12.7569 17.4217 13.2153 17.208 13.6348C16.8629 14.312 16.312 14.8629 15.6348 15.208C15.2153 15.4217 14.7569 15.5137 14.2197 15.5576C13.6894 15.601 13.0303 15.5996 12.2002 15.5996H7.79981ZM12.2002 14.4004C13.0498 14.4004 13.651 14.3997 14.1211 14.3613C14.5842 14.3235 14.8677 14.2519 15.0898 14.1387C15.5414 13.9086 15.9086 13.5414 16.1387 13.0898C16.2519 12.8677 16.3235 12.5842 16.3613 12.1211C16.3997 11.651 16.4004 11.0498 16.4004 10.2002V9.79981C16.4004 8.95021 16.3997 8.34896 16.3613 7.87891C16.3235 7.41576 16.2519 7.13235 16.1387 6.91016C15.9086 6.45866 15.5413 6.09141 15.0898 5.86133C14.8677 5.74812 14.5842 5.67652 14.1211 5.63868C13.651 5.6003 13.0498 5.59961 12.2002 5.59961H11.5L11.5 14.4004H12.2002ZM10.5 5.59961L7.79981 5.59961C6.95021 5.59961 6.34896 5.6003 5.87891 5.63868C5.41576 5.67652 5.13235 5.74812 4.91016 5.86133C4.45866 6.09141 4.09141 6.45866 3.86133 6.91016C3.74812 7.13235 3.67652 7.41576 3.63868 7.87891C3.6003 8.34896 3.59961 8.95021 3.59961 9.79981V10.2002C3.59961 11.0498 3.6003 11.651 3.63868 12.1211C3.67652 12.5842 3.74812 12.8677 3.86133 13.0898C4.09141 13.5413 4.45866 13.9086 4.91016 14.1387C5.13235 14.2519 5.41576 14.3235 5.87891 14.3613C6.34896 14.3997 6.95021 14.4004 7.79981 14.4004H10.5L10.5 5.59961Z" fill="black"/>
</g>
</g>
</svg>
