<svg width="20" height="20" viewBox="0 0 20 20" fill="none" xmlns="http://www.w3.org/2000/svg">
<g id="type=normal, icon=ai_plus">
<path id="component_2" fill-rule="evenodd" clip-rule="evenodd" d="M13.5002 10C15.4331 10.0002 17.0002 11.5671 17.0002 13.5C17.0002 15.4329 15.4331 16.9998 13.5002 17C11.5673 16.9999 10.0003 15.4329 10.0002 13.5C10.0003 11.5671 11.5673 10.0001 13.5002 10ZM13.5002 11.5C13.2242 11.5001 13.0002 11.7239 13.0002 12V13H12.0002C11.7241 13 11.5003 13.2239 11.5002 13.5C11.5003 13.7761 11.7241 14 12.0002 14H13.0002V15C13.0003 15.2761 13.2242 15.4999 13.5002 15.5C13.7762 15.4998 14.0002 15.276 14.0002 15V14H15.0002C15.2762 13.9998 15.5002 13.776 15.5002 13.5C15.5002 13.224 15.2762 13.0002 15.0002 13H14.0002V12C14.0002 11.724 13.7762 11.5002 13.5002 11.5Z" fill="black"/>
<g id="component_1">
<path d="M8.30555 4.77665C8.35606 4.57465 8.64375 4.57464 8.69422 4.77665L9.16297 6.6536C9.43165 7.72837 10.2708 8.56743 11.3456 8.83622L12.4745 9.11844C10.7292 9.52552 9.37399 10.9474 9.06629 12.7288L8.69422 14.2239C8.64356 14.4255 8.35621 14.4256 8.30555 14.2239L7.8368 12.346C7.56806 11.271 6.7282 10.432 5.6532 10.1634L3.77625 9.69364C3.57436 9.64309 3.57431 9.35646 3.77625 9.30594L5.65418 8.83622C6.72872 8.56736 7.56809 7.7282 7.8368 6.6536L8.30555 4.77665Z" fill="black"/>
<path d="M11.4081 3.36942C11.4321 3.27335 11.5687 3.27334 11.5927 3.36942C11.7205 3.88059 12.1195 4.27971 12.6307 4.40751C12.7267 4.43155 12.7267 4.56804 12.6307 4.59208C12.1193 4.71983 11.7204 5.11973 11.5927 5.63114C11.5684 5.7269 11.4321 5.72613 11.4081 5.63016C11.2802 5.11903 10.8802 4.7198 10.369 4.59208C10.2732 4.56793 10.2732 4.43162 10.369 4.40751C10.8803 4.27967 11.2802 3.88067 11.4081 3.36942Z" fill="black"/>
</g>
</g>
</svg>
