<svg width="20" height="20" viewBox="0 0 20 20" fill="none" xmlns="http://www.w3.org/2000/svg">
<g id="type=normal, icon=rectangle_table_column">
<g id="component_2">
<path d="M7.2998 12.1006V14.3975C6.70524 14.396 6.25097 14.3917 5.87891 14.3613C5.41576 14.3235 5.13234 14.2519 4.91016 14.1387C4.45866 13.9086 4.09141 13.5413 3.86133 13.0898C3.74812 12.8677 3.67651 12.5842 3.63867 12.1211C3.63812 12.1143 3.63823 12.1074 3.6377 12.1006H7.2998Z" fill="black"/>
<path d="M7.2998 8.7002V11.2998H3.60449C3.59957 10.9853 3.59961 10.6236 3.59961 10.2002V9.7998C3.59961 9.37643 3.59957 9.01472 3.60449 8.7002H7.2998Z" fill="black"/>
<path d="M7.2998 7.89941H3.6377C3.63823 7.89257 3.63812 7.8857 3.63867 7.87891C3.67651 7.41576 3.74812 7.13234 3.86133 6.91016C4.09141 6.45865 4.45865 6.09141 4.91016 5.86133C5.13234 5.74812 5.41576 5.67651 5.87891 5.63867C6.25097 5.6083 6.70524 5.60306 7.2998 5.60156V7.89941Z" fill="black"/>
</g>
<path id="component_1" fill-rule="evenodd" clip-rule="evenodd" d="M12.2002 4.4004C13.0303 4.4004 13.6894 4.39906 14.2197 4.44239C14.7569 4.48631 15.2153 4.57829 15.6348 4.792C16.312 5.13712 16.8629 5.68798 17.208 6.36524C17.4217 6.78467 17.5137 7.2431 17.5576 7.78028C17.601 8.31059 17.5996 8.96972 17.5996 9.79981V10.2002C17.5996 11.0303 17.601 11.6894 17.5576 12.2197C17.5137 12.7569 17.4217 13.2153 17.208 13.6348C16.8629 14.312 16.312 14.8629 15.6348 15.208C15.2153 15.4217 14.7569 15.5137 14.2197 15.5576C13.6894 15.601 13.0303 15.5996 12.2002 15.5996H7.79981C6.96973 15.5996 6.31059 15.601 5.78028 15.5576C5.24311 15.5137 4.78467 15.4217 4.36524 15.208C3.68799 14.8629 3.13712 14.312 2.792 13.6348C2.57828 13.2153 2.48631 12.7569 2.44239 12.2197C2.39906 11.6894 2.4004 11.0303 2.4004 10.2002V9.79981C2.4004 8.96972 2.39906 8.31059 2.44239 7.78028C2.48631 7.2431 2.57828 6.78467 2.792 6.36524C3.13712 5.68798 3.68799 5.13712 4.36524 4.792C4.78467 4.57828 5.24311 4.48631 5.78028 4.44239C6.31059 4.39906 6.96973 4.4004 7.79981 4.4004H12.2002ZM8.10059 14.4004H11.8994V12.1006H8.10059V14.4004ZM3.63868 12.1211C3.67652 12.5842 3.74812 12.8677 3.86133 13.0898C4.09141 13.5414 4.45866 13.9086 4.91016 14.1387C5.13235 14.2519 5.41576 14.3235 5.87891 14.3613C6.25098 14.3917 6.70525 14.396 7.29981 14.3975V12.1006H3.6377C3.63824 12.1074 3.63812 12.1143 3.63868 12.1211ZM12.7002 14.3975C13.2948 14.396 13.749 14.3917 14.1211 14.3613C14.5842 14.3235 14.8677 14.2519 15.0898 14.1387C15.5414 13.9086 15.9086 13.5414 16.1387 13.0898C16.2519 12.8677 16.3235 12.5842 16.3613 12.1211C16.3619 12.1143 16.3618 12.1074 16.3623 12.1006H12.7002V14.3975ZM8.10059 11.2998H11.8994V8.7002H8.10059V11.2998ZM12.7002 11.2998H16.3955C16.4004 10.9853 16.4004 10.6236 16.4004 10.2002V9.79981C16.4004 9.37643 16.4004 9.01473 16.3955 8.7002H12.7002V11.2998ZM3.59961 9.79981V10.2002C3.59961 10.6236 3.59958 10.9853 3.6045 11.2998H7.29981V8.7002H3.6045C3.59958 9.01473 3.59961 9.37643 3.59961 9.79981ZM8.10059 7.89942H11.8994V5.59961H8.10059V7.89942ZM12.7002 7.89942H16.3623C16.3618 7.89257 16.3619 7.8857 16.3613 7.87891C16.3235 7.41576 16.2519 7.13235 16.1387 6.91016C15.9086 6.45866 15.5414 6.09141 15.0898 5.86133C14.8677 5.74812 14.5842 5.67652 14.1211 5.63868C13.749 5.6083 13.2948 5.60307 12.7002 5.60157V7.89942ZM7.29981 5.60157C6.70525 5.60307 6.25098 5.6083 5.87891 5.63868C5.41576 5.67652 5.13235 5.74812 4.91016 5.86133C4.45866 6.09141 4.09141 6.45866 3.86133 6.91016C3.74812 7.13235 3.67652 7.41576 3.63868 7.87891C3.63812 7.8857 3.63824 7.89257 3.6377 7.89942H7.29981V5.60157Z" fill="black"/>
</g>
</svg>
