<svg width="20" height="20" viewBox="0 0 20 20" fill="none" xmlns="http://www.w3.org/2000/svg">
<g id="type=normal, icon=model_definition">
<path id="component_2" fill-rule="evenodd" clip-rule="evenodd" d="M5.69671 11.5C5.8015 11.5001 5.89309 11.5716 5.91853 11.6733L6.08175 12.3287C6.2739 12.38 6.45591 12.4549 6.62416 12.5522L7.2034 12.2056C7.29332 12.1517 7.40799 12.1658 7.48214 12.24L7.76004 12.5179C7.83419 12.592 7.84827 12.7067 7.79436 12.7966L7.44699 13.3758C7.54423 13.5439 7.61909 13.7255 7.67048 13.9174L8.32673 14.0815C8.42841 14.1069 8.4999 14.1985 8.5 14.3033V14.6967C8.49992 14.8015 8.42842 14.8931 8.32673 14.9185L7.67048 15.0818C7.61916 15.2737 7.54418 15.4552 7.44699 15.6233L7.79436 16.2034C7.84827 16.2933 7.83417 16.408 7.76004 16.4821L7.48214 16.76C7.408 16.8342 7.29333 16.8483 7.2034 16.7944L6.62333 16.447C6.45521 16.5442 6.27373 16.6192 6.08175 16.6705L5.91853 17.3267C5.8931 17.4284 5.80152 17.4999 5.69671 17.5H5.30329C5.19848 17.4999 5.1069 17.4284 5.08147 17.3267L4.91741 16.6705C4.72524 16.619 4.54324 16.5444 4.375 16.447L3.7966 16.7944C3.70666 16.8483 3.59201 16.8342 3.51786 16.76L3.23996 16.4821C3.16583 16.408 3.15171 16.2933 3.20564 16.2034L3.55218 15.6233C3.45504 15.4553 3.37997 15.2737 3.32868 15.0818L2.67327 14.9185C2.57158 14.8931 2.50008 14.8015 2.5 14.6967V14.3033C2.5001 14.1985 2.57159 14.1069 2.67327 14.0815L3.32868 13.9174C3.38003 13.7256 3.455 13.5439 3.55218 13.3758L3.20564 12.7966C3.15175 12.7067 3.16582 12.592 3.23996 12.5179L3.51786 12.24C3.59199 12.1658 3.70668 12.1518 3.7966 12.2056L4.37584 12.5522C4.54386 12.455 4.72555 12.38 4.91741 12.3287L5.08147 11.6733C5.10691 11.5716 5.1985 11.5001 5.30329 11.5H5.69671ZM5.5 13.6002C5.00296 13.6002 4.60019 14.003 4.60017 14.5C4.60017 14.9971 5.00294 15.3998 5.5 15.3998C5.99706 15.3998 6.39983 14.9971 6.39983 14.5C6.39981 14.003 5.99704 13.6002 5.5 13.6002Z" fill="black"/>
<path id="component_1" d="M9.62012 4.12689C9.86644 4.04478 10.1336 4.04478 10.3799 4.12689L11.9531 4.6513C12.2797 4.76026 12.5 5.06583 12.5 5.41009V7.58978C12.5 7.93403 12.2797 8.2396 11.9531 8.34857L11.7139 8.42767L13.5674 11.3105L14.1201 11.1269C14.3664 11.0448 14.6336 11.0448 14.8799 11.1269L16.4531 11.6513C16.7797 11.7603 17 12.0658 17 12.4101V14.5898C17 14.934 16.7797 15.2396 16.4531 15.3486L14.8799 15.874C14.6336 15.9561 14.3664 15.9561 14.1201 15.874L12.5469 15.3486C12.2203 15.2396 12 14.934 12 14.5898V13.9003H9.45508C9.41338 13.623 9.34266 13.3552 9.24707 13.0995H12V12.4101C12 12.0658 12.2203 11.7603 12.5469 11.6513L12.7842 11.5712L10.9316 8.68939L10.3799 8.87396C10.1336 8.95606 9.86644 8.95606 9.62012 8.87396L9.06738 8.68939L7.54199 11.0605C7.31205 10.9237 7.06724 10.8096 6.81055 10.7206L8.28516 8.42767L8.04688 8.34857C7.72035 8.2396 7.5 7.93403 7.5 7.58978V5.41009C7.5 5.06583 7.72033 4.76026 8.04688 4.6513L9.62012 4.12689Z" fill="black"/>
</g>
</svg>
