<svg width="20" height="20" viewBox="0 0 20 20" fill="none" xmlns="http://www.w3.org/2000/svg">
<g id="type=normal, icon=clip">
<path id="component_1" d="M9.1465 4.59177C10.736 3.00227 13.3138 3.00231 14.9033 4.59177C16.4929 6.18128 16.4929 8.75909 14.9033 10.3486L9.5049 15.747C8.36723 16.8846 6.52255 16.8844 5.38478 15.747C4.247 14.6093 4.247 12.7637 5.38478 11.6259L10.7832 6.22751C11.4693 5.54191 12.5817 5.54166 13.2676 6.22751C13.9536 6.91356 13.9536 8.02681 13.2676 8.71286L8.1963 13.7832C7.96199 14.0175 7.58199 14.0175 7.34767 13.7832C7.11352 13.5489 7.11354 13.1698 7.34767 12.9355L12.419 7.86423C12.6364 7.64681 12.6364 7.29356 12.419 7.07614C12.2015 6.85878 11.8483 6.85874 11.6309 7.07614L6.23341 12.4746C5.56426 13.1437 5.56426 14.2293 6.23341 14.8984C6.90256 15.5672 7.98723 15.5673 8.65627 14.8984L14.0547 9.49997C15.1756 8.37908 15.1756 6.56129 14.0547 5.4404C12.9338 4.31957 11.116 4.31953 9.99513 5.4404L4.92384 10.5117C4.68957 10.7458 4.31047 10.7458 4.07619 10.5117C3.84187 10.2774 3.84187 9.89737 4.07619 9.66306L9.1465 4.59177Z" fill="black"/>
</g>
</svg>
