<svg width="20" height="20" viewBox="0 0 20 20" fill="none" xmlns="http://www.w3.org/2000/svg">
<g id="type=normal, icon=circle_x">
<path id="component_1" fill-rule="evenodd" clip-rule="evenodd" d="M10 3.40039C13.6451 3.40039 16.5996 6.35492 16.5996 10C16.5996 13.6451 13.6451 16.5996 10 16.5996C6.35492 16.5996 3.40039 13.6451 3.40039 10C3.40039 6.35492 6.35492 3.40039 10 3.40039ZM12.9189 7.07031C12.6876 6.83355 12.3125 6.83366 12.0811 7.07031L9.99902 9.20215L7.91797 7.07031C7.68657 6.83401 7.31231 6.83377 7.08105 7.07031C6.84988 7.3073 6.85011 7.69158 7.08105 7.92871L9.16113 10.0605L7.2002 12.0703C6.96901 12.3073 6.96923 12.6916 7.2002 12.9287C7.43162 13.1658 7.80663 13.1657 8.03809 12.9287L9.99902 10.9189L11.9609 12.9287C12.1924 13.1658 12.5674 13.1657 12.7988 12.9287C13.0301 12.6916 13.0302 12.3074 12.7988 12.0703L10.8369 10.0605L12.9189 7.92871C13.15 7.69157 13.1502 7.30731 12.9189 7.07031Z" fill="black"/>
</g>
</svg>
