<svg width="20" height="20" viewBox="0 0 20 20" fill="none" xmlns="http://www.w3.org/2000/svg">
<g id="type=normal, icon=arrow_maximize_2">
<g id="component_1">
<path d="M8.57617 10.5762C8.81049 10.3419 9.18951 10.3419 9.42383 10.5762C9.65814 10.8105 9.65814 11.1895 9.42383 11.4238L6.44727 14.4004H8C8.33137 14.4004 8.59961 14.6686 8.59961 15C8.59961 15.3314 8.33137 15.5996 8 15.5996H5C4.84666 15.5996 4.69333 15.541 4.57617 15.4238C4.45901 15.3067 4.40039 15.1533 4.40039 15V12C4.40039 11.6686 4.66863 11.4004 5 11.4004C5.33137 11.4004 5.59961 11.6686 5.59961 12V13.5527L8.57617 10.5762Z" fill="black"/>
<path d="M15 4.40039C15.1533 4.40039 15.3067 4.45901 15.4238 4.57617C15.541 4.69333 15.5996 4.84666 15.5996 5V8C15.5996 8.33137 15.3314 8.59961 15 8.59961C14.6686 8.59961 14.4004 8.33137 14.4004 8V6.44727L11.4238 9.42383C11.1895 9.65814 10.8105 9.65814 10.5762 9.42383C10.3419 9.18951 10.3419 8.81049 10.5762 8.57617L13.5527 5.59961H12C11.6686 5.59961 11.4004 5.33137 11.4004 5C11.4004 4.66863 11.6686 4.40039 12 4.40039H15Z" fill="black"/>
</g>
</g>
</svg>
