<svg width="20" height="20" viewBox="0 0 20 20" fill="none" xmlns="http://www.w3.org/2000/svg">
<g id="type=normal, icon=square_calendar_start">
<path id="component_2" fill-rule="evenodd" clip-rule="evenodd" d="M16.9751 12.0251C18.3418 13.392 18.3419 15.6081 16.9751 16.9749C15.6083 18.3416 13.3922 18.3415 12.0254 16.9749C10.6585 15.608 10.6585 13.392 12.0254 12.0251C13.3922 10.6583 15.6083 10.6583 16.9751 12.0251ZM15.179 12.9718C15.0385 12.8318 14.8099 12.8317 14.6694 12.9718C14.5291 13.1123 14.5293 13.3409 14.6694 13.4815L15.3275 14.1395H12.8029C12.6047 14.14 12.4428 14.3017 12.4425 14.5C12.4429 14.6981 12.6042 14.8591 12.8022 14.8598H15.3282L14.6701 15.5178C14.5299 15.6583 14.5294 15.8862 14.6694 16.0268C14.81 16.1671 15.0385 16.1671 15.179 16.0268L16.4517 14.7541C16.4684 14.7374 16.4841 14.7186 16.4973 14.6989C16.5505 14.6186 16.5676 14.521 16.5497 14.4296C16.5489 14.4254 16.5473 14.4206 16.5463 14.4164C16.5314 14.3538 16.5005 14.2933 16.4517 14.2445L15.179 12.9718Z" fill="black"/>
<g id="component_1">
<path d="M13.6006 3.40039C15.2572 3.40069 16.6006 4.74372 16.6006 6.40039V10.5195C16.2283 10.3227 15.8253 10.1761 15.4004 10.0898V8C15.4002 7.00627 14.5943 6.20053 13.6006 6.2002H6.40039C5.4064 6.2002 4.60079 7.00606 4.60059 8V13.6006C4.6009 14.5944 5.40647 15.4004 6.40039 15.4004H10.0908C10.1771 15.8254 10.3236 16.2283 10.5205 16.6006H6.40039C4.74372 16.6006 3.40069 15.2572 3.40039 13.6006V6.40039C3.40039 4.74354 4.74354 3.40039 6.40039 3.40039H13.6006Z" fill="black"/>
<path d="M7.5 12.6006C7.77597 12.6008 8 12.8246 8 13.1006V13.7002C7.9998 13.976 7.77585 14.2 7.5 14.2002H6.90039C6.62437 14.2002 6.40059 13.9762 6.40039 13.7002V13.1006C6.40039 12.8244 6.62425 12.6006 6.90039 12.6006H7.5Z" fill="black"/>
<path d="M10.3008 12.6006C10.3395 12.6006 10.3769 12.6059 10.4131 12.6143C10.1877 13.102 10.0478 13.637 10.0107 14.2002H9.7002C9.42426 14.2001 9.20039 13.9761 9.2002 13.7002V13.1006C9.2002 12.8245 9.42414 12.6007 9.7002 12.6006H10.3008Z" fill="black"/>
<path d="M7.5 10C7.77585 10.0002 7.9998 10.2241 8 10.5V11.1006C7.99968 11.3763 7.77578 11.6004 7.5 11.6006H6.90039C6.62444 11.6006 6.40071 11.3765 6.40039 11.1006V10.5C6.40059 10.224 6.62437 10 6.90039 10H7.5Z" fill="black"/>
<path d="M10.3008 10C10.5765 10.0004 10.8006 10.2243 10.8008 10.5V11.1006C10.8005 11.3762 10.5764 11.6002 10.3008 11.6006H9.7002C9.42434 11.6005 9.20051 11.3764 9.2002 11.1006V10.5C9.20039 10.2241 9.42426 10.0001 9.7002 10H10.3008Z" fill="black"/>
<path d="M13.1006 10C13.228 10.0001 13.3433 10.0493 13.4316 10.1279C12.9135 10.2541 12.4305 10.4696 12 10.7578V10.5C12.0002 10.2242 12.2242 10.0002 12.5 10H13.1006Z" fill="black"/>
<path d="M10.3008 7.40039C10.5766 7.4008 10.8008 7.6245 10.8008 7.90039V8.5C10.8006 8.77572 10.5765 8.99959 10.3008 9H9.7002C9.42427 8.99989 9.20039 8.77591 9.2002 8.5V7.90039C9.2002 7.62431 9.42414 7.4005 9.7002 7.40039H10.3008Z" fill="black"/>
<path d="M13.1006 7.40039C13.3765 7.40069 13.6006 7.62444 13.6006 7.90039V8.5C13.6004 8.77579 13.3763 8.9997 13.1006 9H12.5C12.2242 8.99979 12.0002 8.77584 12 8.5V7.90039C12 7.62438 12.224 7.4006 12.5 7.40039H13.1006Z" fill="black"/>
</g>
</g>
</svg>
