<svg width="20" height="20" viewBox="0 0 20 20" fill="none" xmlns="http://www.w3.org/2000/svg">
<g id="type=normal, icon=bug">
<path id="component_1" fill-rule="evenodd" clip-rule="evenodd" d="M10.5 3.90039C11.9359 3.90039 13.0996 5.06406 13.0996 6.5C13.0996 6.79269 13.019 7.06579 12.8818 7.30176C13.1886 7.57278 13.4483 7.89535 13.6484 8.25586L15.1582 7.75391C15.3624 7.68586 15.5 7.49449 15.5 7.2793V6C15.5 5.72386 15.7239 5.5 16 5.5C16.2761 5.5 16.5 5.72386 16.5 6V7.2793C16.5 7.92482 16.087 8.4979 15.4746 8.70215L14.0068 9.19141C14.0665 9.45143 14.0996 9.72185 14.0996 10V10.5H16C16.2761 10.5 16.5 10.7239 16.5 11C16.5 11.2761 16.2761 11.5 16 11.5H14.0996V12C14.0996 12.2778 14.0664 12.5479 14.0068 12.8076L15.4746 13.2979C16.087 13.5021 16.5 14.0752 16.5 14.7207V16C16.5 16.2761 16.2761 16.5 16 16.5C15.7239 16.5 15.5 16.2761 15.5 16V14.7207C15.5 14.5055 15.3624 14.3141 15.1582 14.2461L13.6484 13.7432C13.0345 14.8499 11.8555 15.5996 10.5 15.5996H9.5C8.14434 15.5996 6.9645 14.8501 6.35059 13.7432L4.8418 14.2461C4.63764 14.3141 4.50002 14.5055 4.5 14.7207V16C4.5 16.2761 4.27614 16.5 4 16.5C3.72386 16.5 3.5 16.2761 3.5 16V14.7207C3.50002 14.0752 3.91305 13.5021 4.52539 13.2979L5.99219 12.8076C5.93266 12.5479 5.90039 12.2777 5.90039 12V11.5H4C3.72386 11.5 3.5 11.2761 3.5 11C3.5 10.7239 3.72386 10.5 4 10.5H5.90039V10C5.90039 9.72192 5.93252 9.45136 5.99219 9.19141L4.52539 8.70215C3.91305 8.4979 3.50002 7.92482 3.5 7.2793V6C3.5 5.72386 3.72386 5.5 4 5.5C4.27614 5.5 4.5 5.72386 4.5 6V7.2793C4.50002 7.49449 4.63764 7.68586 4.8418 7.75391L6.35059 8.25586C6.55061 7.8954 6.81051 7.57278 7.11719 7.30176C6.98017 7.06588 6.90039 6.79251 6.90039 6.5C6.90039 5.06406 8.06406 3.90039 9.5 3.90039H10.5ZM9.57129 7.57129C8.15128 7.57136 7.00014 8.72258 7 10.1426V11.8574C7.00016 13.2774 8.15129 14.4286 9.57129 14.4287H10.4287C11.8487 14.4286 12.9998 13.2774 13 11.8574V10.1426C12.9999 8.72258 11.8487 7.57136 10.4287 7.57129H9.57129ZM9.5 5.09961C8.7268 5.09961 8.09961 5.7268 8.09961 6.5C8.09961 6.56014 8.11388 6.61676 8.1377 6.66797C8.55799 6.49598 9.01775 6.40039 9.5 6.40039H10.5C10.9819 6.40039 11.4413 6.4962 11.8613 6.66797C11.8853 6.61666 11.9004 6.56029 11.9004 6.5C11.9004 5.7268 11.2732 5.09961 10.5 5.09961H9.5Z" fill="black"/>
</g>
</svg>
