<svg width="20" height="20" viewBox="0 0 20 20" fill="none" xmlns="http://www.w3.org/2000/svg">
<g id="type=normal, icon=arrow_minimize_2">
<g id="component_1">
<path d="M9.00002 10.4004C9.15334 10.4004 9.3067 10.459 9.42384 10.5762C9.54098 10.6934 9.59964 10.8467 9.59963 11V14C9.5996 14.3314 9.33135 14.5996 9.00002 14.5996C8.66866 14.5996 8.40043 14.3314 8.40041 14V12.4473L5.42384 15.4238C5.18954 15.6581 4.81051 15.6581 4.57619 15.4238C4.34187 15.1895 4.34187 14.8105 4.57619 14.5762L7.55275 11.5996H6.00002C5.66866 11.5996 5.40043 11.3314 5.40041 11C5.40041 10.6686 5.66865 10.4004 6.00002 10.4004H9.00002Z" fill="black"/>
<path d="M14.5762 4.57619C14.8105 4.34187 15.1895 4.34187 15.4238 4.57619C15.6581 4.81051 15.6581 5.18954 15.4238 5.42384L12.4473 8.40041H14C14.3314 8.40043 14.5996 8.66866 14.5996 9.00002C14.5996 9.33135 14.3314 9.5996 14 9.59963H11C10.8841 9.59963 10.7683 9.56597 10.668 9.49904C10.6352 9.47722 10.6045 9.4521 10.5762 9.42384C10.5479 9.3956 10.5228 9.36477 10.501 9.33205C10.434 9.23176 10.4004 9.11593 10.4004 9.00002V6.00002C10.4004 5.66865 10.6686 5.40041 11 5.40041C11.3314 5.40043 11.5996 5.66866 11.5996 6.00002V7.55275L14.5762 4.57619Z" fill="black"/>
</g>
</g>
</svg>
