<svg width="20" height="20" viewBox="0 0 20 20" fill="none" xmlns="http://www.w3.org/2000/svg">
<g id="type=normal, icon=lightbulb">
<path id="component_1" fill-rule="evenodd" clip-rule="evenodd" d="M9.99963 2.75C12.563 2.75 14.5992 4.90736 14.5992 7.5166C14.5992 8.33703 14.3991 9.11149 14.0446 9.78809C13.7647 10.322 13.4998 10.7659 13.2692 11.2607C13.0471 11.7373 12.8947 12.1889 12.858 12.6465L12.7994 13.377V14.3496C12.7994 15.9512 11.5007 17.25 9.89905 17.25C8.29768 17.2497 6.99963 15.951 6.99963 14.3496V12.7979C6.99949 12.293 6.86031 11.7887 6.64026 11.252C6.41099 10.6929 6.13853 10.1927 5.85706 9.58984C5.5638 8.96169 5.40007 8.25794 5.40002 7.5166C5.40002 4.90736 7.43628 2.75 9.99963 2.75ZM8.19885 13.9492V14.3496C8.19885 15.2883 8.96042 16.0495 9.89905 16.0498C10.8379 16.0498 11.5992 15.2885 11.5992 14.3496V13.9492H8.19885ZM9.99963 3.94922C8.14471 3.94922 6.59924 5.52347 6.59924 7.5166C6.59929 8.07999 6.72398 8.6107 6.94397 9.08203C7.18279 9.59355 7.51042 10.2102 7.75061 10.7959C7.99434 11.3903 8.18919 12.0436 8.19788 12.75H11.6461L11.6617 12.5508C11.7144 11.8937 11.929 11.2953 12.1813 10.7539C12.425 10.231 12.7419 9.68781 12.9811 9.23145C13.2471 8.72395 13.4 8.14018 13.4 7.5166C13.4 5.52347 11.8546 3.94922 9.99963 3.94922Z" fill="black"/>
</g>
</svg>
