<svg width="20" height="20" viewBox="0 0 20 20" fill="none" xmlns="http://www.w3.org/2000/svg">
<g id="type=normal, icon=circle_arrange_fill">
<g id="component_2">
<path d="M9.65039 9.5C9.98145 9.50021 10.2498 9.76855 10.25 10.0996V12.4004C10.2498 12.7315 9.98145 12.9998 9.65039 13H7.34961C7.01855 12.9998 6.75021 12.7315 6.75 12.4004V10.0996C6.75021 9.76855 7.01855 9.50021 7.34961 9.5H9.65039Z" fill="black"/>
<path d="M12.6504 9.5C12.9815 9.50021 13.2498 9.76855 13.25 10.0996V10.9004C13.2498 11.2315 12.9815 11.4998 12.6504 11.5H11.3496C11.0185 11.4998 10.7502 11.2315 10.75 10.9004V10.0996C10.7502 9.76855 11.0185 9.50021 11.3496 9.5H12.6504Z" fill="black"/>
<path d="M12.6504 7C12.9815 7.00021 13.2498 7.26855 13.25 7.59961V8.40039C13.2498 8.73145 12.9815 8.99979 12.6504 9H7.34961C7.01855 8.99979 6.75021 8.73145 6.75 8.40039V7.59961C6.75021 7.26855 7.01855 7.00021 7.34961 7H12.6504Z" fill="black"/>
</g>
<path id="component_1" d="M10 3.40039C13.6451 3.40039 16.5996 6.35492 16.5996 10C16.5996 10.3314 16.3314 10.5996 16 10.5996C15.6686 10.5996 15.4004 10.3314 15.4004 10C15.4004 7.01766 12.9823 4.59961 10 4.59961C7.01766 4.59961 4.59961 7.01766 4.59961 10C4.59961 12.9823 7.01766 15.4004 10 15.4004C11.2836 15.4004 12.4611 14.9526 13.3877 14.2051C13.6762 13.9723 13.9387 13.7092 14.1738 13.4229L13.5391 13.4648C13.2086 13.4862 12.923 13.2356 12.9014 12.9053C12.8801 12.5747 13.1305 12.2891 13.4609 12.2676L15.2598 12.1514C15.5015 12.1358 15.7296 12.2672 15.8369 12.4844L16.6357 14.1006C16.7824 14.3976 16.6602 14.7575 16.3633 14.9043C16.0665 15.0505 15.7074 14.9284 15.5605 14.6318L15.248 14C14.9256 14.4226 14.5549 14.8062 14.1416 15.1396C13.0094 16.053 11.5676 16.5996 10 16.5996C6.35492 16.5996 3.40039 13.6451 3.40039 10C3.40039 6.35492 6.35492 3.40039 10 3.40039Z" fill="black"/>
</g>
</svg>
