<svg width="20" height="20" viewBox="0 0 20 20" fill="none" xmlns="http://www.w3.org/2000/svg">
<g id="type=normal, icon=search">
<path id="component_1" fill-rule="evenodd" clip-rule="evenodd" d="M8.75 4.40039C11.1524 4.40039 13.0996 6.34756 13.0996 8.75C13.0996 9.73501 12.7716 10.6429 12.2197 11.3721L15.4248 14.5762C15.6586 14.8105 15.659 15.1907 15.4248 15.4248C15.1907 15.659 14.8105 15.6586 14.5762 15.4248L11.3721 12.2197C10.6429 12.7716 9.73501 13.0996 8.75 13.0996C6.34756 13.0996 4.40039 11.1524 4.40039 8.75C4.40039 6.34756 6.34756 4.40039 8.75 4.40039ZM8.75 5.59961C7.0103 5.59961 5.59961 7.0103 5.59961 8.75C5.59961 10.4897 7.0103 11.9004 8.75 11.9004C10.4897 11.9004 11.9004 10.4897 11.9004 8.75C11.9004 7.0103 10.4897 5.59961 8.75 5.59961Z" fill="black"/>
</g>
</svg>
