<svg width="20" height="20" viewBox="0 0 20 20" fill="none" xmlns="http://www.w3.org/2000/svg">
<g id="type=normal, icon=text_italic">
<path id="component_1" d="M14 4.40027C14.3313 4.40027 14.5995 4.66856 14.5996 4.99988C14.5996 5.33125 14.3314 5.59949 14 5.59949H12.4062L8.88574 14.4003H10C10.3313 14.4003 10.5995 14.6686 10.5996 14.9999C10.5996 15.3312 10.3314 15.5995 10 15.5995H6C5.66863 15.5995 5.40039 15.3312 5.40039 14.9999C5.40046 14.6686 5.66867 14.4003 6 14.4003H7.59375L11.1143 5.59949H10C9.66863 5.59949 9.40039 5.33125 9.40039 4.99988C9.40046 4.66856 9.66867 4.40027 10 4.40027H14Z" fill="black"/>
</g>
</svg>
