<svg width="20" height="20" viewBox="0 0 20 20" fill="none" xmlns="http://www.w3.org/2000/svg">
<g id="type=normal, icon=arrow_down_plus">
<path id="component_2" fill-rule="evenodd" clip-rule="evenodd" d="M13.5001 3C15.433 3.00008 17.0001 4.56707 17.0001 6.5C17.0001 8.43295 15.433 9.99992 13.5001 10C11.5672 9.99992 10.0001 8.43295 10.0001 6.5C10.0001 4.56707 11.5672 3.00008 13.5001 3ZM13.5001 4.5C13.224 4.50007 13.0001 4.7239 13.0001 5V6H12.0001C11.724 6 11.5001 6.22388 11.5001 6.5C11.5001 6.77614 11.724 7 12.0001 7H13.0001V8C13.0001 8.2761 13.224 8.49993 13.5001 8.5C13.7762 8.49992 14.0001 8.27609 14.0001 8V7H15.0001C15.2762 6.99992 15.5001 6.77609 15.5001 6.5C15.5001 6.22393 15.2762 6.00008 15.0001 6H14.0001V5C14.0001 4.72391 13.7762 4.50008 13.5001 4.5Z" fill="black"/>
<g id="component_1">
<path d="M9.40057 8.35547C9.67898 8.9696 10.0908 9.50985 10.5998 9.93945V14.7998L13.6398 12.5195C13.9049 12.3209 14.2819 12.3746 14.4806 12.6396C14.6793 12.9047 14.6254 13.2816 14.3605 13.4805L10.3605 16.4805L10.339 16.4932C10.3332 16.4972 10.3265 16.5001 10.3205 16.5039L10.2765 16.5322C10.2686 16.5364 10.2593 16.5382 10.2512 16.542C10.2386 16.5478 10.2261 16.5536 10.2131 16.5586C10.191 16.567 10.1684 16.5734 10.1457 16.5791C10.1337 16.5821 10.1219 16.5866 10.1096 16.5889C10.0766 16.595 10.0433 16.598 10.0099 16.5986C10.0067 16.5987 10.0034 16.5996 10.0002 16.5996C9.99701 16.5996 9.99358 16.5987 9.99042 16.5986C9.95639 16.5982 9.92242 16.5951 9.88885 16.5889C9.88431 16.588 9.87969 16.5869 9.87518 16.5859C9.83934 16.5784 9.80398 16.5679 9.76971 16.5537C9.76679 16.5525 9.76382 16.5511 9.76092 16.5498C9.72991 16.5364 9.69996 16.5199 9.67108 16.501C9.66719 16.4984 9.66319 16.4958 9.65936 16.4932C9.65303 16.4888 9.64604 16.4851 9.63983 16.4805L5.63983 13.4805C5.37473 13.2816 5.32089 12.9047 5.51971 12.6396C5.71856 12.3747 6.09548 12.3207 6.36053 12.5195L9.40057 14.7998V8.35547Z" fill="black"/>
<path d="M10.0002 3.40039C10.0717 3.40042 10.1397 3.41455 10.2033 3.4375C9.87456 3.79122 9.60262 4.1981 9.40057 4.64355V4C9.40057 3.66863 9.66881 3.40039 10.0002 3.40039Z" fill="black"/>
</g>
</g>
</svg>
