<svg width="20" height="20" viewBox="0 0 20 20" fill="none" xmlns="http://www.w3.org/2000/svg">
<g id="type=normal, icon=rectangle_board">
<g id="component_1">
<path fill-rule="evenodd" clip-rule="evenodd" d="M7.5 4.40039C8.6598 4.40039 9.59961 5.3402 9.59961 6.5V13.5C9.59961 14.6598 8.6598 15.5996 7.5 15.5996H4.5C3.3402 15.5996 2.40039 14.6598 2.40039 13.5V6.5C2.40039 5.3402 3.3402 4.40039 4.5 4.40039H7.5ZM4.5 5.59961C4.00294 5.59961 3.59961 6.00294 3.59961 6.5V13.5C3.59961 13.9971 4.00294 14.4004 4.5 14.4004H7.5C7.99706 14.4004 8.40039 13.9971 8.40039 13.5V6.5C8.40039 6.00294 7.99706 5.59961 7.5 5.59961H4.5Z" fill="black"/>
<path fill-rule="evenodd" clip-rule="evenodd" d="M15.5 4.40039C16.6598 4.40039 17.5996 5.3402 17.5996 6.5V13.5C17.5996 14.6598 16.6598 15.5996 15.5 15.5996H12.5C11.3402 15.5996 10.4004 14.6598 10.4004 13.5V6.5C10.4004 5.3402 11.3402 4.40039 12.5 4.40039H15.5ZM12.5 5.59961C12.0029 5.59961 11.5996 6.00294 11.5996 6.5V13.5C11.5996 13.9971 12.0029 14.4004 12.5 14.4004H15.5C15.9971 14.4004 16.4004 13.9971 16.4004 13.5V6.5C16.4004 6.00294 15.9971 5.59961 15.5 5.59961H12.5Z" fill="black"/>
</g>
</g>
</svg>
