<svg width="20" height="20" viewBox="0 0 20 20" fill="none" xmlns="http://www.w3.org/2000/svg">
<g id="type=normal, icon=workspace">
<g id="component_1">
<path d="M6.90039 10C7.17639 10.0001 7.40029 10.224 7.40039 10.5V11.0996C7.40039 11.3757 7.17645 11.5995 6.90039 11.5996H6.30078C6.02464 11.5996 5.80078 11.3758 5.80078 11.0996V10.5C5.80088 10.2239 6.0247 10 6.30078 10H6.90039Z" fill="black"/>
<path d="M9.70117 10C9.97699 10.0003 10.2011 10.2241 10.2012 10.5V11.0996C10.2012 11.3756 9.97705 11.5993 9.70117 11.5996H9.10059C8.82453 11.5995 8.60059 11.3757 8.60059 11.0996V10.5C8.60069 10.224 8.82459 10.0001 9.10059 10H9.70117Z" fill="black"/>
<path d="M12.5 10C12.7759 10.0002 12.9999 10.2241 13 10.5V11.0996C13 11.3756 12.776 11.5994 12.5 11.5996H11.8994C11.6234 11.5995 11.3994 11.3757 11.3994 11.0996V10.5C11.3995 10.224 11.6234 10.0001 11.8994 10H12.5Z" fill="black"/>
<path d="M6.90039 7.39941C7.17627 7.39951 7.40009 7.62359 7.40039 7.89941V8.5C7.40027 8.77598 7.17638 8.9999 6.90039 9H6.30078C6.02471 9 5.8009 8.77604 5.80078 8.5V7.89941C5.80108 7.62352 6.02482 7.39941 6.30078 7.39941H6.90039Z" fill="black"/>
<path d="M9.70117 7.39941C9.97687 7.39972 10.2009 7.62372 10.2012 7.89941V8.5C10.2011 8.77585 9.97698 8.99969 9.70117 9H9.10059C8.82461 8.99989 8.6007 8.77598 8.60059 8.5V7.89941C8.60088 7.62359 8.82472 7.39952 9.10059 7.39941H9.70117Z" fill="black"/>
<path d="M6.90039 4.7998C7.17638 4.79991 7.40029 5.02381 7.40039 5.2998V5.89941C7.40039 6.17549 7.17644 6.39931 6.90039 6.39941H6.2998C6.02393 6.3991 5.7998 6.17536 5.7998 5.89941V5.2998C5.7999 5.02394 6.02399 4.80011 6.2998 4.7998H6.90039Z" fill="black"/>
<path d="M9.70117 4.7998C9.97699 4.80011 10.2011 5.02394 10.2012 5.2998V5.89941C10.2012 6.17536 9.97705 6.3991 9.70117 6.39941H9.10059C8.82453 6.39931 8.60059 6.17549 8.60059 5.89941V5.2998C8.60069 5.02381 8.82459 4.79991 9.10059 4.7998H9.70117Z" fill="black"/>
<path fill-rule="evenodd" clip-rule="evenodd" d="M11 2.40039C11.8837 2.40039 12.5996 3.11634 12.5996 4V7.40039H13.7998C14.6835 7.40039 15.4004 8.11634 15.4004 9V16.5996C15.4004 17.1518 14.9525 17.5994 14.4004 17.5996H4.40039C3.84811 17.5996 3.40039 17.1519 3.40039 16.5996V4C3.40039 3.11634 4.11634 2.40039 5 2.40039H11ZM5 3.59961C4.77909 3.59961 4.59961 3.77909 4.59961 4V16.4004H7.59961V13.4004C7.59961 12.9586 7.95856 12.5996 8.40039 12.5996H10.5996C11.0414 12.5996 11.4004 12.9586 11.4004 13.4004V16.4004H14.2002V9C14.2002 8.77909 14.0207 8.59961 13.7998 8.59961H12.4004C11.8481 8.59961 11.4004 8.15189 11.4004 7.59961V4C11.4004 3.77909 11.2209 3.59961 11 3.59961H5ZM8.40039 16.4004H10.5996V13.4004H8.40039V16.4004Z" fill="black"/>
</g>
</g>
</svg>
