<svg width="20" height="20" viewBox="0 0 20 20" fill="none" xmlns="http://www.w3.org/2000/svg">
<g id="type=normal, icon=arrow_up_plus">
<path id="component_2" fill-rule="evenodd" clip-rule="evenodd" d="M13.5002 10C15.433 10.0002 17.0002 11.5671 17.0002 13.5C17.0002 15.4329 15.433 16.9998 13.5002 17C11.5673 16.9999 10.0002 15.4329 10.0002 13.5C10.0002 11.5671 11.5673 10.0001 13.5002 10ZM13.5002 11.5C13.2241 11.5001 13.0002 11.7239 13.0002 12V13H12.0002C11.7241 13 11.5002 13.2239 11.5002 13.5C11.5002 13.7761 11.724 14 12.0002 14H13.0002V15C13.0002 15.2761 13.2241 15.4999 13.5002 15.5C13.7762 15.4998 14.0002 15.276 14.0002 15V14H15.0002C15.2762 13.9998 15.5002 13.776 15.5002 13.5C15.5002 13.224 15.2762 13.0002 15.0002 13H14.0002V12C14.0002 11.724 13.7762 11.5002 13.5002 11.5Z" fill="black"/>
<g id="component_1">
<path d="M9.40057 15.3555C9.60256 15.801 9.87458 16.2077 10.2033 16.5615C10.1396 16.5845 10.0718 16.5996 10.0002 16.5996C9.66881 16.5996 9.40057 16.3314 9.40057 16V15.3555Z" fill="black"/>
<path d="M10.0099 3.40137C10.0436 3.40185 10.0773 3.40402 10.1105 3.41016C10.1151 3.41101 10.1197 3.41214 10.1242 3.41309C10.159 3.42037 10.1934 3.43078 10.2267 3.44434C10.2324 3.44664 10.2378 3.44968 10.2433 3.45215C10.2736 3.46555 10.303 3.48132 10.3312 3.5C10.3329 3.50115 10.3344 3.50275 10.3361 3.50391C10.344 3.50927 10.3528 3.51374 10.3605 3.51953L14.3605 6.51953C14.6255 6.71836 14.6793 7.09531 14.4806 7.36035C14.2819 7.6254 13.9049 7.67917 13.6398 7.48047L10.5998 5.19922V10.0596C10.0908 10.4891 9.67907 11.0296 9.40057 11.6436V5.19922L6.36053 7.48047C6.09547 7.67927 5.71855 7.62536 5.51971 7.36035C5.32089 7.09525 5.37473 6.71835 5.63983 6.51953L9.63983 3.51953L9.65643 3.50879C9.66551 3.50243 9.67531 3.49707 9.68475 3.49121L9.72381 3.46777C9.73183 3.46361 9.74008 3.45983 9.74823 3.45605C9.75971 3.45074 9.77153 3.446 9.78338 3.44141C9.80703 3.43222 9.83125 3.42503 9.85565 3.41895C9.86699 3.41613 9.87824 3.41231 9.88983 3.41016C9.92302 3.40392 9.95677 3.40198 9.99042 3.40137C9.9936 3.4013 9.99699 3.40039 10.0002 3.40039C10.0034 3.40041 10.0067 3.40132 10.0099 3.40137Z" fill="black"/>
</g>
</g>
</svg>
