<svg width="20" height="20" viewBox="0 0 20 20" fill="none" xmlns="http://www.w3.org/2000/svg">
<g id="type=normal, icon=pencil">
<g id="component_1">
<path d="M15.8784 5.00246L14.9975 4.12162C14.8354 3.95946 14.5725 3.95946 14.4103 4.12162L14.0902 4.44169C13.9281 4.60385 13.9281 4.86676 14.0902 5.02892L14.9711 5.90975C15.1332 6.07191 15.3962 6.07191 15.5583 5.90975L15.8784 5.58968C16.0405 5.42752 16.0405 5.16461 15.8784 5.00246Z" fill="black"/>
<path d="M4.30756 15.9739L6.65203 14.7039C6.77412 14.6377 6.79813 14.4727 6.69995 14.3745L5.62548 13.3001C5.52729 13.2019 5.36226 13.2259 5.29612 13.348L4.02612 15.6924C3.92776 15.874 4.12599 16.0722 4.30756 15.9739Z" fill="black"/>
<path d="M14.6775 6.20337L13.7966 5.32253C13.6345 5.16037 13.3716 5.16037 13.2094 5.32253L5.8691 12.6628C5.78802 12.7439 5.78802 12.8754 5.8691 12.9565L7.04355 14.1309C7.12463 14.212 7.25608 14.212 7.33716 14.1309L14.6775 6.79059C14.8396 6.62843 14.8396 6.36552 14.6775 6.20337Z" fill="black"/>
</g>
</g>
</svg>
