<svg width="20" height="20" viewBox="0 0 20 20" fill="none" xmlns="http://www.w3.org/2000/svg">
<g id="type=normal, icon=square_arrange_line">
<g id="component_1">
<path fill-rule="evenodd" clip-rule="evenodd" d="M15 9.40039C15.8837 9.40039 16.5996 10.1163 16.5996 11V15C16.5996 15.8837 15.8837 16.5996 15 16.5996H5C4.11634 16.5996 3.40039 15.8837 3.40039 15V11C3.40039 10.1163 4.11634 9.40039 5 9.40039H15ZM5 10.5996C4.77909 10.5996 4.59961 10.7791 4.59961 11V15C4.59961 15.2209 4.77909 15.4004 5 15.4004H15C15.2209 15.4004 15.4004 15.2209 15.4004 15V11C15.4004 10.7791 15.2209 10.5996 15 10.5996H5Z" fill="black"/>
<path fill-rule="evenodd" clip-rule="evenodd" d="M10 3.40039C10.8837 3.40039 11.5996 4.11634 11.5996 5V7C11.5996 7.88366 10.8837 8.59961 10 8.59961H5C4.11634 8.59961 3.40039 7.88366 3.40039 7V5C3.40039 4.11634 4.11634 3.40039 5 3.40039H10ZM5 4.59961C4.77909 4.59961 4.59961 4.77909 4.59961 5V7C4.59961 7.22091 4.77909 7.40039 5 7.40039H10C10.2209 7.40039 10.4004 7.22091 10.4004 7V5C10.4004 4.77909 10.2209 4.59961 10 4.59961H5Z" fill="black"/>
<path fill-rule="evenodd" clip-rule="evenodd" d="M15 3.40039C15.8837 3.40039 16.5996 4.11634 16.5996 5V7C16.5996 7.88366 15.8837 8.59961 15 8.59961H14C13.1163 8.59961 12.4004 7.88366 12.4004 7V5C12.4004 4.11634 13.1163 3.40039 14 3.40039H15ZM14 4.59961C13.7791 4.59961 13.5996 4.77909 13.5996 5V7C13.5996 7.22091 13.7791 7.40039 14 7.40039H15C15.2209 7.40039 15.4004 7.22091 15.4004 7V5C15.4004 4.77909 15.2209 4.59961 15 4.59961H14Z" fill="black"/>
</g>
</g>
</svg>
