<svg width="20" height="20" viewBox="0 0 20 20" fill="none" xmlns="http://www.w3.org/2000/svg">
<g id="type=normal, icon=send">
<path id="component_1" d="M15.5207 3.76188C16.2926 3.59751 16.9806 4.35187 16.6896 5.13102L12.4123 16.5744C12.0769 17.4715 10.7092 17.5211 10.4396 16.4914L9.14078 11.5314C9.11796 11.4443 9.05212 11.3775 8.965 11.3547L4.00406 10.0558C2.97474 9.78598 3.02496 8.41943 3.92203 8.08414L15.3654 3.8068L15.5207 3.76188ZM4.81949 9.02946L9.26871 10.1945C9.31589 10.2068 9.3613 10.2236 9.4064 10.2404L12.0714 7.57633C12.3058 7.34211 12.6858 7.34205 12.9201 7.57633C13.1542 7.81063 13.1542 8.1907 12.9201 8.42496L10.255 11.088C10.2721 11.1337 10.2894 11.18 10.3019 11.2277L11.466 15.6759L15.4328 5.06168L4.81949 9.02946Z" fill="black"/>
</g>
</svg>
