<svg width="20" height="20" viewBox="0 0 20 20" fill="none" xmlns="http://www.w3.org/2000/svg">
<g id="type=normal, icon=square_calendar">
<g id="component_1">
<path d="M7.4996 12.6002C7.77575 12.6002 7.9996 12.8241 7.9996 13.1002V13.6998C7.9996 13.976 7.77575 14.1998 7.4996 14.1998H6.89999C6.62385 14.1998 6.39999 13.976 6.39999 13.6998V13.1002C6.39999 12.8241 6.62385 12.6002 6.89999 12.6002H7.4996Z" fill="black"/>
<path d="M10.3004 12.6002C10.5763 12.6004 10.8004 12.8242 10.8004 13.1002V13.6998C10.8004 13.9758 10.5763 14.1996 10.3004 14.1998H9.6998C9.42375 14.1997 9.1998 13.9759 9.1998 13.6998V13.1002C9.1998 12.8241 9.42375 12.6003 9.6998 12.6002H10.3004Z" fill="black"/>
<path d="M7.4996 9.99963C7.77562 9.99963 7.99941 10.2237 7.9996 10.4996V11.1002C7.99948 11.3763 7.77567 11.6002 7.4996 11.6002H6.89999C6.62392 11.6002 6.40011 11.3763 6.39999 11.1002V10.4996C6.40019 10.2237 6.62397 9.99963 6.89999 9.99963H7.4996Z" fill="black"/>
<path d="M10.3004 9.99963C10.5762 9.99984 10.8002 10.2238 10.8004 10.4996V11.1002C10.8003 11.3761 10.5763 11.6 10.3004 11.6002H9.6998C9.42382 11.6001 9.19992 11.3762 9.1998 11.1002V10.4996C9.2 10.2237 9.42387 9.99974 9.6998 9.99963H10.3004Z" fill="black"/>
<path d="M13.1002 9.99963C13.3761 9.99974 13.6 10.2237 13.6002 10.4996V11.1002C13.6001 11.3762 13.3762 11.6001 13.1002 11.6002H12.4996C12.2237 11.6 11.9997 11.3761 11.9996 11.1002V10.4996C11.9998 10.2238 12.2238 9.99984 12.4996 9.99963H13.1002Z" fill="black"/>
<path d="M10.3004 7.40002C10.5763 7.40024 10.8004 7.62401 10.8004 7.90002V8.49963C10.8004 8.77565 10.5763 8.99942 10.3004 8.99963H9.6998C9.42375 8.99953 9.1998 8.77571 9.1998 8.49963V7.90002C9.1998 7.62395 9.42375 7.40013 9.6998 7.40002H10.3004Z" fill="black"/>
<path d="M13.1002 7.40002C13.3762 7.40013 13.6002 7.62395 13.6002 7.90002V8.49963C13.6002 8.77571 13.3762 8.99953 13.1002 8.99963H12.4996C12.2236 8.99942 11.9996 8.77565 11.9996 8.49963V7.90002C11.9996 7.62401 12.2236 7.40024 12.4996 7.40002H13.1002Z" fill="black"/>
<path fill-rule="evenodd" clip-rule="evenodd" d="M13.6002 3.40002C15.257 3.40013 16.6002 4.74323 16.6002 6.40002V13.6002C16.6001 15.2569 15.2569 16.6001 13.6002 16.6002H6.40002C4.74324 16.6002 3.40013 15.257 3.40002 13.6002V6.40002C3.40002 4.74317 4.74317 3.40002 6.40002 3.40002H13.6002ZM6.40002 6.19983C5.40604 6.19983 4.60042 7.00569 4.60022 7.99963V13.6002C4.60033 14.5942 5.40598 15.4 6.40002 15.4H13.6002C14.5942 15.3999 15.3999 14.5942 15.4 13.6002V7.99963C15.3998 7.00578 14.5941 6.19996 13.6002 6.19983H6.40002Z" fill="black"/>
</g>
</g>
</svg>
