<svg width="20" height="20" viewBox="0 0 20 20" fill="none" xmlns="http://www.w3.org/2000/svg">
<g id="type=normal, icon=lock_locked">
<path id="component_1" fill-rule="evenodd" clip-rule="evenodd" d="M10 3.40039C11.9882 3.40039 13.5996 5.01178 13.5996 7V9.51953C13.6419 9.53565 13.6846 9.55285 13.7266 9.57422C14.0276 9.72761 14.2724 9.97244 14.4258 10.2734C14.5306 10.4791 14.5673 10.6907 14.584 10.8945C14.6 11.0913 14.5996 11.3297 14.5996 11.5996V14.4004C14.5996 14.6703 14.6 14.9087 14.584 15.1055C14.5673 15.3093 14.5306 15.5209 14.4258 15.7266C14.2724 16.0276 14.0276 16.2724 13.7266 16.4258C13.5209 16.5306 13.3093 16.5673 13.1055 16.584C12.9087 16.6 12.6703 16.5996 12.4004 16.5996H7.59961C7.32972 16.5996 7.09126 16.6 6.89453 16.584C6.69068 16.5673 6.47907 16.5306 6.27344 16.4258C5.97244 16.2724 5.72761 16.0276 5.57422 15.7266C5.46944 15.5209 5.43267 15.3093 5.41602 15.1055C5.39995 14.9087 5.40039 14.6703 5.40039 14.4004V11.5996C5.40039 11.3297 5.39995 11.0913 5.41602 10.8945C5.43267 10.6907 5.46944 10.4791 5.57422 10.2734C5.72761 9.97244 5.97244 9.72761 6.27344 9.57422C6.31538 9.55285 6.35807 9.53565 6.40039 9.51953V7C6.40039 5.01178 8.01178 3.40039 10 3.40039ZM7.59961 10.5996C7.31002 10.5996 7.12876 10.6002 6.99219 10.6113C6.86254 10.6219 6.82664 10.6393 6.81836 10.6436C6.74311 10.6819 6.6819 10.7431 6.64356 10.8184C6.63934 10.8266 6.62192 10.8625 6.61133 10.9922C6.60018 11.1288 6.59961 11.31 6.59961 11.5996V14.4004C6.59961 14.69 6.60018 14.8712 6.61133 15.0078C6.62192 15.1375 6.63934 15.1734 6.64356 15.1816C6.6819 15.2569 6.74311 15.3181 6.81836 15.3564C6.82664 15.3607 6.86254 15.3781 6.99219 15.3887C7.12876 15.3998 7.31002 15.4004 7.59961 15.4004H12.4004C12.69 15.4004 12.8712 15.3998 13.0078 15.3887C13.1374 15.3781 13.1734 15.3607 13.1816 15.3564C13.2569 15.3181 13.3181 15.2569 13.3564 15.1816C13.3607 15.1734 13.3781 15.1375 13.3887 15.0078C13.3998 14.8712 13.4004 14.69 13.4004 14.4004V11.5996C13.4004 11.31 13.3998 11.1288 13.3887 10.9922C13.3781 10.8625 13.3607 10.8266 13.3564 10.8184C13.3181 10.7431 13.2569 10.6819 13.1816 10.6436C13.1734 10.6393 13.1374 10.6219 13.0078 10.6113C12.8712 10.6002 12.69 10.5996 12.4004 10.5996H7.59961ZM10 4.59961C8.67452 4.59961 7.59961 5.67452 7.59961 7V9.40039H12.4004V7C12.4004 5.67452 11.3255 4.59961 10 4.59961Z" fill="black"/>
</g>
</svg>
