<svg width="20" height="20" viewBox="0 0 20 20" fill="none" xmlns="http://www.w3.org/2000/svg">
<g id="type=normal, icon=arrow_left_plus">
<path id="component_2" fill-rule="evenodd" clip-rule="evenodd" d="M13.5 10.0002C15.433 10.0002 17 11.5672 17 13.5002C16.9999 15.4331 15.4329 17.0002 13.5 17.0002C11.5671 17.0001 10.0001 15.433 10 13.5002C10 11.5673 11.5671 10.0003 13.5 10.0002ZM13.5 11.5002C13.2239 11.5002 13 11.7241 13 12.0002V13.0002H12C11.7239 13.0002 11.5 13.2241 11.5 13.5002C11.5001 13.7762 11.7239 14.0002 12 14.0002H13V15.0002C13.0001 15.2762 13.224 15.5001 13.5 15.5002C13.7761 15.5002 13.9999 15.2762 14 15.0002V14.0002H15C15.2761 14.0002 15.4999 13.7762 15.5 13.5002C15.5 13.2241 15.2761 13.0002 15 13.0002H14V12.0002C14 11.724 13.7761 11.5002 13.5 11.5002Z" fill="black"/>
<g id="component_1">
<path d="M6.51953 5.63983C6.71835 5.37473 7.09525 5.32089 7.36035 5.51971C7.62536 5.71855 7.67927 6.09547 7.48047 6.36053L5.2002 9.40057H11.6445C11.0304 9.67898 10.4902 10.0908 10.0605 10.5998H5.2002L7.48047 13.6398C7.67917 13.9049 7.6254 14.2819 7.36035 14.4806C7.0953 14.6793 6.71835 14.6255 6.51953 14.3605L3.51953 10.3605L3.50586 10.339C3.50183 10.3332 3.49893 10.3265 3.49512 10.3205L3.46777 10.2765C3.46355 10.2684 3.46085 10.2594 3.45703 10.2512C3.45123 10.2386 3.44538 10.2261 3.44043 10.2131C3.43201 10.191 3.42565 10.1684 3.41992 10.1457C3.41692 10.1337 3.41243 10.1219 3.41016 10.1096C3.40401 10.0767 3.40199 10.0433 3.40137 10.0099C3.40132 10.0067 3.40041 10.0034 3.40039 10.0002C3.40039 9.99666 3.40129 9.99295 3.40137 9.98944C3.40189 9.95578 3.40399 9.92206 3.41016 9.88885C3.41101 9.88429 3.41213 9.8797 3.41309 9.87518C3.42812 9.80366 3.45653 9.73444 3.49805 9.67108C3.50061 9.66718 3.50321 9.6632 3.50586 9.65936C3.51034 9.65286 3.51476 9.6462 3.51953 9.63983L6.51953 5.63983Z" fill="black"/>
<path d="M16 9.40057C16.3314 9.40057 16.5996 9.66881 16.5996 10.0002C16.5996 10.0718 16.5845 10.1396 16.5615 10.2033C16.2077 9.87458 15.801 9.60256 15.3555 9.40057H16Z" fill="black"/>
</g>
</g>
</svg>
