<svg width="20" height="20" viewBox="0 0 20 20" fill="none" xmlns="http://www.w3.org/2000/svg">
<g id="type=normal, icon=line_menu">
<g id="component_1">
<path d="M16 14.4004C16.3314 14.4004 16.5996 14.6686 16.5996 15C16.5996 15.3314 16.3314 15.5996 16 15.5996H4C3.66863 15.5996 3.40039 15.3314 3.40039 15C3.40039 14.6686 3.66863 14.4004 4 14.4004H16Z" fill="black"/>
<path d="M16 9.40039C16.3314 9.40039 16.5996 9.66863 16.5996 10C16.5996 10.3314 16.3314 10.5996 16 10.5996H4C3.66863 10.5996 3.40039 10.3314 3.40039 10C3.40039 9.66863 3.66863 9.40039 4 9.40039H16Z" fill="black"/>
<path d="M16 4.40039C16.3314 4.40039 16.5996 4.66863 16.5996 5C16.5996 5.33137 16.3314 5.59961 16 5.59961H4C3.66863 5.59961 3.40039 5.33137 3.40039 5C3.40039 4.66863 3.66863 4.40039 4 4.40039H16Z" fill="black"/>
</g>
</g>
</svg>
