<svg width="20" height="20" viewBox="0 0 20 20" fill="none" xmlns="http://www.w3.org/2000/svg">
<g id="type=normal, icon=line_voice">
<g id="component_1">
<path d="M11.9004 16V4C11.9004 3.66863 12.1686 3.40039 12.5 3.40039C12.8314 3.40039 13.0996 3.66863 13.0996 4V16C13.0996 16.3314 12.8314 16.5996 12.5 16.5996C12.1686 16.5996 11.9004 16.3314 11.9004 16Z" fill="black"/>
<path d="M4.40039 11V9C4.40039 8.66863 4.66863 8.40039 5 8.40039C5.33137 8.40039 5.59961 8.66863 5.59961 9V11C5.59961 11.3314 5.33137 11.5996 5 11.5996C4.66863 11.5996 4.40039 11.3314 4.40039 11Z" fill="black"/>
<path d="M14.4004 11.5V8.5C14.4004 8.16863 14.6686 7.90039 15 7.90039C15.3314 7.90039 15.5996 8.16863 15.5996 8.5V11.5C15.5996 11.8314 15.3314 12.0996 15 12.0996C14.6686 12.0996 14.4004 11.8314 14.4004 11.5Z" fill="black"/>
<path d="M6.90039 14L6.90039 6C6.90039 5.66863 7.16863 5.40039 7.5 5.40039C7.83137 5.40039 8.09961 5.66863 8.09961 6L8.09961 14C8.09961 14.3314 7.83137 14.5996 7.5 14.5996C7.16863 14.5996 6.90039 14.3314 6.90039 14Z" fill="black"/>
<path d="M9.40039 12.5L9.40039 7.5C9.40039 7.16863 9.66863 6.90039 10 6.90039C10.3314 6.90039 10.5996 7.16863 10.5996 7.5L10.5996 12.5C10.5996 12.8314 10.3314 13.0996 10 13.0996C9.66863 13.0996 9.40039 12.8314 9.40039 12.5Z" fill="black"/>
</g>
</g>
</svg>
