<svg width="20" height="20" viewBox="0 0 20 20" fill="none" xmlns="http://www.w3.org/2000/svg">
<g id="type=normal, icon=circle_information_line">
<g id="component_1">
<path d="M10.75 9C11.0261 9 11.25 9.22386 11.25 9.5C11.25 9.77614 11.0261 10 10.75 10H10.5V13H11C11.2761 13 11.5 13.2239 11.5 13.5C11.5 13.7761 11.2761 14 11 14H9C8.72386 14 8.5 13.7761 8.5 13.5C8.5 13.2239 8.72386 13 9 13H9.5V10H9.25C8.97386 10 8.75 9.77614 8.75 9.5C8.75 9.22386 8.97386 9 9.25 9H10.75Z" fill="black"/>
<path d="M10 6C10.5523 6 11 6.44772 11 7C11 7.55228 10.5523 8 10 8C9.44772 8 9 7.55228 9 7C9 6.44772 9.44772 6 10 6Z" fill="black"/>
<path fill-rule="evenodd" clip-rule="evenodd" d="M10 3.40039C13.6451 3.40039 16.5996 6.35492 16.5996 10C16.5996 13.6451 13.6451 16.5996 10 16.5996C6.35492 16.5996 3.40039 13.6451 3.40039 10C3.40039 6.35492 6.35492 3.40039 10 3.40039ZM10 4.59961C7.01766 4.59961 4.59961 7.01766 4.59961 10C4.59961 12.9823 7.01766 15.4004 10 15.4004C12.9823 15.4004 15.4004 12.9823 15.4004 10C15.4004 7.01766 12.9823 4.59961 10 4.59961Z" fill="black"/>
</g>
</g>
</svg>
