<svg width="20" height="20" viewBox="0 0 20 20" fill="none" xmlns="http://www.w3.org/2000/svg">
<g id="type=normal, icon=text">
<g id="component_1">
<path fill-rule="evenodd" clip-rule="evenodd" d="M7.06517 4.40613C7.08173 4.40796 7.09845 4.40873 7.11498 4.41199C7.13773 4.41645 7.15938 4.42449 7.18139 4.43152C7.19483 4.43582 7.20909 4.43792 7.2224 4.44324L7.23607 4.4491C7.25712 4.45812 7.27671 4.46995 7.29662 4.48132C7.30874 4.48823 7.32127 4.49418 7.33275 4.50183C7.38736 4.53826 7.43461 4.58489 7.47533 4.63855C7.4822 4.6476 7.49049 4.65552 7.49682 4.66492C7.50427 4.676 7.50958 4.68839 7.51635 4.70007C7.53036 4.72424 7.54391 4.74845 7.55443 4.77429L7.55639 4.77722L11.5564 14.7772C11.6793 15.0848 11.53 15.4335 11.2224 15.5565C10.9148 15.6794 10.5662 15.53 10.4431 15.2225L8.99389 11.5995H5.0056L3.55639 15.2225C3.43326 15.5301 3.0847 15.6796 2.77709 15.5565C2.46964 15.4334 2.32019 15.0848 2.4431 14.7772L6.4431 4.77722C6.44414 4.77464 6.44497 4.77197 6.44603 4.76941C6.47171 4.70772 6.50943 4.65179 6.55443 4.60144C6.56123 4.59384 6.56682 4.58521 6.57396 4.578L6.57787 4.5741C6.58508 4.56696 6.59371 4.56136 6.60131 4.55457C6.65165 4.50955 6.7076 4.47187 6.76928 4.44617C6.77183 4.4451 6.77451 4.44427 6.77709 4.44324C6.79073 4.43778 6.80531 4.43494 6.81908 4.43054C6.8407 4.42366 6.86217 4.41639 6.88451 4.41199C6.90072 4.40878 6.91711 4.40796 6.93334 4.40613C6.95152 4.40408 6.96961 4.40064 6.98803 4.40027H7.01146C7.02955 4.40062 7.04731 4.40416 7.06517 4.40613ZM5.4851 10.4003H8.51439L6.99877 6.61316L5.4851 10.4003Z" fill="black"/>
<path fill-rule="evenodd" clip-rule="evenodd" d="M16.9997 9.40027C17.3311 9.40027 17.5993 9.66856 17.5994 9.99988V14.9999C17.5994 15.3312 17.3311 15.5995 16.9997 15.5995C16.6685 15.5994 16.4001 15.3312 16.4001 14.9999V14.9442C15.875 15.353 15.2169 15.5995 14.4997 15.5995C12.7878 15.5994 11.4001 14.2119 11.4001 12.4999C11.4002 10.7879 12.7878 9.4004 14.4997 9.40027C15.2167 9.40027 15.8751 9.64603 16.4001 10.0546V9.99988C16.4002 9.66864 16.6685 9.4004 16.9997 9.40027ZM14.4997 10.5995C13.4506 10.5996 12.5994 11.4507 12.5994 12.4999C12.5994 13.5491 13.4505 14.4001 14.4997 14.4003C15.5491 14.4003 16.4001 13.5492 16.4001 12.4999C16.4001 11.4506 15.549 10.5995 14.4997 10.5995Z" fill="black"/>
</g>
</g>
</svg>
