<svg width="20" height="20" viewBox="0 0 20 20" fill="none" xmlns="http://www.w3.org/2000/svg">
<g id="type=normal, icon=ai">
<g id="component_1">
<path d="M9.16288 6.65323C9.43147 7.72827 10.2708 8.56771 11.3458 8.83646L13.2235 9.3059C13.4256 9.3564 13.4255 9.6435 13.2235 9.69397L11.3464 10.1629C10.2711 10.4315 9.43145 11.2711 9.16284 12.3464L8.69394 14.2235C8.64347 14.4256 8.35637 14.4256 8.30587 14.2236L7.83643 12.3458C7.56768 11.2708 6.72824 10.4315 5.65319 10.1629L3.77628 9.69396C3.57427 9.64349 3.57424 9.35641 3.77624 9.3059L5.65375 8.83643C6.7285 8.56769 7.56766 7.72853 7.8364 6.65378L8.30587 4.77627C8.35638 4.57427 8.64346 4.5743 8.69393 4.77631L9.16288 6.65323Z" fill="black"/>
<path d="M13.1845 11.7385C13.44 12.7611 14.2387 13.5597 15.2613 13.8153C15.4535 13.8634 15.4536 14.1365 15.2614 14.1845C14.2386 14.44 13.44 15.2386 13.1845 16.2614C13.1365 16.4536 12.8633 16.4535 12.8153 16.2613C12.5597 15.2387 11.7611 14.44 10.7384 14.1845C10.5463 14.1365 10.5463 13.8634 10.7384 13.8154C11.761 13.5597 12.5596 12.7611 12.8153 11.7385C12.8634 11.5463 13.1365 11.5463 13.1845 11.7385Z" fill="black"/>
<path d="M11.5922 3.36923C11.72 3.88055 12.1193 4.27985 12.6306 4.40767C12.7267 4.43169 12.7268 4.56825 12.6307 4.59225C12.1193 4.72 11.72 5.11931 11.5922 5.63072C11.5682 5.7268 11.4317 5.72674 11.4076 5.63067C11.2798 5.11937 10.8805 4.72001 10.3692 4.59226C10.2731 4.56825 10.2731 4.4317 10.3692 4.40768C10.8805 4.27983 11.2798 3.88054 11.4076 3.36924C11.4317 3.27317 11.5682 3.27315 11.5922 3.36923Z" fill="black"/>
</g>
</g>
</svg>
