<svg width="20" height="20" viewBox="0 0 20 20" fill="none" xmlns="http://www.w3.org/2000/svg">
<g id="type=normal, icon=rectangle_fitscreen_arrow">
<path id="component_2" d="M9.78067 6.66643C9.9359 6.56414 10.147 6.58062 10.2836 6.71721L11.2836 7.71721C11.4394 7.87345 11.4397 8.12754 11.2836 8.28361C11.1275 8.43968 10.8734 8.4394 10.7172 8.28361L10.4018 7.96818L10.4047 9.60002H14.0336L13.7172 9.28361C13.561 9.12741 13.561 8.87342 13.7172 8.71721C13.8734 8.561 14.1274 8.561 14.2836 8.71721L15.2836 9.71721L15.3344 9.78068C15.4364 9.93588 15.4201 10.1471 15.2836 10.2836L14.2836 11.2836C14.1275 11.4397 13.8734 11.4394 13.7172 11.2836C13.561 11.1274 13.561 10.8734 13.7172 10.7172L14.0336 10.4008H10.4066L10.4086 12.0248L10.7172 11.7172C10.8734 11.561 11.1274 11.561 11.2836 11.7172C11.4394 11.8734 11.4397 12.1275 11.2836 12.2836L10.2836 13.2836L10.2201 13.3344C10.065 13.4367 9.85383 13.4199 9.71719 13.2836L8.71719 12.2836C8.56099 12.1274 8.561 11.8734 8.71719 11.7172C8.8734 11.561 9.12739 11.561 9.2836 11.7172L9.60782 12.0414L9.60586 10.4008H5.96719L6.2836 10.7172C6.43938 10.8734 6.43965 11.1275 6.2836 11.2836C6.12753 11.4397 5.87344 11.4394 5.71719 11.2836L4.71719 10.2836L4.66641 10.2201C4.56405 10.0649 4.58057 9.85383 4.71719 9.71721L5.71719 8.71721C5.8734 8.56101 6.12739 8.561 6.2836 8.71721C6.43938 8.87345 6.43965 9.12754 6.2836 9.28361L5.96719 9.60002H9.60391L9.60098 7.96525L9.2836 8.28361C9.12753 8.43968 8.87344 8.4394 8.71719 8.28361C8.56098 8.1274 8.56098 7.87342 8.71719 7.71721L9.71719 6.71721L9.78067 6.66643Z" fill="black"/>
<path id="component_1" d="M16.4 8C16.4 6.67452 15.3251 5.59961 13.9996 5.59961H5.99963C4.67415 5.59961 3.59924 6.67452 3.59924 8V12C3.59924 13.3255 4.67415 14.4004 5.99963 14.4004H13.9996C15.3251 14.4004 16.4 13.3255 16.4 12V8ZM17.5992 12C17.5992 13.9882 15.9879 15.5996 13.9996 15.5996H5.99963C4.01141 15.5996 2.40002 13.9882 2.40002 12V8C2.40002 6.01178 4.01141 4.40039 5.99963 4.40039H13.9996C15.9879 4.40039 17.5992 6.01178 17.5992 8V12Z" fill="black"/>
</g>
</svg>
