<svg width="20" height="20" viewBox="0 0 20 20" fill="none" xmlns="http://www.w3.org/2000/svg">
<g id="type=normal, icon=circle_people_fill">
<path id="component_1" fill-rule="evenodd" clip-rule="evenodd" d="M10 3.40039C13.6451 3.40039 16.5996 6.35492 16.5996 10C16.5996 13.6451 13.6451 16.5996 10 16.5996C6.35492 16.5996 3.40039 13.6451 3.40039 10C3.40039 6.35492 6.35492 3.40039 10 3.40039ZM8.37793 10.4102C7.14661 10.4103 6.04204 10.9535 5.29004 11.8125C5.17005 11.9498 5.17009 12.1537 5.29004 12.291C6.04204 13.15 7.14661 13.6932 8.37793 13.6934C9.60933 13.6933 10.7138 13.15 11.4658 12.291C11.586 12.1536 11.586 11.9499 11.4658 11.8125C10.7138 10.9535 9.6093 10.4102 8.37793 10.4102ZM12.6572 10.3281C12.2474 10.3282 11.8548 10.4037 11.4932 10.541C11.741 10.7357 11.9716 10.9519 12.1787 11.1885C12.6114 11.6829 12.6112 12.4206 12.1787 12.915L12.1748 12.918C12.3321 12.9412 12.4935 12.9551 12.6572 12.9551C13.6423 12.955 14.5263 12.5202 15.1279 11.833C15.2239 11.7232 15.2238 11.5601 15.1279 11.4502C14.5263 10.763 13.6423 10.3282 12.6572 10.3281ZM12.6582 7.04492C11.933 7.04496 11.3448 7.6332 11.3447 8.3584C11.3447 9.08363 11.933 9.67184 12.6582 9.67188C13.3834 9.67175 13.9717 9.08357 13.9717 8.3584C13.9716 7.63326 13.3833 7.04505 12.6582 7.04492ZM8.37891 6.30664C7.47242 6.30674 6.7373 7.04174 6.7373 7.94824C6.73737 8.85469 7.47246 9.58975 8.37891 9.58984C9.28533 9.58972 10.0204 8.85468 10.0205 7.94824C10.0205 7.04175 9.28537 6.30677 8.37891 6.30664Z" fill="black"/>
</g>
</svg>
