<svg width="20" height="20" viewBox="0 0 20 20" fill="none" xmlns="http://www.w3.org/2000/svg">
<g id="type=normal, icon=square_calendar_end">
<path id="component_2" fill-rule="evenodd" clip-rule="evenodd" d="M12.0251 12.025C13.3918 10.6582 15.6084 10.6584 16.9753 12.025C18.3419 13.3918 18.3421 15.6084 16.9753 16.9752C15.6085 18.3418 13.3919 18.3417 12.0251 16.9752C10.6586 15.6083 10.6585 13.3917 12.0251 12.025ZM13.3396 12.1998C13.1525 12.2001 13 12.3525 12.9997 12.5396V16.3599C12.9999 16.5471 13.1524 16.6994 13.3396 16.6998C13.527 16.6998 13.6792 16.5473 13.6794 16.3599V14.7467L16.6511 13.6324C16.798 13.5773 16.798 13.3691 16.6511 13.314L13.8493 12.2633C13.7372 12.2213 13.6175 12.1998 13.4978 12.1998H13.3396Z" fill="black"/>
<g id="component_1">
<path d="M13.6006 3.40039C15.2572 3.40069 16.6006 4.74372 16.6006 6.40039V10.5195C16.2283 10.3227 15.8253 10.1761 15.4004 10.0898V8C15.4002 7.00627 14.5943 6.20053 13.6006 6.2002H6.40039C5.4064 6.2002 4.60079 7.00606 4.60059 8V13.6006C4.6009 14.5944 5.40647 15.4004 6.40039 15.4004H10.0908C10.1771 15.8254 10.3236 16.2283 10.5205 16.6006H6.40039C4.74372 16.6006 3.40069 15.2572 3.40039 13.6006V6.40039C3.40039 4.74354 4.74354 3.40039 6.40039 3.40039H13.6006Z" fill="black"/>
<path d="M7.5 12.6006C7.77597 12.6008 8 12.8246 8 13.1006V13.7002C7.9998 13.976 7.77585 14.2 7.5 14.2002H6.90039C6.62437 14.2002 6.40059 13.9762 6.40039 13.7002V13.1006C6.40039 12.8244 6.62425 12.6006 6.90039 12.6006H7.5Z" fill="black"/>
<path d="M10.3008 12.6006C10.3395 12.6006 10.3769 12.6059 10.4131 12.6143C10.1877 13.102 10.0478 13.637 10.0107 14.2002H9.7002C9.42426 14.2001 9.20039 13.9761 9.2002 13.7002V13.1006C9.2002 12.8245 9.42414 12.6007 9.7002 12.6006H10.3008Z" fill="black"/>
<path d="M7.5 10C7.77585 10.0002 7.9998 10.2241 8 10.5V11.1006C7.99968 11.3763 7.77578 11.6004 7.5 11.6006H6.90039C6.62444 11.6006 6.40071 11.3765 6.40039 11.1006V10.5C6.40059 10.224 6.62437 10 6.90039 10H7.5Z" fill="black"/>
<path d="M10.3008 10C10.5765 10.0004 10.8006 10.2243 10.8008 10.5V11.1006C10.8005 11.3762 10.5764 11.6002 10.3008 11.6006H9.7002C9.42434 11.6005 9.20051 11.3764 9.2002 11.1006V10.5C9.20039 10.2241 9.42426 10.0001 9.7002 10H10.3008Z" fill="black"/>
<path d="M13.1006 10C13.228 10.0001 13.3433 10.0493 13.4316 10.1279C12.9135 10.2541 12.4305 10.4696 12 10.7578V10.5C12.0002 10.2242 12.2242 10.0002 12.5 10H13.1006Z" fill="black"/>
<path d="M10.3008 7.40039C10.5766 7.4008 10.8008 7.6245 10.8008 7.90039V8.5C10.8006 8.77572 10.5765 8.99959 10.3008 9H9.7002C9.42427 8.99989 9.20039 8.77591 9.2002 8.5V7.90039C9.2002 7.62431 9.42414 7.4005 9.7002 7.40039H10.3008Z" fill="black"/>
<path d="M13.1006 7.40039C13.3765 7.40069 13.6006 7.62444 13.6006 7.90039V8.5C13.6004 8.77579 13.3763 8.9997 13.1006 9H12.5C12.2242 8.99979 12.0002 8.77584 12 8.5V7.90039C12 7.62438 12.224 7.4006 12.5 7.40039H13.1006Z" fill="black"/>
</g>
</g>
</svg>
