<svg width="20" height="20" viewBox="0 0 20 20" fill="none" xmlns="http://www.w3.org/2000/svg">
<g id="type=normal, icon=star_line">
<path id="component_1" d="M9.12502 3.73241C9.52189 2.99817 10.6524 3.05048 10.9444 3.88963L12.0752 7.14256L15.5196 7.21385C16.4672 7.23352 16.858 8.43703 16.1026 9.00975L13.3574 11.0908L14.3555 14.3877C14.63 15.2952 13.6054 16.0396 12.8272 15.498L10 13.5303L7.17288 15.498C6.39464 16.0396 5.37 15.2952 5.64456 14.3877L6.64163 11.0908L3.89748 9.00975C3.14207 8.43703 3.53288 7.23352 4.48049 7.21385L7.92385 7.14256L9.05569 3.88963L9.12502 3.73241ZM9.01272 7.66893C8.87539 8.064 8.50608 8.33131 8.08791 8.33983L5.0801 8.40038L7.47756 10.2187C7.81086 10.4714 7.9522 10.9053 7.83108 11.3057L6.95901 14.1846L9.42873 12.4668L9.56252 12.3877C9.83832 12.2535 10.1617 12.2535 10.4375 12.3877L10.5713 12.4668L13.0401 14.1846L12.169 11.3057C12.0479 10.9053 12.1892 10.4714 12.5225 10.2187L14.919 8.40038L11.9121 8.33983C11.494 8.33131 11.1247 8.064 10.9873 7.66893L10 4.82616L9.01272 7.66893Z" fill="black"/>
</g>
</svg>
