<svg width="20" height="20" viewBox="0 0 20 20" fill="none" xmlns="http://www.w3.org/2000/svg">
<g id="type=normal, icon=model">
<path id="component_1" fill-rule="evenodd" clip-rule="evenodd" d="M9.62012 4.12689C9.86644 4.04478 10.1336 4.04478 10.3799 4.12689L11.9531 4.6513C12.2797 4.76026 12.5 5.06583 12.5 5.41009V7.58978C12.5 7.93403 12.2797 8.2396 11.9531 8.34857L11.7139 8.42767L13.5674 11.3105L14.1201 11.1269C14.3664 11.0448 14.6336 11.0448 14.8799 11.1269L16.4531 11.6513C16.7797 11.7603 17 12.0658 17 12.4101V14.5898C17 14.934 16.7797 15.2396 16.4531 15.3486L14.8799 15.874C14.6336 15.9561 14.3664 15.9561 14.1201 15.874L12.5469 15.3486C12.2203 15.2396 12 14.934 12 14.5898V13.9003H8V14.5898C8 14.934 7.77966 15.2396 7.45312 15.3486L5.87988 15.874C5.63356 15.9561 5.36644 15.9561 5.12012 15.874L3.54688 15.3486C3.22034 15.2396 3 14.934 3 14.5898V12.4101C3 12.0658 3.22032 11.7603 3.54688 11.6513L5.12012 11.1269C5.36644 11.0448 5.63356 11.0448 5.87988 11.1269L6.43164 11.3105L8.28516 8.42767L8.04688 8.34857C7.72034 8.2396 7.5 7.93403 7.5 7.58978V5.41009C7.5 5.06583 7.72032 4.76026 8.04688 4.6513L9.62012 4.12689ZM10.3799 8.87396C10.1336 8.95606 9.86644 8.95606 9.62012 8.87396L9.06738 8.68939L7.21484 11.5712L7.45312 11.6513C7.77968 11.7603 8 12.0658 8 12.4101V13.0995H12V12.4101C12 12.0658 12.2203 11.7603 12.5469 11.6513L12.7842 11.5712L10.9316 8.68939L10.3799 8.87396Z" fill="black"/>
</g>
</svg>
