<svg width="20" height="20" viewBox="0 0 20 20" fill="none" xmlns="http://www.w3.org/2000/svg">
<g id="type=normal, icon=text_strikethrough">
<g id="component_1">
<path d="M13.2119 11C13.4583 11.4446 13.5996 11.9556 13.5996 12.5C13.5996 14.2121 12.2121 15.5996 10.5 15.5996H9.5C7.78792 15.5996 6.40039 14.2121 6.40039 12.5C6.40039 12.1686 6.66863 11.9004 7 11.9004C7.33137 11.9004 7.59961 12.1686 7.59961 12.5C7.59961 13.5493 8.45066 14.4004 9.5 14.4004H10.5C11.5493 14.4004 12.4004 13.5493 12.4004 12.5C12.4004 11.8897 12.1114 11.3477 11.6641 11H13.2119Z" fill="black"/>
<path d="M10.5 4.40039C12.2121 4.40039 13.5996 5.78792 13.5996 7.5C13.5996 7.83137 13.3314 8.09961 13 8.09961C12.6686 8.09961 12.4004 7.83137 12.4004 7.5C12.4004 6.45066 11.5493 5.59961 10.5 5.59961H9.5C8.45066 5.59961 7.59961 6.45066 7.59961 7.5C7.59961 8.11034 7.88855 8.65227 8.33594 9H6.78809C6.54169 8.55541 6.40039 8.04439 6.40039 7.5C6.40039 5.78792 7.78792 4.40039 9.5 4.40039H10.5Z" fill="black"/>
<path d="M5 10.5C4.72386 10.5 4.5 10.2761 4.5 10C4.5 9.72386 4.72386 9.5 5 9.5H15C15.2761 9.5 15.5 9.72386 15.5 10C15.5 10.2761 15.2761 10.5 15 10.5H5Z" fill="black"/>
</g>
</g>
</svg>
