<svg width="20" height="20" viewBox="0 0 20 20" fill="none" xmlns="http://www.w3.org/2000/svg">
<g id="type=normal, icon=line_list">
<g id="component_1">
<path d="M16 5.40039C16.3314 5.40039 16.5996 5.66863 16.5996 6C16.5996 6.33137 16.3314 6.59961 16 6.59961H7.40002C7.06865 6.59961 6.80042 6.33137 6.80042 6C6.80042 5.66863 7.06865 5.40039 7.40002 5.40039H16Z" fill="black"/>
<path d="M16 9.40039C16.3314 9.40039 16.5996 9.66863 16.5996 10C16.5996 10.3314 16.3314 10.5996 16 10.5996H7.40002C7.06865 10.5996 6.80042 10.3314 6.80042 10C6.80042 9.66863 7.06865 9.40039 7.40002 9.40039H16Z" fill="black"/>
<path d="M16 13.4004C16.3314 13.4004 16.5996 13.6686 16.5996 14C16.5996 14.3314 16.3314 14.5996 16 14.5996H7.40002C7.06865 14.5996 6.80042 14.3314 6.80042 14C6.80042 13.6686 7.06865 13.4004 7.40002 13.4004H16Z" fill="black"/>
<path d="M5.40002 14C5.40002 14.5523 4.95231 15 4.40002 15C3.84774 15 3.40002 14.5523 3.40002 14C3.40002 13.4477 3.84774 13 4.40002 13C4.95231 13 5.40002 13.4477 5.40002 14Z" fill="black"/>
<path d="M5.40002 10C5.40002 10.5523 4.95231 11 4.40002 11C3.84774 11 3.40002 10.5523 3.40002 10C3.40002 9.44772 3.84774 9 4.40002 9C4.95231 9 5.40002 9.44772 5.40002 10Z" fill="black"/>
<path d="M5.40002 6C5.40002 6.55228 4.95231 7 4.40002 7C3.84774 7 3.40002 6.55228 3.40002 6C3.40002 5.44772 3.84774 5 4.40002 5C4.95231 5 5.40002 5.44772 5.40002 6Z" fill="black"/>
</g>
</g>
</svg>
