<svg width="20" height="20" viewBox="0 0 20 20" fill="none" xmlns="http://www.w3.org/2000/svg">
<g id="type=normal, icon=message_quote">
<g id="component_2">
<path d="M8.74023 7C9.0492 7.00013 9.29946 7.25066 9.2998 7.55957V9.24023C9.29968 9.54933 9.04933 9.79968 8.74023 9.7998H7.59961C7.59985 10.2452 7.80947 10.6422 8.13379 10.8984C8.05778 10.9112 7.98003 10.9199 7.90039 10.9199C7.12739 10.9199 6.50032 10.2934 6.5 9.52051V7.55957C6.50034 7.25073 6.7507 7.00023 7.05957 7H8.74023Z" fill="black"/>
<path d="M12.0996 7C12.8726 7 13.4997 7.62649 13.5 8.39941V10.3604C13.4998 10.6693 13.2494 10.9197 12.9404 10.9199H11.2598C10.9507 10.9198 10.7004 10.6694 10.7002 10.3604V8.67969C10.7003 8.3706 10.9507 8.12025 11.2598 8.12012H12.4004C12.4001 7.6747 12.1906 7.27773 11.8662 7.02148C11.9422 7.00869 12.02 7.00002 12.0996 7Z" fill="black"/>
</g>
<path id="component_1" fill-rule="evenodd" clip-rule="evenodd" d="M12.5 3.90039C13.1907 3.90039 13.7391 3.89943 14.1826 3.92969C14.6314 3.96033 15.0171 4.02435 15.3779 4.17383C16.2599 4.53921 16.9608 5.2401 17.3262 6.12207C17.4757 6.48295 17.5397 6.86859 17.5703 7.31739C17.6006 7.76092 17.5996 8.3093 17.5996 9C17.5996 9.6907 17.6006 10.2391 17.5703 10.6826C17.5397 11.1314 17.4757 11.5171 17.3262 11.8779C16.9608 12.7599 16.2599 13.4608 15.3779 13.8262C15.0171 13.9757 14.6314 14.0397 14.1826 14.0703C13.7391 14.1006 13.1907 14.0996 12.5 14.0996H10.1152L5.22266 16.0566C4.99139 16.1492 4.72727 16.0895 4.5586 15.9063C4.38993 15.7229 4.35149 15.4543 4.46289 15.2314L5.08692 13.9824C3.54101 13.5783 2.40039 12.1727 2.40039 10.5V9C2.40039 8.3093 2.39943 7.76092 2.42969 7.31739C2.46033 6.86859 2.52435 6.48295 2.67383 6.12207C3.03921 5.2401 3.7401 4.53921 4.62207 4.17383C4.98295 4.02435 5.36859 3.96033 5.81739 3.92969C6.26092 3.89943 6.8093 3.90039 7.5 3.90039H12.5ZM7.5 5.09961C6.79291 5.09961 6.29262 5.10013 5.89942 5.12696C5.51198 5.15339 5.27231 5.20351 5.08203 5.28223C4.49397 5.52582 4.02582 5.99397 3.78223 6.58203C3.70351 6.77231 3.65339 7.01198 3.62696 7.39942C3.60013 7.79262 3.59961 8.29291 3.59961 9V10.5C3.59961 11.8255 4.67452 12.9004 6 12.9004C6.09044 12.9003 6.18224 12.9197 6.26856 12.9629C6.56494 13.1111 6.68531 13.4722 6.53711 13.7686L6.24219 14.3564L9.77735 12.9434C9.85045 12.9141 9.92586 12.9014 10 12.9014L12.5 12.9004C13.2071 12.9004 13.7074 12.8999 14.1006 12.8731C14.488 12.8466 14.7277 12.7965 14.918 12.7178C15.506 12.4742 15.9742 12.006 16.2178 11.418C16.2965 11.2277 16.3466 10.988 16.3731 10.6006C16.3999 10.2074 16.4004 9.70709 16.4004 9C16.4004 8.29291 16.3999 7.79262 16.3731 7.39942C16.3466 7.01198 16.2965 6.77231 16.2178 6.58203C15.9742 5.99397 15.506 5.52581 14.918 5.28223C14.7277 5.20352 14.488 5.15339 14.1006 5.12696C13.7074 5.10013 13.2071 5.09961 12.5 5.09961H7.5Z" fill="black"/>
</g>
</svg>
