<svg width="20" height="20" viewBox="0 0 20 20" fill="none" xmlns="http://www.w3.org/2000/svg">
<g id="type=normal, icon=arrow_left">
<path id="component_1" d="M6.51953 5.63977C6.71835 5.37467 7.09525 5.32083 7.36035 5.51965C7.6254 5.71848 7.67928 6.09539 7.48047 6.36047L5.2002 9.40051H16C16.3314 9.40051 16.5996 9.66875 16.5996 10.0001C16.5995 10.3314 16.3313 10.5997 16 10.5997H5.2002L7.48047 13.6398C7.67922 13.9049 7.62542 14.2818 7.36035 14.4806C7.09528 14.6793 6.71835 14.6255 6.51953 14.3605L3.51953 10.3605L3.50586 10.339C3.50181 10.3331 3.49895 10.3265 3.49512 10.3204L3.46777 10.2765C3.46354 10.2683 3.46087 10.2594 3.45703 10.2511C3.45122 10.2385 3.44538 10.226 3.44043 10.213C3.432 10.1909 3.42565 10.1684 3.41992 10.1456C3.41691 10.1336 3.41243 10.1218 3.41016 10.1095C3.40401 10.0766 3.40198 10.0432 3.40137 10.0099C3.40131 10.0066 3.40039 10.0034 3.40039 10.0001C3.40039 9.99657 3.40131 9.99291 3.40137 9.98938C3.40189 9.95569 3.40397 9.92203 3.41016 9.88879C3.41101 9.88421 3.41212 9.87967 3.41309 9.87512C3.42813 9.80357 3.45651 9.73439 3.49805 9.67102C3.50062 9.66709 3.50319 9.66316 3.50586 9.6593C3.51036 9.65278 3.51475 9.64615 3.51953 9.63977L6.51953 5.63977Z" fill="black"/>
</g>
</svg>
