<svg width="20" height="20" viewBox="0 0 20 20" fill="none" xmlns="http://www.w3.org/2000/svg">
<g id="type=normal, icon=line_settings">
<g id="component_1">
<path d="M10.5 12.5C11.1151 12.5 11.6425 12.8707 11.874 13.4004H16C16.3314 13.4004 16.5996 13.6686 16.5996 14C16.5996 14.3314 16.3314 14.5996 16 14.5996H11.874C11.6425 15.1293 11.1151 15.5 10.5 15.5C9.88494 15.5 9.35747 15.1293 9.12598 14.5996H4C3.66863 14.5996 3.40039 14.3314 3.40039 14C3.40039 13.6686 3.66863 13.4004 4 13.4004H9.12598C9.35747 12.8707 9.88494 12.5 10.5 12.5Z" fill="black"/>
<path d="M6.5 8.5C7.11506 8.5 7.64253 8.87067 7.87402 9.40039H16C16.3314 9.40039 16.5996 9.66863 16.5996 10C16.5996 10.3314 16.3314 10.5996 16 10.5996H7.87402C7.64253 11.1293 7.11506 11.5 6.5 11.5C5.88494 11.5 5.35747 11.1293 5.12598 10.5996H4C3.66863 10.5996 3.40039 10.3314 3.40039 10C3.40039 9.66863 3.66863 9.40039 4 9.40039H5.12598C5.35747 8.87067 5.88494 8.5 6.5 8.5Z" fill="black"/>
<path d="M13.5 4.5C14.1151 4.5 14.6425 4.87067 14.874 5.40039H16C16.3314 5.40039 16.5996 5.66863 16.5996 6C16.5996 6.33137 16.3314 6.59961 16 6.59961H14.874C14.6425 7.12933 14.1151 7.5 13.5 7.5C12.8849 7.5 12.3575 7.12933 12.126 6.59961H4C3.66863 6.59961 3.40039 6.33137 3.40039 6C3.40039 5.66863 3.66863 5.40039 4 5.40039H12.126C12.3575 4.87067 12.8849 4.5 13.5 4.5Z" fill="black"/>
</g>
</g>
</svg>
