<svg width="20" height="20" viewBox="0 0 20 20" fill="none" xmlns="http://www.w3.org/2000/svg">
<g id="type=normal, icon=text_bold">
<path id="component_1" fill-rule="evenodd" clip-rule="evenodd" d="M11 3.7998C13.0435 3.7998 14.7002 5.45655 14.7002 7.5C14.7002 8.46384 14.3314 9.3415 13.7275 10C14.3314 10.6585 14.7002 11.5362 14.7002 12.5C14.7002 14.5435 13.0435 16.2002 11 16.2002H6.5C5.83726 16.2002 5.2998 15.6627 5.2998 15V5C5.2998 4.33726 5.83726 3.7998 6.5 3.7998H11ZM7.7002 11.2002V13.7998H11C11.718 13.7998 12.2998 13.218 12.2998 12.5C12.2998 11.782 11.718 11.2002 11 11.2002H7.7002ZM7.7002 8.7998H11C11.718 8.7998 12.2998 8.21797 12.2998 7.5C12.2998 6.78203 11.718 6.2002 11 6.2002H7.7002V8.7998Z" fill="black"/>
</g>
</svg>
