<svg width="20" height="20" viewBox="0 0 20 20" fill="none" xmlns="http://www.w3.org/2000/svg">
<g id="type=normal, icon=grid_2x2_check">
<g id="component_2">
<path fill-rule="evenodd" clip-rule="evenodd" d="M7.5 10.5C8.60457 10.5 9.5 11.3954 9.5 12.5V14C9.5 15.1046 8.60457 16 7.5 16H6C4.89543 16 4 15.1046 4 14V12.5C4 11.3954 4.89543 10.5 6 10.5H7.5ZM6 11.5C5.44772 11.5 5 11.9477 5 12.5V14C5 14.5523 5.44772 15 6 15H7.5C8.05228 15 8.5 14.5523 8.5 14V12.5C8.5 11.9477 8.05228 11.5 7.5 11.5H6Z" fill="black"/>
<path fill-rule="evenodd" clip-rule="evenodd" d="M14 10.5C15.1046 10.5 16 11.3954 16 12.5V14C16 15.1046 15.1046 16 14 16H12.5C11.3954 16 10.5 15.1046 10.5 14V12.5C10.5 11.3954 11.3954 10.5 12.5 10.5H14ZM12.5 11.5C11.9477 11.5 11.5 11.9477 11.5 12.5V14C11.5 14.5523 11.9477 15 12.5 15H14C14.5523 15 15 14.5523 15 14V12.5C15 11.9477 14.5523 11.5 14 11.5H12.5Z" fill="black"/>
<path fill-rule="evenodd" clip-rule="evenodd" d="M14 4C15.1046 4 16 4.89543 16 6V7.5C16 8.60457 15.1046 9.5 14 9.5H12.5C11.3954 9.5 10.5 8.60457 10.5 7.5V6C10.5 4.89543 11.3954 4 12.5 4H14ZM12.5 5C11.9477 5 11.5 5.44772 11.5 6V7.5C11.5 8.05228 11.9477 8.5 12.5 8.5H14C14.5523 8.5 15 8.05228 15 7.5V6C15 5.44772 14.5523 5 14 5H12.5Z" fill="black"/>
</g>
<path id="component_1" fill-rule="evenodd" clip-rule="evenodd" d="M7.5 4C8.60457 4 9.5 4.89543 9.5 6V7.5C9.5 8.60457 8.60457 9.5 7.5 9.5H6C4.89543 9.5 4 8.60457 4 7.5V6C4 4.89543 4.89543 4 6 4H7.5ZM7.88086 5.69922C7.76975 5.627 7.62108 5.65845 7.54883 5.76953L6.42285 7.50391L5.93066 6.94238C5.84338 6.84263 5.69155 6.83264 5.5918 6.91992C5.49238 7.00726 5.48216 7.15916 5.56934 7.25879L6.26953 8.05859C6.31898 8.11486 6.39207 8.14489 6.4668 8.13965C6.52279 8.13565 6.57533 8.11206 6.61523 8.07422L6.65137 8.03125L7.95117 6.03125C8.02336 5.9202 7.99179 5.77152 7.88086 5.69922Z" fill="black"/>
</g>
</svg>
