<svg width="20" height="20" viewBox="0 0 20 20" fill="none" xmlns="http://www.w3.org/2000/svg">
<g id="type=normal, icon=circle_question">
<g id="component_1">
<path d="M10 12.0996C10.4139 12.0998 10.7498 12.4357 10.75 12.8496C10.7498 13.2635 10.4139 13.5994 10 13.5996C9.58591 13.5996 9.2502 13.2637 9.25 12.8496C9.25021 12.4356 9.58592 12.0996 10 12.0996Z" fill="black"/>
<path d="M10 6.40039C11.0761 6.40057 12.0995 7.17297 12.0996 8.2998C12.0995 8.8586 11.8351 9.34549 11.4453 9.67969C11.1933 9.89561 10.9754 10.081 10.8125 10.2803C10.6542 10.474 10.5996 10.6204 10.5996 10.7432V10.9004C10.5992 11.2313 10.3309 11.4998 10 11.5C9.66888 11.5 9.4008 11.2314 9.40039 10.9004V10.7432C9.40039 10.2348 9.63371 9.82642 9.88281 9.52148C10.1273 9.22219 10.4369 8.96318 10.6641 8.76855C10.8238 8.63165 10.9003 8.46381 10.9004 8.2998C10.9003 7.99103 10.5802 7.59977 10 7.59961C9.41958 7.59961 9.09974 7.99097 9.09961 8.2998C9.09941 8.63089 8.83108 8.90019 8.5 8.90039C8.16875 8.90039 7.90059 8.63101 7.90039 8.2998C7.90051 7.17284 8.92375 6.40039 10 6.40039Z" fill="black"/>
<path fill-rule="evenodd" clip-rule="evenodd" d="M10 3.40039C13.6451 3.40039 16.5996 6.35492 16.5996 10C16.5996 13.6451 13.6451 16.5996 10 16.5996C6.35492 16.5996 3.40039 13.6451 3.40039 10C3.40039 6.35492 6.35492 3.40039 10 3.40039ZM10 4.59961C7.01766 4.59961 4.59961 7.01766 4.59961 10C4.59961 12.9823 7.01766 15.4004 10 15.4004C12.9823 15.4004 15.4004 12.9823 15.4004 10C15.4004 7.01766 12.9823 4.59961 10 4.59961Z" fill="black"/>
</g>
</g>
</svg>
