<svg width="20" height="20" viewBox="0 0 20 20" fill="none" xmlns="http://www.w3.org/2000/svg">
<g id="type=normal, icon=grid_3x3_1">
<g id="component_2">
<path fill-rule="evenodd" clip-rule="evenodd" d="M6 12.5996C6.7732 12.5996 7.40039 13.2268 7.40039 14V15C7.40039 15.7732 6.7732 16.4004 6 16.4004H5C4.2268 16.4004 3.59961 15.7732 3.59961 15V14C3.59961 13.2268 4.2268 12.5996 5 12.5996H6ZM5 13.4004C4.66863 13.4004 4.40039 13.6686 4.40039 14V15C4.40039 15.3314 4.66863 15.5996 5 15.5996H6C6.33137 15.5996 6.59961 15.3314 6.59961 15V14C6.59961 13.6686 6.33137 13.4004 6 13.4004H5Z" fill="black"/>
<path fill-rule="evenodd" clip-rule="evenodd" d="M10.5 12.5996C11.2732 12.5996 11.9004 13.2268 11.9004 14V15C11.9004 15.7732 11.2732 16.4004 10.5 16.4004H9.5C8.7268 16.4004 8.09961 15.7732 8.09961 15V14C8.09961 13.2268 8.7268 12.5996 9.5 12.5996H10.5ZM9.5 13.4004C9.16863 13.4004 8.90039 13.6686 8.90039 14V15C8.90039 15.3314 9.16863 15.5996 9.5 15.5996H10.5C10.8314 15.5996 11.0996 15.3314 11.0996 15V14C11.0996 13.6686 10.8314 13.4004 10.5 13.4004H9.5Z" fill="black"/>
<path fill-rule="evenodd" clip-rule="evenodd" d="M15 12.5996C15.7732 12.5996 16.4004 13.2268 16.4004 14V15C16.4004 15.7732 15.7732 16.4004 15 16.4004H14C13.2268 16.4004 12.5996 15.7732 12.5996 15V14C12.5996 13.2268 13.2268 12.5996 14 12.5996H15ZM14 13.4004C13.6686 13.4004 13.4004 13.6686 13.4004 14V15C13.4004 15.3314 13.6686 15.5996 14 15.5996H15C15.3314 15.5996 15.5996 15.3314 15.5996 15V14C15.5996 13.6686 15.3314 13.4004 15 13.4004H14Z" fill="black"/>
<path fill-rule="evenodd" clip-rule="evenodd" d="M6 8.09961C6.7732 8.09961 7.40039 8.7268 7.40039 9.5V10.5C7.40039 11.2732 6.7732 11.9004 6 11.9004H5C4.2268 11.9004 3.59961 11.2732 3.59961 10.5V9.5C3.59961 8.7268 4.2268 8.09961 5 8.09961H6ZM5 8.90039C4.66863 8.90039 4.40039 9.16863 4.40039 9.5V10.5C4.40039 10.8314 4.66863 11.0996 5 11.0996H6C6.33137 11.0996 6.59961 10.8314 6.59961 10.5V9.5C6.59961 9.16863 6.33137 8.90039 6 8.90039H5Z" fill="black"/>
<path fill-rule="evenodd" clip-rule="evenodd" d="M10.5 8.09961C11.2732 8.09961 11.9004 8.7268 11.9004 9.5V10.5C11.9004 11.2732 11.2732 11.9004 10.5 11.9004H9.5C8.7268 11.9004 8.09961 11.2732 8.09961 10.5V9.5C8.09961 8.7268 8.7268 8.09961 9.5 8.09961H10.5ZM9.5 8.90039C9.16863 8.90039 8.90039 9.16863 8.90039 9.5V10.5C8.90039 10.8314 9.16863 11.0996 9.5 11.0996H10.5C10.8314 11.0996 11.0996 10.8314 11.0996 10.5V9.5C11.0996 9.16863 10.8314 8.90039 10.5 8.90039H9.5Z" fill="black"/>
<path fill-rule="evenodd" clip-rule="evenodd" d="M15 8.09961C15.7732 8.09961 16.4004 8.7268 16.4004 9.5V10.5C16.4004 11.2732 15.7732 11.9004 15 11.9004H14C13.2268 11.9004 12.5996 11.2732 12.5996 10.5V9.5C12.5996 8.7268 13.2268 8.09961 14 8.09961H15ZM14 8.90039C13.6686 8.90039 13.4004 9.16863 13.4004 9.5V10.5C13.4004 10.8314 13.6686 11.0996 14 11.0996H15C15.3314 11.0996 15.5996 10.8314 15.5996 10.5V9.5C15.5996 9.16863 15.3314 8.90039 15 8.90039H14Z" fill="black"/>
<path fill-rule="evenodd" clip-rule="evenodd" d="M10.5 3.59961C11.2732 3.59961 11.9004 4.2268 11.9004 5V6C11.9004 6.7732 11.2732 7.40039 10.5 7.40039H9.5C8.7268 7.40039 8.09961 6.7732 8.09961 6V5C8.09961 4.2268 8.7268 3.59961 9.5 3.59961H10.5ZM9.5 4.40039C9.16863 4.40039 8.90039 4.66863 8.90039 5V6C8.90039 6.33137 9.16863 6.59961 9.5 6.59961H10.5C10.8314 6.59961 11.0996 6.33137 11.0996 6V5C11.0996 4.66863 10.8314 4.40039 10.5 4.40039H9.5Z" fill="black"/>
<path fill-rule="evenodd" clip-rule="evenodd" d="M15 3.59961C15.7732 3.59961 16.4004 4.2268 16.4004 5V6C16.4004 6.7732 15.7732 7.40039 15 7.40039H14C13.2268 7.40039 12.5996 6.7732 12.5996 6V5C12.5996 4.2268 13.2268 3.59961 14 3.59961H15ZM14 4.40039C13.6686 4.40039 13.4004 4.66863 13.4004 5V6C13.4004 6.33137 13.6686 6.59961 14 6.59961H15C15.3314 6.59961 15.5996 6.33137 15.5996 6V5C15.5996 4.66863 15.3314 4.40039 15 4.40039H14Z" fill="black"/>
</g>
<path id="component_1" d="M6 3.40039C6.88366 3.40039 7.59961 4.11634 7.59961 5V6C7.59961 6.88366 6.88366 7.59961 6 7.59961H5C4.11634 7.59961 3.40039 6.88366 3.40039 6V5C3.40039 4.11634 4.11634 3.40039 5 3.40039H6Z" fill="black"/>
</g>
</svg>
