<svg width="20" height="20" viewBox="0 0 20 20" fill="none" xmlns="http://www.w3.org/2000/svg">
<g id="type=normal, icon=line_filter">
<g id="component_1">
<path d="M6 9.40039H14C14.3314 9.40039 14.5996 9.66863 14.5996 10C14.5996 10.3314 14.3314 10.5996 14 10.5996H6C5.66863 10.5996 5.40039 10.3314 5.40039 10C5.40039 9.66863 5.66863 9.40039 6 9.40039Z" fill="black"/>
<path d="M4 5.40039H16C16.3314 5.40039 16.5996 5.66863 16.5996 6C16.5996 6.33137 16.3314 6.59961 16 6.59961H4C3.66863 6.59961 3.40039 6.33137 3.40039 6C3.40039 5.66863 3.66863 5.40039 4 5.40039Z" fill="black"/>
<path d="M8 13.4004H12C12.3314 13.4004 12.5996 13.6686 12.5996 14C12.5996 14.3314 12.3314 14.5996 12 14.5996H8C7.66863 14.5996 7.40039 14.3314 7.40039 14C7.40039 13.6686 7.66863 13.4004 8 13.4004Z" fill="black"/>
</g>
</g>
</svg>
