<svg width="20" height="20" viewBox="0 0 20 20" fill="none" xmlns="http://www.w3.org/2000/svg">
<g id="type=normal, icon=message-upright">
<path id="component_2" fill-rule="evenodd" clip-rule="evenodd" d="M13.5 10C15.433 10 17 11.567 17 13.5C17 15.433 15.433 17 13.5 17C11.567 17 10 15.433 10 13.5C10 11.567 11.567 10 13.5 10ZM12.8994 11.9395C12.701 11.9398 12.5393 12.1014 12.5391 12.2998C12.5392 12.4983 12.7009 12.6598 12.8994 12.6602H13.8301L12.0449 14.4453C11.9051 14.5858 11.905 14.8147 12.0449 14.9551C12.1853 15.095 12.4132 15.0947 12.5537 14.9551L14.3398 13.1689V14.0996C14.34 14.2981 14.5008 14.4595 14.6992 14.46C14.898 14.46 15.0594 14.2983 15.0596 14.0996V12.2998C15.0595 12.2761 15.0574 12.2518 15.0527 12.2285C15.0336 12.134 14.9768 12.053 14.8994 12.001C14.8958 11.9986 14.8914 11.9964 14.8877 11.9941C14.8328 11.9603 14.7683 11.9395 14.6992 11.9395H12.8994Z" fill="black"/>
<path id="component_1" d="M12.5 3.90039C13.1907 3.90039 13.7391 3.89943 14.1826 3.92969C14.6314 3.96033 15.0171 4.02436 15.3779 4.17383C16.2599 4.5392 16.9608 5.24011 17.3262 6.12207C17.4757 6.48294 17.5397 6.8686 17.5703 7.31739C17.6006 7.76091 17.5996 8.30931 17.5996 9C17.5996 9.6907 17.6006 10.2391 17.5703 10.6826C17.553 10.9361 17.5216 11.1686 17.4736 11.3887C17.2012 10.877 16.8338 10.4237 16.3936 10.0537C16.3992 9.76053 16.4004 9.41607 16.4004 9C16.4004 8.29292 16.3999 7.79262 16.3731 7.39942C16.3466 7.01199 16.2965 6.7723 16.2178 6.58203C15.9742 5.99398 15.506 5.52581 14.918 5.28223C14.7277 5.20352 14.488 5.15339 14.1006 5.12696C13.7074 5.10013 13.2071 5.09961 12.5 5.09961H7.5C6.79292 5.09961 6.29262 5.10013 5.89942 5.12696C5.51199 5.15339 5.2723 5.20352 5.08203 5.28223C4.49398 5.52582 4.02582 5.99398 3.78223 6.58203C3.70352 6.7723 3.65339 7.01199 3.62696 7.39942C3.60013 7.79262 3.59961 8.29292 3.59961 9V10.5C3.59961 11.8255 4.67453 12.9004 6 12.9004C6.09043 12.9003 6.18225 12.9197 6.26856 12.9629C6.56494 13.1111 6.6853 13.4722 6.53711 13.7686L6.24219 14.3564L9.00684 13.251C9.00234 13.3334 9 13.4164 9 13.5C9 13.8438 9.03931 14.1783 9.11231 14.5L5.22266 16.0566C4.99139 16.1491 4.72727 16.0895 4.5586 15.9063C4.38994 15.7229 4.35149 15.4542 4.46289 15.2314L5.08692 13.9824C3.54102 13.5783 2.40039 12.1727 2.40039 10.5V9C2.40039 8.30931 2.39943 7.76091 2.42969 7.31739C2.46033 6.8686 2.52436 6.48294 2.67383 6.12207C3.03921 5.24011 3.74011 4.53921 4.62207 4.17383C4.98294 4.02436 5.3686 3.96033 5.81739 3.92969C6.26091 3.89943 6.80931 3.90039 7.5 3.90039H12.5Z" fill="black"/>
</g>
</svg>
