<svg width="20" height="20" viewBox="0 0 20 20" fill="none" xmlns="http://www.w3.org/2000/svg">
<g id="type=normal, icon=circle_search">
<g id="component_1">
<path d="M9.1748 7.19336C10.2687 7.19369 11.1562 8.08078 11.1562 9.1748C11.1559 10.2686 10.2686 11.1559 9.1748 11.1562C8.08077 11.1562 7.19367 10.2688 7.19336 9.1748C7.19336 8.08058 8.08058 7.19336 9.1748 7.19336Z" fill="black"/>
<path fill-rule="evenodd" clip-rule="evenodd" d="M10 3.40039C13.6451 3.40039 16.5996 6.35492 16.5996 10C16.5996 13.6451 13.6451 16.5996 10 16.5996C6.35492 16.5996 3.40039 13.6451 3.40039 10C3.40039 6.35492 6.35492 3.40039 10 3.40039ZM9.1748 6.20117C7.53224 6.20117 6.20117 7.53224 6.20117 9.1748C6.20148 10.8171 7.53243 12.1484 9.1748 12.1484C9.81629 12.1483 10.4088 11.9422 10.8945 11.5967L12.9531 13.6553C13.147 13.8482 13.4616 13.849 13.6553 13.6553C13.849 13.4616 13.8482 13.147 13.6553 12.9531L11.5967 10.8945C11.9422 10.4088 12.1483 9.8163 12.1484 9.1748C12.1484 7.53244 10.8171 6.2015 9.1748 6.20117Z" fill="black"/>
</g>
</g>
</svg>
