<svg width="20" height="20" viewBox="0 0 20 20" fill="none" xmlns="http://www.w3.org/2000/svg">
<g id="type=normal, icon=circle_information_filled">
<path id="component_1" fill-rule="evenodd" clip-rule="evenodd" d="M10 3.40039C13.6451 3.40039 16.5996 6.35492 16.5996 10C16.5996 13.6451 13.6451 16.5996 10 16.5996C6.35492 16.5996 3.40039 13.6451 3.40039 10C3.40039 6.35492 6.35492 3.40039 10 3.40039ZM9.25 9C8.97386 9 8.75 9.22386 8.75 9.5C8.75 9.77614 8.97386 10 9.25 10H9.5V13H9C8.72386 13 8.5 13.2239 8.5 13.5C8.5 13.7761 8.72386 14 9 14H11C11.2761 14 11.5 13.7761 11.5 13.5C11.5 13.2239 11.2761 13 11 13H10.5V10H10.75C11.0261 10 11.25 9.77614 11.25 9.5C11.25 9.22386 11.0261 9 10.75 9H9.25ZM10 6C9.44772 6 9 6.44772 9 7C9 7.55228 9.44772 8 10 8C10.5523 8 11 7.55228 11 7C11 6.44772 10.5523 6 10 6Z" fill="black"/>
</g>
</svg>
