<svg width="20" height="20" viewBox="0 0 20 20" fill="none" xmlns="http://www.w3.org/2000/svg">
<g id="type=normal, icon=x">
<path id="component_1" d="M14.5767 4.57537C14.811 4.34174 15.1903 4.34141 15.4244 4.57537C15.6586 4.80958 15.6584 5.18967 15.4244 5.424L10.8482 10.0002L15.4244 14.5763C15.6582 14.8106 15.6584 15.1898 15.4244 15.424C15.19 15.6583 14.81 15.6583 14.5757 15.424L9.99956 10.8478L5.42436 15.424C5.19005 15.6583 4.81005 15.6583 4.57573 15.424C4.34167 15.1898 4.34179 14.8106 4.57573 14.5763L9.1519 10.0002L4.57573 5.424C4.34172 5.18966 4.34152 4.80958 4.57573 4.57537C4.80986 4.34144 5.18908 4.34171 5.42339 4.57537L9.99956 9.15154L14.5767 4.57537Z" fill="black"/>
</g>
</svg>
