<svg width="20" height="20" viewBox="0 0 20 20" fill="none" xmlns="http://www.w3.org/2000/svg">
<g id="type=normal, icon=trigger">
<path id="component_1" d="M9.47947 3.98724C9.70459 3.58742 10.2954 3.58742 10.5205 3.98724L10.5625 4.07904L11.3789 6.28021L13.5918 4.88471L13.6845 4.83588C14.1524 4.63792 14.6671 5.10301 14.4717 5.60834L13.6758 7.66107L16.2969 7.6474C16.9038 7.6441 17.1313 8.44099 16.6142 8.75873L14.5937 9.99994L16.6142 11.2412C17.1313 11.5589 16.9038 12.3558 16.2969 12.3525L13.6758 12.3378L14.4717 14.3915C14.6801 14.9306 14.0806 15.4237 13.5918 15.1152L11.3789 13.7187L10.5625 15.9208C10.3689 16.4426 9.63101 16.4426 9.43748 15.9208L8.62009 13.7187L6.40818 15.1152C5.91932 15.4237 5.31982 14.9306 5.5283 14.3915L6.32322 12.3378L3.7031 12.3525C3.09619 12.3558 2.86863 11.5589 3.38572 11.2412L5.40525 9.99994L3.38572 8.75873C2.86862 8.44099 3.09619 7.6441 3.7031 7.6474L6.32322 7.66107L5.5283 5.60834C5.33287 5.10301 5.84753 4.63792 6.31541 4.83588L6.40818 4.88471L8.62009 6.28021L9.43748 4.07904L9.47947 3.98724ZM9.3867 7.09076C9.25414 7.44815 8.82624 7.59303 8.50388 7.38959L6.89744 6.37592L7.46873 7.84857C7.6214 8.24304 7.32826 8.66728 6.90525 8.66498L5.12595 8.65521L6.48338 9.4892C6.864 9.72348 6.864 10.2764 6.48338 10.5107L5.12595 11.3437L6.90525 11.3349L6.98338 11.3388C7.36348 11.385 7.61186 11.7815 7.46873 12.1513L6.89744 13.623L8.50388 12.6103L8.56541 12.5761C8.85769 12.4356 9.21145 12.5556 9.35838 12.8447L9.3867 12.9091L9.99998 14.5615L10.6133 12.9091L10.6416 12.8447C10.7885 12.5556 11.1423 12.4356 11.4345 12.5761L11.4961 12.6103L13.1015 13.623L12.5312 12.1513C12.3786 11.7568 12.6717 11.3326 13.0947 11.3349L14.873 11.3437L13.5166 10.5107C13.136 10.2764 13.136 9.72348 13.5166 9.4892L14.873 8.65521L13.0947 8.66498C12.6717 8.66728 12.3786 8.24304 12.5312 7.84857L13.1015 6.37592L11.4961 7.38959C11.1737 7.59303 10.7458 7.44815 10.6133 7.09076L9.99998 5.43744L9.3867 7.09076Z" fill="black"/>
</g>
</svg>
