<svg width="20" height="20" viewBox="0 0 20 20" fill="none" xmlns="http://www.w3.org/2000/svg">
<g id="type=normal, icon=lock_unlocked">
<path id="component_1" fill-rule="evenodd" clip-rule="evenodd" d="M13 3.40039C14.9882 3.40039 16.5996 5.01178 16.5996 7V10C16.5996 10.3314 16.3314 10.5996 16 10.5996C15.6686 10.5996 15.4004 10.3314 15.4004 10V7C15.4004 5.67452 14.3255 4.59961 13 4.59961C11.6745 4.59961 10.5996 5.67452 10.5996 7V9.40137C10.7886 9.40202 10.9587 9.40403 11.1055 9.41602C11.3093 9.43267 11.5209 9.46944 11.7266 9.57422C12.0276 9.72761 12.2724 9.97244 12.4258 10.2734C12.5306 10.4791 12.5673 10.6907 12.584 10.8945C12.6 11.0913 12.5996 11.3297 12.5996 11.5996V14.4004C12.5996 14.6703 12.6 14.9087 12.584 15.1055C12.5673 15.3093 12.5306 15.5209 12.4258 15.7266C12.2724 16.0276 12.0276 16.2724 11.7266 16.4258C11.5209 16.5306 11.3093 16.5673 11.1055 16.584C10.9087 16.6 10.6703 16.5996 10.4004 16.5996H5.59961C5.32972 16.5996 5.09126 16.6 4.89453 16.584C4.69068 16.5673 4.47907 16.5306 4.27344 16.4258C3.97244 16.2724 3.72761 16.0276 3.57422 15.7266C3.46944 15.5209 3.43267 15.3093 3.41602 15.1055C3.39995 14.9087 3.40039 14.6703 3.40039 14.4004V11.5996C3.40039 11.3297 3.39995 11.0913 3.41602 10.8945C3.43267 10.6907 3.46944 10.4791 3.57422 10.2734C3.72761 9.97244 3.97244 9.72761 4.27344 9.57422C4.47907 9.46944 4.69068 9.43267 4.89453 9.41602C5.09126 9.39995 5.32972 9.40039 5.59961 9.40039H9.40039V7C9.40039 5.01178 11.0118 3.40039 13 3.40039ZM5.59961 10.5996C5.31002 10.5996 5.12876 10.6002 4.99219 10.6113C4.86254 10.6219 4.82664 10.6393 4.81836 10.6436C4.74311 10.6819 4.6819 10.7431 4.64356 10.8184C4.63934 10.8266 4.62192 10.8625 4.61133 10.9922C4.60018 11.1288 4.59961 11.31 4.59961 11.5996V14.4004C4.59961 14.69 4.60018 14.8712 4.61133 15.0078C4.62192 15.1374 4.63934 15.1734 4.64356 15.1816C4.6819 15.2569 4.74311 15.3181 4.81836 15.3564C4.82664 15.3607 4.86254 15.3781 4.99219 15.3887C5.12876 15.3998 5.31002 15.4004 5.59961 15.4004H10.4004C10.69 15.4004 10.8712 15.3998 11.0078 15.3887C11.1375 15.3781 11.1734 15.3607 11.1816 15.3564C11.2569 15.3181 11.3181 15.2569 11.3564 15.1816C11.3607 15.1734 11.3781 15.1375 11.3887 15.0078C11.3998 14.8712 11.4004 14.69 11.4004 14.4004V11.5996C11.4004 11.31 11.3998 11.1288 11.3887 10.9922C11.3781 10.8625 11.3607 10.8266 11.3564 10.8184C11.3181 10.7431 11.2569 10.6819 11.1816 10.6436C11.1734 10.6393 11.1374 10.6219 11.0078 10.6113C10.8712 10.6002 10.69 10.5996 10.4004 10.5996H5.59961Z" fill="black"/>
</g>
</svg>
