<svg width="20" height="20" viewBox="0 0 20 20" fill="none" xmlns="http://www.w3.org/2000/svg">
<g id="type=normal, icon=rectangle_fitscreen_chevron">
<g id="component_2">
<path d="M5 11.2002C5.22078 11.2002 5.40018 11.3789 5.40039 11.5996V12C5.40039 12.3314 5.66863 12.5996 6 12.5996H6.40039C6.62113 12.5998 6.7998 12.7792 6.7998 13C6.7998 13.2208 6.62113 13.4002 6.40039 13.4004H6C5.2268 13.4004 4.59961 12.7732 4.59961 12V11.5996C4.59982 11.3789 4.77922 11.2002 5 11.2002Z" fill="black"/>
<path d="M15 11.2002C15.2208 11.2002 15.4002 11.3789 15.4004 11.5996V12C15.4004 12.7732 14.7732 13.4004 14 13.4004H13.5996C13.3789 13.4002 13.2002 13.2208 13.2002 13C13.2002 12.7792 13.3789 12.5998 13.5996 12.5996H14C14.3314 12.5996 14.5996 12.3314 14.5996 12V11.5996C14.5998 11.3789 14.7792 11.2002 15 11.2002Z" fill="black"/>
<path d="M6.40039 6.59961C6.62113 6.59982 6.7998 6.77922 6.7998 7C6.7998 7.22078 6.62113 7.40018 6.40039 7.40039H6C5.66863 7.40039 5.40039 7.66863 5.40039 8V8.40039C5.40018 8.62113 5.22078 8.7998 5 8.7998C4.77922 8.7998 4.59982 8.62113 4.59961 8.40039V8C4.59961 7.2268 5.2268 6.59961 6 6.59961H6.40039Z" fill="black"/>
<path d="M14 6.59961C14.7732 6.59961 15.4004 7.2268 15.4004 8V8.40039C15.4002 8.62113 15.2208 8.7998 15 8.7998C14.7792 8.7998 14.5998 8.62112 14.5996 8.40039V8C14.5996 7.66863 14.3314 7.40039 14 7.40039H13.5996C13.3789 7.40018 13.2002 7.22078 13.2002 7C13.2002 6.77922 13.3789 6.59982 13.5996 6.59961H14Z" fill="black"/>
</g>
<path id="component_1" d="M16.4 8C16.4 6.67452 15.3251 5.59961 13.9996 5.59961H5.99963C4.67415 5.59961 3.59924 6.67452 3.59924 8V12C3.59924 13.3255 4.67415 14.4004 5.99963 14.4004H13.9996C15.3251 14.4004 16.4 13.3255 16.4 12V8ZM17.5992 12C17.5992 13.9882 15.9879 15.5996 13.9996 15.5996H5.99963C4.01141 15.5996 2.40002 13.9882 2.40002 12V8C2.40002 6.01178 4.01141 4.40039 5.99963 4.40039H13.9996C15.9879 4.40039 17.5992 6.01178 17.5992 8V12Z" fill="black"/>
</g>
</svg>
