<svg width="20" height="20" viewBox="0 0 20 20" fill="none" xmlns="http://www.w3.org/2000/svg">
<g id="type=normal, icon=process_definition">
<path id="component_2" fill-rule="evenodd" clip-rule="evenodd" d="M5.69671 11.5C5.8015 11.5001 5.89309 11.5716 5.91853 11.6733L6.08175 12.3287C6.2739 12.38 6.45591 12.4549 6.62416 12.5522L7.2034 12.2056C7.29332 12.1517 7.40799 12.1658 7.48214 12.24L7.76004 12.5179C7.83419 12.592 7.84827 12.7067 7.79436 12.7966L7.44699 13.3758C7.54423 13.5439 7.61909 13.7255 7.67048 13.9174L8.32673 14.0815C8.42841 14.1069 8.4999 14.1985 8.5 14.3033V14.6967C8.49992 14.8015 8.42842 14.8931 8.32673 14.9185L7.67048 15.0818C7.61916 15.2737 7.54418 15.4552 7.44699 15.6233L7.79436 16.2034C7.84827 16.2933 7.83417 16.408 7.76004 16.4821L7.48214 16.76C7.408 16.8342 7.29333 16.8483 7.2034 16.7944L6.62333 16.447C6.45521 16.5442 6.27373 16.6192 6.08175 16.6705L5.91853 17.3267C5.8931 17.4284 5.80152 17.4999 5.69671 17.5H5.30329C5.19848 17.4999 5.1069 17.4284 5.08147 17.3267L4.91741 16.6705C4.72524 16.619 4.54324 16.5444 4.375 16.447L3.7966 16.7944C3.70666 16.8483 3.59201 16.8342 3.51786 16.76L3.23996 16.4821C3.16583 16.408 3.15171 16.2933 3.20564 16.2034L3.55218 15.6233C3.45504 15.4553 3.37997 15.2737 3.32868 15.0818L2.67327 14.9185C2.57158 14.8931 2.50008 14.8015 2.5 14.6967V14.3033C2.5001 14.1985 2.57159 14.1069 2.67327 14.0815L3.32868 13.9174C3.38003 13.7256 3.455 13.5439 3.55218 13.3758L3.20564 12.7966C3.15175 12.7067 3.16582 12.592 3.23996 12.5179L3.51786 12.24C3.59199 12.1658 3.70668 12.1518 3.7966 12.2056L4.37584 12.5522C4.54386 12.455 4.72555 12.38 4.91741 12.3287L5.08147 11.6733C5.10691 11.5716 5.1985 11.5001 5.30329 11.5H5.69671ZM5.5 13.6002C5.00296 13.6002 4.60019 14.003 4.60017 14.5C4.60017 14.9971 5.00294 15.3998 5.5 15.3998C5.99706 15.3998 6.39983 14.9971 6.39983 14.5C6.39981 14.003 5.99704 13.6002 5.5 13.6002Z" fill="black"/>
<path id="component_1" d="M4 6.00007C4.00042 5.28701 4.77425 4.80406 5.47656 5.0782L10.6865 7.11237L10.832 7.17487C10.8777 7.19659 10.9223 7.21969 10.9658 7.24421C10.9791 7.25168 10.9918 7.25992 11.0049 7.26764C11.0742 7.30868 11.1409 7.35271 11.2041 7.40046L11.2275 7.41804C11.2413 7.42869 11.2542 7.44028 11.2676 7.45124C11.29 7.46957 11.3125 7.48775 11.334 7.5069C11.3428 7.51471 11.3507 7.52338 11.3594 7.53132C11.4225 7.58943 11.4813 7.65115 11.5361 7.71589C11.5504 7.73268 11.5645 7.74946 11.5781 7.76667C11.5899 7.78159 11.6019 7.79636 11.6133 7.81159C11.6336 7.83878 11.653 7.8665 11.6719 7.8946C11.6795 7.90593 11.687 7.9173 11.6943 7.92878C11.71 7.95315 11.7247 7.978 11.7393 8.00299C11.7494 8.0204 11.759 8.03804 11.7686 8.05573C11.7808 8.0783 11.7924 8.10108 11.8037 8.12409C11.8148 8.1466 11.8248 8.16953 11.835 8.19245C11.8454 8.21607 11.8557 8.23971 11.8652 8.26374C11.8735 8.28472 11.8811 8.30594 11.8887 8.32721C11.8954 8.34613 11.903 8.36471 11.9092 8.38385C11.9178 8.41063 11.9252 8.43773 11.9326 8.46491C11.9508 8.53166 11.9668 8.5992 11.9775 8.66803C11.9925 8.76346 12 8.86069 12 8.95905V15.9991L11.9912 16.1299L11.9697 16.2393C11.8397 16.7387 11.3133 17.0677 10.7715 16.9883L10.6553 16.9649L10.5234 16.9219L9.04785 16.3457C9.23146 15.9936 9.36345 15.611 9.43555 15.2071L10.5273 15.6338C10.6583 15.6847 10.7997 15.5879 10.7998 15.4473V8.95905C10.7998 8.86849 10.7802 8.77422 10.7412 8.68366C10.676 8.53241 10.5562 8.39074 10.3799 8.29108L10.25 8.23053L5.47266 6.36433C5.34169 6.3133 5.20049 6.40937 5.2002 6.54987V10.5118C4.77854 10.543 4.37518 10.6392 4 10.7911V6.00007ZM7 4.00008C7.00027 3.28688 7.77416 2.80398 8.47656 3.0782L13.6865 5.11238C14.4814 5.42288 15 6.1518 15 6.95905V13.9991L14.9912 14.129C14.9096 14.7264 14.275 15.1237 13.6553 14.9649L13.5234 14.9209L13.2002 14.794V8.95905C13.2002 7.70487 12.4472 6.61593 11.3477 6.09187L11.123 5.99421L7 4.38386V4.00008ZM9.59961 9.26373V13.3877L9.30762 13.2735C8.944 12.1436 8.09219 11.2332 7 10.7911V8.24713L9.59961 9.26373Z" fill="black"/>
</g>
</svg>
