<svg width="20" height="20" viewBox="0 0 20 20" fill="none" xmlns="http://www.w3.org/2000/svg">
<g id="type=normal, icon=work">
<g id="component_1">
<path fill-rule="evenodd" clip-rule="evenodd" d="M7.80957 3.06772C7.96576 2.97725 8.15861 2.97737 8.31543 3.06674L10.3242 4.2142C10.4821 4.30451 10.58 4.47276 10.5801 4.65463V8.03744C10.58 8.21937 10.4821 8.38753 10.3242 8.47787L8.36328 9.59799L8.62891 15.4144C8.668 16.2783 7.97806 17.0001 7.11328 17.0003C6.24839 17.0002 5.55758 16.2784 5.59668 15.4144L5.86133 9.59701L3.90137 8.47787C3.7435 8.38752 3.64556 8.21935 3.64551 8.03744V4.65463C3.64562 4.47278 3.74353 4.30452 3.90137 4.2142L5.91016 3.06674C6.06696 2.97721 6.25975 2.97732 6.41602 3.06772C6.5724 3.15847 6.66889 3.32637 6.66895 3.50717V5.83822H7.55664V3.50717C7.5567 3.32641 7.65325 3.15848 7.80957 3.06772ZM7.36523 10.1693C7.20936 10.2583 7.01725 10.2582 6.86133 10.1693L6.85156 10.1634L6.61133 15.4593C6.59832 15.7455 6.8268 15.9856 7.11328 15.9857C7.39965 15.9854 7.62824 15.7455 7.61523 15.4593L7.37402 10.1634L7.36523 10.1693ZM8.57129 6.34604C8.57126 6.62612 8.3445 6.85367 8.06445 6.85385H6.16113C5.8812 6.85353 5.65432 6.62603 5.6543 6.34604V4.38119L4.66113 4.94857V7.74252L7.11328 9.14291L9.56445 7.74252V4.94857L8.57129 4.38119V6.34604Z" fill="black"/>
<path fill-rule="evenodd" clip-rule="evenodd" d="M13.752 3.30111C14.9661 3.30111 15.9509 4.28628 15.9512 5.50033V8.03744C15.9509 8.31743 15.7234 8.54428 15.4434 8.54428H15.3008V12.9378L15.6865 13.3236L15.709 13.347L15.7451 13.388L15.7695 13.4183C15.9466 13.6533 15.9968 13.9617 15.9033 14.2425L15.2529 16.1947C15.1302 16.5603 14.7877 16.8068 14.4023 16.807H13.0996C12.7638 16.8061 12.4587 16.6187 12.3057 16.3265L12.25 16.1947L11.5996 14.2425C11.4925 13.9204 11.5763 13.564 11.8164 13.3236L12.2031 12.9369V8.54428H12.0605C11.9263 8.54411 11.7971 8.49078 11.7021 8.39584C11.6073 8.30084 11.5538 8.17167 11.5537 8.03744V5.50033C11.5539 4.28644 12.5381 3.30137 13.752 3.30111ZM13.2188 13.1458C13.2188 13.2804 13.1644 13.4091 13.0693 13.5042L12.584 13.9896L13.1855 15.7923H14.3184L14.9189 13.9896L14.4346 13.5052C14.3398 13.4101 14.2852 13.2811 14.2852 13.1468V8.54428H13.2188V13.1458ZM13.752 4.31576C13.0985 4.31602 12.5686 4.84686 12.5684 5.50033V7.52963H14.9355V5.50033C14.9353 4.84671 14.4056 4.31576 13.752 4.31576Z" fill="black"/>
</g>
</g>
</svg>
