<svg width="20" height="20" viewBox="0 0 20 20" fill="none" xmlns="http://www.w3.org/2000/svg">
<g id="type=normal, icon=document_voice">
<g id="component_2">
<path d="M14.5542 10.5C14.8304 10.5 15.054 10.7236 15.054 10.9997V16.0003C15.054 16.2764 14.8304 16.5 14.5542 16.5C14.2781 16.5 14.0545 16.2764 14.0545 16.0003V10.9997C14.0545 10.7236 14.2781 10.5 14.5542 10.5Z" fill="black"/>
<path d="M11.6372 11.3334C11.9134 11.3334 12.137 11.557 12.137 11.8332V15.1668C12.137 15.443 11.9134 15.6666 11.6372 15.6666C11.3611 15.6666 11.1375 15.443 11.1375 15.1668V11.8332C11.1375 11.557 11.3611 11.3334 11.6372 11.3334Z" fill="black"/>
<path d="M13.0957 11.9585C13.3719 11.9585 13.5955 12.182 13.5955 12.4582V14.5418C13.5955 14.818 13.3719 15.0415 13.0957 15.0415C12.8196 15.0415 12.596 14.818 12.596 14.5418V12.4582C12.596 12.182 12.8196 11.9585 13.0957 11.9585Z" fill="black"/>
<path d="M16.0127 12.3752C16.2889 12.3752 16.5124 12.5988 16.5124 12.8749V14.1251C16.5124 14.4012 16.2889 14.6248 16.0127 14.6248C15.7365 14.6248 15.513 14.4012 15.513 14.1251V12.8749C15.513 12.5988 15.7365 12.3752 16.0127 12.3752Z" fill="black"/>
</g>
<path id="component_1" fill-rule="evenodd" clip-rule="evenodd" d="M9.43848 2.90028C9.62239 2.90028 9.7978 2.89706 9.9707 2.93251C10.1118 2.96148 10.2486 3.00955 10.377 3.07509C10.5341 3.15541 10.6699 3.26683 10.8135 3.38173L14.7744 6.55067C14.9688 6.7062 15.1578 6.85137 15.2959 7.04189C15.3303 7.08934 15.3607 7.13956 15.3896 7.19032C15.437 7.24988 15.473 7.31921 15.4893 7.39638C15.5097 7.4484 15.5281 7.50152 15.543 7.55556C15.6053 7.78223 15.5996 8.01972 15.5996 8.26845V9.51747C15.2184 9.31634 14.8139 9.17477 14.4004 9.09071V8.26845C14.4004 8.14005 14.3982 8.05621 14.3965 7.99989H11C10.1717 7.99989 9.50013 7.32821 9.5 6.49989V4.0995H8.2002C7.63044 4.0995 7.23891 4.10013 6.93555 4.12489C6.63919 4.14911 6.47948 4.19412 6.36426 4.25282C6.1011 4.387 5.8871 4.60099 5.75293 4.86415C5.69427 4.97936 5.6492 5.13926 5.625 5.43544C5.60026 5.73875 5.59961 6.13052 5.59961 6.70009V13.2997C5.59961 13.8693 5.60025 14.261 5.625 14.5643C5.64922 14.8605 5.69425 15.0204 5.75293 15.1356C5.88712 15.3988 6.10112 15.6128 6.36426 15.747C6.47948 15.8057 6.63924 15.8507 6.93555 15.8749C7.23891 15.8997 7.63044 15.9003 8.2002 15.9003H9.69336C9.86856 16.1776 10.0767 16.4408 10.3184 16.6825C10.4709 16.835 10.6322 16.9735 10.7998 17.0995H8.2002C7.65021 17.0995 7.20144 17.0999 6.83789 17.0702C6.46732 17.0399 6.1319 16.9755 5.81934 16.8163C5.33044 16.5671 4.93282 16.1694 4.68359 15.6806C4.52438 15.3681 4.45997 15.0325 4.42969 14.662C4.40002 14.2985 4.40039 13.8495 4.40039 13.2997V6.70009C4.40039 6.15025 4.40003 5.70127 4.42969 5.33778C4.45996 4.96728 4.5244 4.63175 4.68359 4.31923C4.93281 3.83032 5.33043 3.43271 5.81934 3.18349C6.13191 3.02423 6.4673 2.95986 6.83789 2.92958C7.20144 2.8999 7.6502 2.90028 8.2002 2.90028H9.43848ZM10.5 6.49989C10.5001 6.77592 10.7239 6.99989 11 6.99989H13.4141L10.5 4.66786V6.49989Z" fill="black"/>
</g>
</svg>
