<svg width="20" height="20" viewBox="0 0 20 20" fill="none" xmlns="http://www.w3.org/2000/svg">
<g id="type=normal, icon=square_check_fill">
<path id="component_1" fill-rule="evenodd" clip-rule="evenodd" d="M11.2002 3.4004C12.0303 3.4004 12.6894 3.39906 13.2197 3.44239C13.7569 3.48631 14.2153 3.57829 14.6348 3.792C15.312 4.13712 15.8629 4.68799 16.208 5.36524C16.4217 5.78467 16.5137 6.2431 16.5576 6.78028C16.601 7.31059 16.5996 7.96972 16.5996 8.79981V11.2002C16.5996 12.0303 16.601 12.6894 16.5576 13.2197C16.5137 13.7569 16.4217 14.2153 16.208 14.6348C15.8629 15.312 15.312 15.8629 14.6348 16.208C14.2153 16.4217 13.7569 16.5137 13.2197 16.5576C12.6894 16.601 12.0303 16.5996 11.2002 16.5996H8.79981C7.96973 16.5996 7.31059 16.601 6.78028 16.5576C6.24311 16.5137 5.78467 16.4217 5.36524 16.208C4.68799 15.8629 4.13712 15.312 3.792 14.6348C3.57829 14.2153 3.48631 13.7569 3.44239 13.2197C3.39906 12.6894 3.4004 12.0303 3.4004 11.2002V8.79981C3.4004 7.96972 3.39906 7.31059 3.44239 6.78028C3.48631 6.2431 3.57828 5.78467 3.792 5.36524C4.13712 4.68799 4.68799 4.13712 5.36524 3.792C5.78467 3.57828 6.24311 3.48631 6.78028 3.44239C7.31059 3.39906 7.96973 3.4004 8.79981 3.4004H11.2002ZM12.8272 6.99707C12.5494 6.81653 12.1777 6.89516 11.9971 7.17286L9.17969 11.5088L7.95118 10.1045C7.73291 9.85551 7.35374 9.83075 7.1045 10.0488C6.85551 10.2671 6.83075 10.6463 7.04883 10.8955L8.79883 12.8955C8.92262 13.0367 9.10565 13.112 9.29297 13.0986C9.45691 13.0869 9.60816 13.0087 9.71192 12.8838L9.75293 12.8272L13.0029 7.82715C13.1835 7.54937 13.1048 7.17771 12.8272 6.99707Z" fill="black"/>
</g>
</svg>
