<svg width="20" height="20" viewBox="0 0 20 20" fill="none" xmlns="http://www.w3.org/2000/svg">
<g id="type=normal, icon=square_line">
<path id="component_1" d="M15.4004 8.79981C15.4004 7.95021 15.3997 7.34896 15.3613 6.87891C15.3235 6.41576 15.2519 6.13235 15.1387 5.91016C14.9086 5.45866 14.5414 5.09141 14.0898 4.86133C13.8677 4.74812 13.5842 4.67652 13.1211 4.63868C12.651 4.6003 12.0498 4.59961 11.2002 4.59961H8.79981C7.95021 4.59961 7.34896 4.6003 6.87891 4.63868C6.41576 4.67652 6.13235 4.74812 5.91016 4.86133C5.45866 5.09141 5.09141 5.45866 4.86133 5.91016C4.74812 6.13235 4.67652 6.41576 4.63868 6.87891C4.6003 7.34896 4.59961 7.95021 4.59961 8.79981V11.2002C4.59961 12.0498 4.6003 12.651 4.63868 13.1211C4.67652 13.5842 4.74812 13.8677 4.86133 14.0898C5.09141 14.5414 5.45866 14.9086 5.91016 15.1387C6.13235 15.2519 6.41576 15.3235 6.87891 15.3613C7.34896 15.3997 7.95021 15.4004 8.79981 15.4004H11.2002C12.0498 15.4004 12.651 15.3997 13.1211 15.3613C13.5842 15.3235 13.8677 15.2519 14.0898 15.1387C14.5414 14.9086 14.9086 14.5414 15.1387 14.0898C15.2519 13.8677 15.3235 13.5842 15.3613 13.1211C15.3997 12.651 15.4004 12.0498 15.4004 11.2002V8.79981ZM16.5996 11.2002C16.5996 12.0303 16.601 12.6894 16.5576 13.2197C16.5137 13.7569 16.4217 14.2153 16.208 14.6348C15.8629 15.312 15.312 15.8629 14.6348 16.208C14.2153 16.4217 13.7569 16.5137 13.2197 16.5576C12.6894 16.601 12.0303 16.5996 11.2002 16.5996H8.79981C7.96972 16.5996 7.31059 16.601 6.78028 16.5576C6.2431 16.5137 5.78468 16.4217 5.36524 16.208C4.68798 15.8629 4.13712 15.312 3.792 14.6348C3.57828 14.2153 3.48631 13.7569 3.44239 13.2197C3.39906 12.6894 3.4004 12.0303 3.4004 11.2002V8.79981C3.4004 7.96972 3.39906 7.31059 3.44239 6.78028C3.48631 6.2431 3.57828 5.78468 3.792 5.36524C4.13712 4.68798 4.68798 4.13712 5.36524 3.792C5.78468 3.57828 6.2431 3.48631 6.78028 3.44239C7.31059 3.39906 7.96972 3.4004 8.79981 3.4004H11.2002C12.0303 3.4004 12.6894 3.39906 13.2197 3.44239C13.7569 3.48631 14.2153 3.57828 14.6348 3.792C15.312 4.13712 15.8629 4.68798 16.208 5.36524C16.4217 5.78468 16.5137 6.2431 16.5576 6.78028C16.601 7.31059 16.5996 7.96972 16.5996 8.79981V11.2002Z" fill="black"/>
</g>
</svg>
