<svg width="20" height="20" viewBox="0 0 20 20" fill="none" xmlns="http://www.w3.org/2000/svg">
<g id="type=normal, icon=line_list_check">
<g id="component_1">
<path d="M5.29667 12.5598L5.37674 12.5813L5.39042 12.5871L5.46561 12.6223L5.49296 12.6389L5.55839 12.6887L5.56913 12.6965C5.73571 12.8496 5.79451 13.0921 5.71366 13.3049L5.67069 13.3938L4.5994 15.1799C4.52861 15.2976 4.417 15.3826 4.29081 15.4231C4.28535 15.4248 4.27887 15.4268 4.27323 15.428L4.17655 15.4465C4.17101 15.4475 4.16462 15.4481 4.15897 15.4485C4.0011 15.4588 3.84486 15.4018 3.73221 15.2922L3.68631 15.2414L2.97147 14.3479C2.78051 14.1081 2.8185 13.757 3.05839 13.5647C3.06251 13.5614 3.06762 13.5577 3.07206 13.5549L3.14139 13.511L3.15311 13.5041L3.22928 13.4719C3.38405 13.42 3.55535 13.4393 3.6951 13.5237L3.76249 13.5715L3.77421 13.5822L3.83182 13.6418L3.84159 13.6526L4.0535 13.9182L4.71464 12.8205L4.72342 12.8078L4.77225 12.7424L4.78202 12.7307C4.91316 12.5877 5.10946 12.5244 5.29667 12.5598Z" fill="black"/>
<path d="M15.9998 13.4006C16.3312 13.4006 16.5994 13.6688 16.5994 14.0002C16.5991 14.3313 16.331 14.5998 15.9998 14.5998H7.90018C7.56909 14.5997 7.30088 14.3313 7.30057 14.0002C7.30057 13.6689 7.5689 13.4007 7.90018 13.4006H15.9998Z" fill="black"/>
<path d="M5.29667 8.55979L5.37674 8.58127L5.39042 8.58713L5.46561 8.62229L5.49296 8.63889L5.55839 8.6887L5.56913 8.69651C5.73571 8.84958 5.79451 9.09209 5.71366 9.30491L5.67069 9.39377L4.5994 11.1799C4.52861 11.2976 4.417 11.3826 4.29081 11.4231C4.28535 11.4248 4.27887 11.4268 4.27323 11.428L4.17655 11.4465C4.171 11.4475 4.16463 11.4481 4.15897 11.4485C4.0011 11.4588 3.84486 11.4018 3.73221 11.2922L3.68631 11.2414L2.97147 10.3479C2.78051 10.1081 2.8185 9.75701 3.05839 9.56467C3.06251 9.56139 3.06762 9.55774 3.07206 9.55491L3.14139 9.51096L3.15311 9.50413L3.22928 9.4719C3.38405 9.42 3.55535 9.43932 3.6951 9.52366L3.76249 9.57151L3.77421 9.58225L3.83182 9.64182L3.84159 9.65256L4.0535 9.91819L4.71464 8.82053L4.72342 8.80784L4.77225 8.74241L4.78202 8.73069C4.91316 8.5877 5.10946 8.52443 5.29667 8.55979Z" fill="black"/>
<path d="M15.9998 9.40061C16.3312 9.40061 16.5994 9.66885 16.5994 10.0002C16.5991 10.3313 16.331 10.5998 15.9998 10.5998H7.90018C7.56909 10.5997 7.30088 10.3313 7.30057 10.0002C7.30057 9.66891 7.5689 9.40072 7.90018 9.40061H15.9998Z" fill="black"/>
<path d="M5.29667 4.55979L5.37674 4.58127L5.39042 4.58713L5.46561 4.62229C5.47513 4.62677 5.48459 4.63253 5.49296 4.63889L5.55839 4.6887L5.56913 4.69651C5.73571 4.84958 5.79451 5.09209 5.71366 5.30491L5.67069 5.39377L4.5994 7.17991C4.52861 7.2976 4.417 7.38256 4.29081 7.42307C4.28535 7.42482 4.27887 7.42684 4.27323 7.42795L4.17655 7.44651C4.171 7.44754 4.16463 7.44808 4.15897 7.44846C4.0011 7.45876 3.84486 7.40177 3.73221 7.29221L3.68631 7.24143L2.97147 6.34787C2.78051 6.10814 2.8185 5.75701 3.05839 5.56467C3.06251 5.56139 3.06762 5.55774 3.07206 5.55491L3.14139 5.51096L3.15311 5.50412L3.22928 5.4719C3.38405 5.42 3.55535 5.43932 3.6951 5.52366L3.76249 5.57151L3.77421 5.58225L3.83182 5.64182L3.84159 5.65256L4.0535 5.91819L4.71464 4.82053L4.72342 4.80784L4.77225 4.74241L4.78202 4.73069C4.91316 4.5877 5.10946 4.52443 5.29667 4.55979Z" fill="black"/>
<path d="M16.0008 5.40061C16.3318 5.40104 16.6004 5.66912 16.6004 6.00022C16.6003 6.33124 16.3317 6.5994 16.0008 6.59983H7.90018C7.85867 6.59979 7.81821 6.59519 7.77909 6.58713C7.74054 6.5792 7.70322 6.56789 7.66776 6.55295C7.52396 6.49231 7.40814 6.3774 7.34745 6.23362C7.31712 6.16195 7.30061 6.08295 7.30057 6.00022C7.30059 5.91755 7.31719 5.83845 7.34745 5.76682C7.37771 5.69505 7.42216 5.63067 7.47635 5.57639C7.53061 5.5221 7.59503 5.47787 7.66678 5.44748C7.73846 5.41713 7.81741 5.40069 7.90018 5.40061H16.0008Z" fill="black"/>
</g>
</g>
</svg>
