<svg width="20" height="20" viewBox="0 0 20 20" fill="none" xmlns="http://www.w3.org/2000/svg">
<g id="type=normal, icon=octagon_x_filled">
<path id="component_1" fill-rule="evenodd" clip-rule="evenodd" d="M12.0859 3.40039C12.51 3.40043 12.9168 3.5684 13.2168 3.86816L16.1318 6.7832C16.4316 7.08319 16.5996 7.48997 16.5996 7.91406V12.0859C16.5996 12.51 16.4316 12.9168 16.1318 13.2168L13.2168 16.1318C12.9168 16.4316 12.51 16.5996 12.0859 16.5996H7.91406C7.48996 16.5996 7.08319 16.4316 6.7832 16.1318L3.86816 13.2168C3.5684 12.9168 3.40043 12.51 3.40039 12.0859V7.91406C3.40043 7.48996 3.5684 7.08319 3.86816 6.7832L6.7832 3.86816C7.08319 3.5684 7.48996 3.40043 7.91406 3.40039H12.0859ZM12.9189 7.07031C12.6876 6.83355 12.3125 6.83366 12.0811 7.07031L9.99902 9.20215L7.91797 7.07031C7.68657 6.83401 7.31231 6.83377 7.08105 7.07031C6.84987 7.3073 6.85011 7.69158 7.08105 7.92871L9.16113 10.0605L7.2002 12.0703C6.96901 12.3073 6.96923 12.6916 7.2002 12.9287C7.43162 13.1658 7.80662 13.1657 8.03809 12.9287L9.99902 10.9189L11.9609 12.9287C12.1924 13.1658 12.5674 13.1657 12.7988 12.9287C13.0301 12.6916 13.0302 12.3074 12.7988 12.0703L10.8369 10.0605L12.9189 7.92871C13.15 7.69157 13.1502 7.30731 12.9189 7.07031Z" fill="black"/>
</g>
</svg>
