<svg width="20" height="20" viewBox="0 0 20 20" fill="none" xmlns="http://www.w3.org/2000/svg">
<g id="type=normal, icon=plus">
<path id="component_1" d="M10 4.40039C9.66863 4.40039 9.40039 4.66863 9.40039 5V9.40039H5C4.66863 9.40039 4.40039 9.66863 4.40039 10C4.40039 10.3314 4.66863 10.5996 5 10.5996H9.40039V15C9.40039 15.3314 9.66863 15.5996 10 15.5996C10.3314 15.5996 10.5996 15.3314 10.5996 15L10.5996 10.5996H15C15.3314 10.5996 15.5996 10.3314 15.5996 10C15.5996 9.66863 15.3314 9.40039 15 9.40039H10.5996V5C10.5996 4.66863 10.3314 4.40039 10 4.40039Z" fill="black"/>
</g>
</svg>
