<svg width="20" height="20" viewBox="0 0 20 20" fill="none" xmlns="http://www.w3.org/2000/svg">
<g id="type=normal, icon=circle_target">
<path id="component_1" fill-rule="evenodd" clip-rule="evenodd" d="M10 2.59961C10.2209 2.59961 10.4004 2.77909 10.4004 3V3.41309C13.7265 3.61212 16.3869 6.27351 16.5859 9.59961H17C17.2209 9.59961 17.4004 9.77909 17.4004 10C17.4004 10.2209 17.2209 10.4004 17 10.4004H16.5859C16.3869 13.7265 13.7265 16.3869 10.4004 16.5859V17C10.4004 17.2209 10.2209 17.4004 10 17.4004C9.77909 17.4004 9.59961 17.2209 9.59961 17V16.5859C6.27353 16.3869 3.61312 13.7265 3.41406 10.4004H3C2.77909 10.4004 2.59961 10.2209 2.59961 10C2.59961 9.77909 2.77909 9.59961 3 9.59961H3.41406C3.61312 6.27351 6.2735 3.61212 9.59961 3.41309V3C9.59961 2.77909 9.77909 2.59961 10 2.59961ZM10.4004 8C10.4004 8.22091 10.2209 8.40039 10 8.40039C9.77909 8.40039 9.59961 8.22091 9.59961 8V4.61523C6.93649 4.81048 4.81149 6.9365 4.61621 9.59961H8C8.22091 9.59961 8.40039 9.77909 8.40039 10C8.40039 10.2209 8.22091 10.4004 8 10.4004H4.61621C4.81149 13.0635 6.93653 15.1885 9.59961 15.3838V12C9.59961 11.7791 9.77909 11.5996 10 11.5996C10.2209 11.5996 10.4004 11.7791 10.4004 12V15.3838C13.0635 15.1885 15.1885 13.0635 15.3838 10.4004H12C11.7791 10.4004 11.5996 10.2209 11.5996 10C11.5996 9.77909 11.7791 9.59961 12 9.59961H15.3838C15.1885 6.9365 13.0635 4.81048 10.4004 4.61523V8Z" fill="black"/>
</g>
</svg>
