<svg width="20" height="20" viewBox="0 0 20 20" fill="none" xmlns="http://www.w3.org/2000/svg">
<g id="type=normal, icon=arrow_right">
<path id="component_1" d="M12.6396 5.51965C12.9047 5.32083 13.2816 5.37467 13.4805 5.63977L16.4805 9.63977L16.4902 9.65637C16.4966 9.66548 16.5019 9.67522 16.5078 9.68469L16.5322 9.72375C16.5363 9.73166 16.5392 9.74012 16.543 9.74817C16.5483 9.75968 16.553 9.77142 16.5576 9.78332C16.5668 9.80702 16.574 9.83113 16.5801 9.85559C16.5823 9.86445 16.5861 9.87294 16.5879 9.88196C16.595 9.91741 16.5979 9.95336 16.5986 9.98938C16.5987 9.99291 16.5996 9.99657 16.5996 10.0001C16.5996 10.0034 16.5987 10.0066 16.5986 10.0099C16.5981 10.0436 16.595 10.0772 16.5889 10.1105C16.588 10.1151 16.5869 10.1196 16.5859 10.1241C16.5786 10.1591 16.5683 10.1932 16.5547 10.2267C16.5524 10.2324 16.5494 10.2377 16.5469 10.2433C16.5289 10.2839 16.508 10.3238 16.4805 10.3605L13.4805 14.3605C13.2816 14.6255 12.9047 14.6793 12.6396 14.4806C12.3746 14.2818 12.3208 13.9049 12.5195 13.6398L14.7998 10.5997H4C3.66867 10.5997 3.40046 10.3314 3.40039 10.0001C3.40039 9.66875 3.66863 9.40051 4 9.40051H14.7998L12.5195 6.36047C12.3207 6.09539 12.3746 5.71849 12.6396 5.51965Z" fill="black"/>
</g>
</svg>
