<svg width="20" height="20" viewBox="0 0 20 20" fill="none" xmlns="http://www.w3.org/2000/svg">
<g id="type=normal, icon=arrow_minimize_4">
<g id="component_1">
<path d="M8.50012 10.9005C8.61601 10.9005 8.73187 10.9341 8.83215 11.001C8.86487 11.0229 8.8957 11.048 8.92394 11.0762C8.95217 11.1045 8.97733 11.1353 8.99914 11.168C9.06608 11.2683 9.09972 11.3842 9.09972 11.5001V14.5001C9.0997 14.8314 8.83145 15.0997 8.50012 15.0997C8.16878 15.0997 7.90053 14.8314 7.90051 14.5001V12.9473L5.42394 15.4239C5.18964 15.6582 4.8106 15.6582 4.57629 15.4239C4.34202 15.1896 4.34199 14.8105 4.57629 14.5762L7.05285 12.0997H5.50012C5.16878 12.0997 4.90053 11.8314 4.90051 11.5001C4.90053 11.1687 5.16878 10.9005 5.50012 10.9005H8.50012Z" fill="black"/>
<path d="M14.5001 10.9005C14.8315 10.9005 15.0997 11.1687 15.0997 11.5001C15.0997 11.8314 14.8314 12.0997 14.5001 12.0997H12.9474L15.4239 14.5762C15.6582 14.8106 15.6582 15.1896 15.4239 15.4239C15.1896 15.6582 14.8106 15.6582 14.5763 15.4239L12.0997 12.9473V14.5001C12.0997 14.8314 11.8314 15.0997 11.5001 15.0997C11.1688 15.0997 10.9005 14.8314 10.9005 14.5001V11.5001C10.9005 11.3842 10.9342 11.2683 11.0011 11.168C11.0229 11.1353 11.048 11.1045 11.0763 11.0762C11.1045 11.048 11.1354 11.0229 11.1681 11.001C11.2684 10.9341 11.3842 10.9005 11.5001 10.9005H14.5001Z" fill="black"/>
<path d="M4.57629 4.57624C4.8106 4.34194 5.18963 4.34193 5.42394 4.57624L7.90051 7.05281V5.50007C7.90051 5.16872 8.16877 4.90049 8.50012 4.90046C8.83147 4.90049 9.09972 5.16872 9.09972 5.50007V8.50007C9.09971 8.65338 9.04108 8.80676 8.92394 8.9239C8.80679 9.04103 8.65343 9.09968 8.50012 9.09968H5.50012C5.16879 9.09966 4.90054 8.8314 4.90051 8.50007C4.90051 8.16872 5.16877 7.90049 5.50012 7.90046H7.05285L4.57629 5.4239C4.34199 5.1896 4.34202 4.81056 4.57629 4.57624Z" fill="black"/>
<path d="M14.5763 4.57624C14.8106 4.34194 15.1896 4.34197 15.4239 4.57624C15.6582 4.81056 15.6582 5.1896 15.4239 5.4239L12.9474 7.90046H14.5001C14.8315 7.90049 15.0997 8.16874 15.0997 8.50007C15.0997 8.83141 14.8315 9.09966 14.5001 9.09968H11.5001C11.3468 9.09967 11.1934 9.04102 11.0763 8.9239C10.9592 8.80675 10.9005 8.65339 10.9005 8.50007V5.50007C10.9005 5.16874 11.1688 4.90049 11.5001 4.90046C11.8315 4.90049 12.0997 5.16874 12.0997 5.50007V7.05281L14.5763 4.57624Z" fill="black"/>
</g>
</g>
</svg>
