<svg width="20" height="20" viewBox="0 0 20 20" fill="none" xmlns="http://www.w3.org/2000/svg">
<g id="type=normal, icon=arrow_right_plus">
<path id="component_2" fill-rule="evenodd" clip-rule="evenodd" d="M6.5 10.0001C8.43299 10.0001 9.99998 11.5671 10 13.5001C9.99992 15.433 8.43295 17.0001 6.5 17.0001C4.56712 17 3.00008 15.433 3 13.5001C3.00002 11.5672 4.56708 10.0002 6.5 10.0001ZM6.5 11.5001C6.22391 11.5002 6 11.724 6 12.0001V13.0001H5C4.72387 13.0001 4.50002 13.224 4.5 13.5001C4.50008 13.7762 4.72391 14.0001 5 14.0001H6V15.0001C6.00008 15.2762 6.22396 15.5001 6.5 15.5001C6.77609 15.5001 6.99992 15.2762 7 15.0001V14.0001H8C8.27609 14.0001 8.49992 13.7762 8.5 13.5001C8.49998 13.224 8.27613 13.0001 8 13.0001H7V12.0001C7 11.724 6.77614 11.5001 6.5 11.5001Z" fill="black"/>
<g id="component_1">
<path d="M12.6396 5.51971C12.9047 5.32089 13.2816 5.37473 13.4805 5.63983L16.4805 9.63983L16.4902 9.65643C16.4966 9.66551 16.5019 9.67532 16.5078 9.68475L16.5322 9.72381C16.5363 9.73169 16.5393 9.74022 16.543 9.74823C16.5483 9.7597 16.553 9.77153 16.5576 9.78338C16.5668 9.80704 16.574 9.83123 16.5801 9.85565C16.5823 9.86446 16.5861 9.87305 16.5879 9.88202C16.595 9.91743 16.5979 9.95348 16.5986 9.98944C16.5987 9.99293 16.5996 9.99668 16.5996 10.0002C16.5996 10.0034 16.5987 10.0067 16.5986 10.0099C16.5981 10.0436 16.595 10.0773 16.5889 10.1105C16.588 10.1151 16.5869 10.1197 16.5859 10.1242C16.5786 10.1591 16.5683 10.1934 16.5547 10.2267C16.5524 10.2324 16.5493 10.2378 16.5469 10.2433C16.5289 10.2839 16.5079 10.3239 16.4805 10.3605L13.4805 14.3605C13.2816 14.6254 12.9047 14.6793 12.6396 14.4806C12.3746 14.2819 12.3209 13.9049 12.5195 13.6398L14.7998 10.5998H9.93945C9.50985 10.0908 8.9696 9.67898 8.35547 9.40057H14.7998L12.5195 6.36053C12.3207 6.09548 12.3747 5.71856 12.6396 5.51971Z" fill="black"/>
<path d="M4.64453 9.40057C4.19876 9.60266 3.79143 9.87436 3.4375 10.2033C3.41455 10.1397 3.40042 10.0717 3.40039 10.0002C3.40039 9.66881 3.66863 9.40057 4 9.40057H4.64453Z" fill="black"/>
</g>
</g>
</svg>
