<svg width="20" height="20" viewBox="0 0 20 20" fill="none" xmlns="http://www.w3.org/2000/svg">
<g id="type=sysml, icon=port_definition">
<path id="component_3" fill-rule="evenodd" clip-rule="evenodd" d="M5.69671 11.5C5.8015 11.5001 5.89309 11.5716 5.91853 11.6733L6.08175 12.3287C6.2739 12.38 6.45591 12.4549 6.62416 12.5522L7.2034 12.2056C7.29332 12.1517 7.40799 12.1658 7.48214 12.24L7.76004 12.5179C7.83419 12.592 7.84827 12.7067 7.79436 12.7966L7.44699 13.3758C7.54423 13.5439 7.61909 13.7255 7.67048 13.9174L8.32673 14.0815C8.42841 14.1069 8.4999 14.1985 8.5 14.3033V14.6967C8.49992 14.8015 8.42842 14.8931 8.32673 14.9185L7.67048 15.0818C7.61916 15.2737 7.54418 15.4552 7.44699 15.6233L7.79436 16.2034C7.84827 16.2933 7.83417 16.408 7.76004 16.4821L7.48214 16.76C7.408 16.8342 7.29333 16.8483 7.2034 16.7944L6.62333 16.447C6.45521 16.5442 6.27373 16.6192 6.08175 16.6705L5.91853 17.3267C5.8931 17.4284 5.80152 17.4999 5.69671 17.5H5.30329C5.19848 17.4999 5.1069 17.4284 5.08147 17.3267L4.91741 16.6705C4.72524 16.619 4.54324 16.5444 4.375 16.447L3.7966 16.7944C3.70666 16.8483 3.59201 16.8342 3.51786 16.76L3.23996 16.4821C3.16583 16.408 3.15171 16.2933 3.20564 16.2034L3.55218 15.6233C3.45504 15.4553 3.37997 15.2737 3.32868 15.0818L2.67327 14.9185C2.57158 14.8931 2.50008 14.8015 2.5 14.6967V14.3033C2.5001 14.1985 2.57159 14.1069 2.67327 14.0815L3.32868 13.9174C3.38003 13.7256 3.455 13.5439 3.55218 13.3758L3.20564 12.7966C3.15175 12.7067 3.16582 12.592 3.23996 12.5179L3.51786 12.24C3.59199 12.1658 3.70668 12.1518 3.7966 12.2056L4.37584 12.5522C4.54386 12.455 4.72555 12.38 4.91741 12.3287L5.08147 11.6733C5.10691 11.5716 5.1985 11.5001 5.30329 11.5H5.69671ZM5.5 13.6002C5.00296 13.6002 4.60019 14.003 4.60017 14.5C4.60017 14.9971 5.00294 15.3998 5.5 15.3998C5.99706 15.3998 6.39983 14.9971 6.39983 14.5C6.39981 14.003 5.99704 13.6002 5.5 13.6002Z" fill="black"/>
<g id="component_2">
<path d="M5.96309 7.23161C6.11127 6.93526 6.47238 6.81492 6.76875 6.96305C7.06504 7.11128 7.18547 7.47237 7.03731 7.76872L6.44453 8.95133L12.7365 11.6486C13.0408 11.7792 13.1824 12.1322 13.052 12.4367C12.9214 12.7409 12.5682 12.8823 12.2639 12.7521L6.57832 10.3156L6.77461 10.7082C6.37426 10.5736 5.94587 10.5002 5.5002 10.5002C5.44333 10.5002 5.38656 10.5017 5.33028 10.5041L4.96309 9.76872C4.87865 9.59985 4.8787 9.40049 4.96309 9.23161L5.96309 7.23161Z" fill="black"/>
<path d="M8.9479 8.1632C9.07842 7.85901 9.43164 7.71776 9.73598 7.84777L15.4206 10.2833L14.9625 9.36828C14.8146 9.07201 14.9349 8.71081 15.2311 8.56261C15.5274 8.41447 15.8885 8.535 16.0368 8.83117L17.0368 10.8312C17.1212 11.0001 17.1212 11.1994 17.0368 11.3683L16.0368 13.3683C15.8886 13.6647 15.5275 13.785 15.2311 13.6368C14.935 13.4885 14.8144 13.1274 14.9625 12.8312L15.5543 11.6476L9.26333 8.95128C8.95916 8.82058 8.81753 8.46757 8.9479 8.1632Z" fill="black"/>
</g>
<g id="component_1">
<path d="M14.082 14.4556C14.3828 14.3168 14.739 14.4479 14.8779 14.7486C15.0166 15.0494 14.8858 15.4066 14.585 15.5455L11.9277 16.771C10.8875 17.2511 9.71327 17.3205 8.63281 16.9839C8.88848 16.6619 9.09573 16.3003 9.24316 15.9087C9.96922 16.0745 10.7368 15.9996 11.4248 15.6822L14.082 14.4556Z" fill="black"/>
<path d="M8.07227 3.22905C9.29538 2.66454 10.7046 2.66453 11.9277 3.22905L15.5898 4.91948C16.5103 5.34452 17.0995 6.26591 17.0996 7.27983V7.50054C17.0993 7.83167 16.8312 8.10014 16.5 8.10014C16.1688 8.10014 15.9007 7.83167 15.9004 7.50054V7.27983C15.9003 6.734 15.5824 6.23824 15.0869 6.00932L11.4248 4.31889C10.5208 3.90164 9.47924 3.90164 8.5752 4.31889L4.91309 6.00932C4.4176 6.23824 4.09967 6.734 4.09961 7.27983V10.7525C3.65723 10.9179 3.25261 11.1599 2.90039 11.4615V7.27983C2.90045 6.26591 3.48965 5.34452 4.41016 4.91948L8.07227 3.22905Z" fill="black"/>
</g>
</g>
</svg>
