<svg width="20" height="20" viewBox="0 0 20 20" fill="none" xmlns="http://www.w3.org/2000/svg">
<g id="type=sysml, icon=item">
<g id="component_3">
<path d="M8.74023 9C9.0492 9.00013 9.29946 9.25066 9.2998 9.55957V11.2402C9.29968 11.5493 9.04933 11.7997 8.74023 11.7998H7.59961C7.59985 12.2452 7.80947 12.6422 8.13379 12.8984C8.05778 12.9112 7.98003 12.9199 7.90039 12.9199C7.12739 12.9199 6.50032 12.2934 6.5 11.5205V9.55957C6.50034 9.25073 6.7507 9.00023 7.05957 9H8.74023Z" fill="black"/>
<path d="M12.0996 9C12.8726 9 13.4997 9.62649 13.5 10.3994V12.3604C13.4998 12.6693 13.2494 12.9197 12.9404 12.9199H11.2598C10.9507 12.9198 10.7004 12.6694 10.7002 12.3604V10.6797C10.7003 10.3706 10.9507 10.1202 11.2598 10.1201H12.4004C12.4001 9.6747 12.1906 9.27773 11.8662 9.02148C11.9422 9.00869 12.02 9.00002 12.0996 9Z" fill="black"/>
</g>
<g id="component_2">
<path d="M8.81156 5.28834C8.86123 5.11751 9.01775 5 9.19566 5H11.6691C11.7358 5 11.7838 5.06393 11.7652 5.12791L11.3048 6.71166C11.2551 6.88249 11.0986 7 10.9207 7H8.4472C8.38057 7 8.33258 6.93607 8.35118 6.87209L8.81156 5.28834Z" fill="black"/>
<path d="M5 5.8C5 5.35817 5.35817 5 5.8 5H7.89003C7.95666 5 8.00465 5.06393 7.98605 5.12791L7.52566 6.71166C7.476 6.88249 7.31947 7 7.14156 7H5.8C5.35817 7 5 6.64183 5 6.2V5.8Z" fill="black"/>
<path d="M12.5906 5.28834C12.6403 5.11751 12.7968 5 12.9747 5H14.2C14.6418 5 15 5.35817 15 5.8V6.2C15 6.64183 14.6418 7 14.2 7H12.2263C12.1596 7 12.1116 6.93607 12.1302 6.87209L12.5906 5.28834Z" fill="black"/>
</g>
<path id="component_1" d="M15.9004 6.5C15.9004 5.17452 14.8255 4.09961 13.5 4.09961H6.5C5.17452 4.09961 4.09961 5.17452 4.09961 6.5V13.5C4.09961 14.8255 5.17452 15.9004 6.5 15.9004H13.5C14.8255 15.9004 15.9004 14.8255 15.9004 13.5V6.5ZM17.0996 13.5C17.0996 15.4882 15.4882 17.0996 13.5 17.0996H6.5C4.51177 17.0996 2.90039 15.4882 2.90039 13.5V6.5C2.90039 4.51177 4.51178 2.90039 6.5 2.90039H13.5C15.4882 2.90039 17.0996 4.51178 17.0996 6.5V13.5Z" fill="black"/>
</g>
</svg>
