<svg width="20" height="20" viewBox="0 0 20 20" fill="none" xmlns="http://www.w3.org/2000/svg">
<g id="type=sysml, icon=constraint_definition">
<path id="component_3" fill-rule="evenodd" clip-rule="evenodd" d="M5.69671 11.5C5.8015 11.5001 5.89309 11.5716 5.91853 11.6733L6.08175 12.3287C6.2739 12.38 6.45591 12.4549 6.62416 12.5522L7.2034 12.2056C7.29332 12.1517 7.40799 12.1658 7.48214 12.24L7.76004 12.5179C7.83419 12.592 7.84827 12.7067 7.79436 12.7966L7.44699 13.3758C7.54423 13.5439 7.61909 13.7255 7.67048 13.9174L8.32673 14.0815C8.42841 14.1069 8.4999 14.1985 8.5 14.3033V14.6967C8.49992 14.8015 8.42842 14.8931 8.32673 14.9185L7.67048 15.0818C7.61916 15.2737 7.54418 15.4552 7.44699 15.6233L7.79436 16.2034C7.84827 16.2933 7.83417 16.408 7.76004 16.4821L7.48214 16.76C7.408 16.8342 7.29333 16.8483 7.2034 16.7944L6.62333 16.447C6.45521 16.5442 6.27373 16.6192 6.08175 16.6705L5.91853 17.3267C5.8931 17.4284 5.80152 17.4999 5.69671 17.5H5.30329C5.19848 17.4999 5.1069 17.4284 5.08147 17.3267L4.91741 16.6705C4.72524 16.619 4.54324 16.5444 4.375 16.447L3.7966 16.7944C3.70666 16.8483 3.59201 16.8342 3.51786 16.76L3.23996 16.4821C3.16583 16.408 3.15171 16.2933 3.20564 16.2034L3.55218 15.6233C3.45504 15.4553 3.37997 15.2737 3.32868 15.0818L2.67327 14.9185C2.57158 14.8931 2.50008 14.8015 2.5 14.6967V14.3033C2.5001 14.1985 2.57159 14.1069 2.67327 14.0815L3.32868 13.9174C3.38003 13.7256 3.455 13.5439 3.55218 13.3758L3.20564 12.7966C3.15175 12.7067 3.16582 12.592 3.23996 12.5179L3.51786 12.24C3.59199 12.1658 3.70668 12.1518 3.7966 12.2056L4.37584 12.5522C4.54386 12.455 4.72555 12.38 4.91741 12.3287L5.08147 11.6733C5.10691 11.5716 5.1985 11.5001 5.30329 11.5H5.69671ZM5.5 13.6002C5.00296 13.6002 4.60019 14.003 4.60017 14.5C4.60017 14.9971 5.00294 15.3998 5.5 15.3998C5.99706 15.3998 6.39983 14.9971 6.39983 14.5C6.39981 14.003 5.99704 13.6002 5.5 13.6002Z" fill="black"/>
<g id="component_2">
<path d="M10.0003 12C10.5524 12.0002 11.0003 12.4478 11.0003 13C11.0003 13.5522 10.5524 13.9998 10.0003 14C9.79363 14 9.60112 13.9375 9.44171 13.8301C9.37227 13.4185 9.24093 13.0286 9.05597 12.6699C9.19235 12.2799 9.56372 12 10.0003 12Z" fill="black"/>
<path d="M10.1751 6C10.6112 6.00017 10.9969 6.28331 11.1282 6.69922L11.1527 6.77539C11.1907 6.89605 11.2058 7.02323 11.1966 7.14941L10.9739 10.2041C10.9367 10.7142 10.5117 11.1092 10.0003 11.1094C9.48878 11.1094 9.06389 10.7143 9.02667 10.2041L8.80402 7.14941C8.79482 7.02318 8.80985 6.89609 8.84796 6.77539L8.8714 6.69922C9.00278 6.28319 9.38922 6 9.8255 6H10.1751Z" fill="black"/>
</g>
<g id="component_1">
<path d="M14.0684 4.74694C14.2081 4.5091 14.5149 4.42884 14.7529 4.56823L15.1104 4.77819C15.875 5.22704 16.3446 6.04784 16.3447 6.93444V8.94713C16.3447 9.07176 16.4179 9.18546 16.5312 9.23717L17.207 9.54479C17.3852 9.62598 17.4999 9.80406 17.5 9.99987C17.5 10.1957 17.3853 10.3737 17.207 10.4549L16.5312 10.7626C16.4179 10.8142 16.3448 10.928 16.3447 11.0526V13.0653C16.3447 13.952 15.875 14.7726 15.1104 15.2215L14.7529 15.4315C14.5148 15.571 14.2081 15.4908 14.0684 15.2528C13.929 15.0147 14.0091 14.7079 14.2471 14.5682L14.6045 14.3592C15.0632 14.0899 15.3447 13.5973 15.3447 13.0653V11.0526C15.3448 10.6318 15.5475 10.2454 15.876 9.99987C15.5476 9.75429 15.3447 9.36797 15.3447 8.94713V6.93444C15.3446 6.40254 15.0632 5.9098 14.6045 5.64049L14.2471 5.43151C14.0091 5.29175 13.9289 4.98499 14.0684 4.74694Z" fill="black"/>
<path d="M5.24707 4.56823C5.48508 4.42884 5.79188 4.5091 5.93164 4.74694C6.07114 4.98499 5.99087 5.29175 5.75293 5.43151L5.39551 5.64049C4.93681 5.9098 4.65537 6.40254 4.65527 6.93444V8.94713C4.65527 9.36797 4.45245 9.75429 4.12402 9.99987C4.33153 10.155 4.48843 10.3666 4.57617 10.6073C4.24637 10.6853 3.93226 10.8039 3.63965 10.9579C3.61297 10.8728 3.55232 10.8006 3.46875 10.7626L2.79297 10.4549C2.61475 10.3737 2.5 10.1957 2.5 9.99987C2.5001 9.80406 2.61477 9.62598 2.79297 9.54479L3.46875 9.23717C3.58214 9.18546 3.65527 9.07176 3.65527 8.94713V6.93444C3.65537 6.04784 4.12505 5.22704 4.88965 4.77819L5.24707 4.56823Z" fill="black"/>
</g>
</g>
</svg>
