<svg width="20" height="20" viewBox="0 0 20 20" fill="none" xmlns="http://www.w3.org/2000/svg">
<g id="type=sysml, icon=state">
<g id="component_3">
<path d="M8.70312 10.378C8.92381 10.3782 9.10352 10.5576 9.10352 10.7783V13.001C9.10304 13.2213 8.92352 13.4001 8.70312 13.4004C8.4825 13.4004 8.30321 13.2215 8.30273 13.001V10.7783C8.30273 10.5574 8.48221 10.378 8.70312 10.378Z" fill="black"/>
<path d="M11.4434 8.89651C11.6641 8.89653 11.8435 9.07526 11.8438 9.29592C11.8437 9.51681 11.6642 9.69629 11.4434 9.69631H10.999C10.8928 9.69631 10.8068 9.78248 10.8066 9.88869V10.378H11.8877C12.1086 10.378 12.2881 10.5574 12.2881 10.7783C12.2878 10.9991 12.1085 11.1787 11.8877 11.1787H10.8066V13.001C10.8062 13.2215 10.6269 13.4004 10.4062 13.4004C10.1856 13.4004 10.0063 13.2215 10.0059 13.001V11.1787H9.96191C9.74115 11.1787 9.56176 10.9991 9.56152 10.7783C9.56152 10.5574 9.741 10.378 9.96191 10.378H10.0059V9.88869C10.006 9.34065 10.4509 8.89553 10.999 8.89553C11.1625 8.89553 11.1817 8.89548 11.2061 8.89553C11.2295 8.89558 11.259 8.89649 11.4434 8.89651Z" fill="black"/>
<path d="M8.70312 9.00002C9.03021 9.00025 9.29492 9.26566 9.29492 9.5928C9.29483 9.91986 9.03015 10.1853 8.70312 10.1856C8.3759 10.1856 8.11044 9.92 8.11035 9.5928C8.11035 9.26552 8.37585 9.00002 8.70312 9.00002Z" fill="black"/>
</g>
<g id="component_2">
<path d="M8.81156 5.28834C8.86123 5.11751 9.01775 5 9.19566 5H11.6691C11.7358 5 11.7838 5.06393 11.7652 5.12791L11.3048 6.71166C11.2551 6.88249 11.0986 7 10.9207 7H8.4472C8.38057 7 8.33258 6.93607 8.35118 6.87209L8.81156 5.28834Z" fill="black"/>
<path d="M5 5.8C5 5.35817 5.35817 5 5.8 5H7.89003C7.95666 5 8.00465 5.06393 7.98605 5.12791L7.52566 6.71166C7.476 6.88249 7.31947 7 7.14156 7H5.8C5.35817 7 5 6.64183 5 6.2V5.8Z" fill="black"/>
<path d="M12.5906 5.28834C12.6403 5.11751 12.7968 5 12.9747 5H14.2C14.6418 5 15 5.35817 15 5.8V6.2C15 6.64183 14.6418 7 14.2 7H12.2263C12.1596 7 12.1116 6.93607 12.1302 6.87209L12.5906 5.28834Z" fill="black"/>
</g>
<path id="component_1" d="M15.9004 6.5C15.9004 5.17452 14.8255 4.09961 13.5 4.09961H6.5C5.17452 4.09961 4.09961 5.17452 4.09961 6.5V13.5C4.09961 14.8255 5.17452 15.9004 6.5 15.9004H13.5C14.8255 15.9004 15.9004 14.8255 15.9004 13.5V6.5ZM17.0996 13.5C17.0996 15.4882 15.4882 17.0996 13.5 17.0996H6.5C4.51177 17.0996 2.90039 15.4882 2.90039 13.5V6.5C2.90039 4.51177 4.51178 2.90039 6.5 2.90039H13.5C15.4882 2.90039 17.0996 4.51178 17.0996 6.5V13.5Z" fill="black"/>
</g>
</svg>
