<svg width="20" height="20" viewBox="0 0 20 20" fill="none" xmlns="http://www.w3.org/2000/svg">
<g id="type=sysml, icon=folder">
<path id="component_1" fill-rule="evenodd" clip-rule="evenodd" d="M16.0947 7.5C17.024 7.5001 17.7297 8.3369 17.5732 9.25293L16.5488 15.2529C16.4257 15.9731 15.801 16.4997 15.0703 16.5H4.94922C4.15152 16.5 3.49324 15.8757 3.45117 15.0791L3.00098 6.52637C3.00052 6.51761 3 6.50876 3 6.5V6C3 5.17157 3.67157 4.5 4.5 4.5H6.9082C7.18699 4.50007 7.46021 4.57788 7.69727 4.72461L8.58691 5.27539C8.82409 5.42221 9.09801 5.5 9.37695 5.5H14.5488C15.348 5.50004 16.0068 6.12665 16.0469 6.9248L16.0752 7.5H16.0947ZM15.0742 7.5L15.0479 6.97461C15.0343 6.70874 14.8151 6.50004 14.5488 6.5H9.37695C8.91205 6.5 8.45584 6.37068 8.06055 6.12598L7.1709 5.5752C7.09195 5.52632 7.00106 5.50007 6.9082 5.5H4.5C4.22386 5.5 4 5.72386 4 6V6.5L4.21094 10.5088L4.4834 8.91602L4.51172 8.74707C4.63491 8.02682 5.25953 7.50017 5.99023 7.5H15.0742ZM5.99023 8.5C5.74674 8.50017 5.53907 8.67597 5.49805 8.91602L5.46875 9.08398L4.47266 14.916C4.42064 15.2213 4.6561 15.5 4.96582 15.5H15.0703C15.3137 15.4997 15.5215 15.324 15.5625 15.084L16.5879 9.08398C16.6399 8.77877 16.4044 8.5001 16.0947 8.5H5.99023Z" fill="black"/>
</g>
</svg>
