<svg width="20" height="20" viewBox="0 0 20 20" fill="none" xmlns="http://www.w3.org/2000/svg">
<g id="type=sysml, icon=constraint">
<g id="component_2">
<path d="M10.9999 13C10.9999 13.5523 10.5522 14 9.99995 14C9.44766 14 8.99995 13.5523 8.99995 13C8.99995 12.4477 9.44766 12 9.99995 12C10.5522 12 10.9999 12.4477 10.9999 13Z" fill="black"/>
<path d="M8.87181 6.69887C9.00319 6.28284 9.38911 6 9.82539 6H10.1747C10.611 6 10.9969 6.28284 11.1283 6.69887L11.1524 6.77526C11.1905 6.89597 11.2054 7.02282 11.1962 7.14907L10.9736 10.204C10.9364 10.7142 10.5116 11.1092 10.0001 11.1092C9.4885 11.1092 9.06372 10.7142 9.02654 10.204L8.80391 7.14907C8.79471 7.02282 8.80957 6.89597 8.84769 6.77526L8.87181 6.69887Z" fill="black"/>
</g>
<g id="component_1">
<path d="M5.24707 4.56825C5.4851 4.42883 5.79188 4.50908 5.93164 4.74696C6.07114 4.98502 5.99088 5.29177 5.75293 5.43153L5.39551 5.64051C4.9368 5.90982 4.65535 6.40254 4.65527 6.93446V8.94715C4.65527 9.368 4.45246 9.75431 4.12402 9.99989C4.45247 10.2454 4.65521 10.6318 4.65527 11.0526V13.0653C4.65527 13.5973 4.93679 14.0899 5.39551 14.3593L5.75293 14.5682C5.9909 14.7079 6.07103 15.0147 5.93164 15.2528C5.79191 15.4908 5.48516 15.571 5.24707 15.4315L4.88965 15.2216C4.12503 14.7727 3.65527 13.952 3.65527 13.0653V11.0526C3.65519 10.928 3.58213 10.8142 3.46875 10.7626L2.79297 10.455C2.61474 10.3737 2.5 10.1958 2.5 9.99989C2.50008 9.80406 2.61475 9.62601 2.79297 9.54481L3.46875 9.23719C3.58215 9.18549 3.65527 9.07179 3.65527 8.94715V6.93446C3.65535 6.04784 4.12503 5.22707 4.88965 4.77821L5.24707 4.56825Z" fill="black"/>
<path d="M14.0684 4.74696C14.2081 4.50909 14.5149 4.42883 14.7529 4.56825L15.1104 4.77821C15.875 5.22707 16.3447 6.04784 16.3447 6.93446V8.94715C16.3447 9.07179 16.4179 9.18549 16.5312 9.23719L17.207 9.54481C17.3852 9.62601 17.4999 9.80406 17.5 9.99989C17.5 10.1958 17.3853 10.3737 17.207 10.455L16.5312 10.7626C16.4179 10.8142 16.3448 10.928 16.3447 11.0526V13.0653C16.3447 13.952 15.875 14.7727 15.1104 15.2216L14.7529 15.4315C14.5148 15.571 14.2081 15.4908 14.0684 15.2528C13.929 15.0147 14.0091 14.7079 14.2471 14.5682L14.6045 14.3593C15.0632 14.0899 15.3447 13.5973 15.3447 13.0653V11.0526C15.3448 10.6318 15.5475 10.2454 15.876 9.99989C15.5475 9.75431 15.3447 9.368 15.3447 8.94715V6.93446C15.3447 6.40254 15.0632 5.90982 14.6045 5.64051L14.2471 5.43153C14.0091 5.29177 13.9289 4.98502 14.0684 4.74696Z" fill="black"/>
</g>
</g>
</svg>
