<svg width="20" height="20" viewBox="0 0 20 20" fill="none" xmlns="http://www.w3.org/2000/svg">
<g id="type=sysml, icon=usecase">
<path id="component_3" fill-rule="evenodd" clip-rule="evenodd" d="M10 8.5C11.3807 8.5 12.5 9.61929 12.5 11C12.5 12.3807 11.3807 13.5 10 13.5C8.61929 13.5 7.5 12.3807 7.5 11C7.5 9.61929 8.61929 8.5 10 8.5ZM10 11.25C9.36204 11.25 8.79479 11.5494 8.42871 12.0146C8.37784 12.0793 8.37784 12.1707 8.42871 12.2354C8.79479 12.7006 9.36204 13 10 13C10.638 13 11.2052 12.7006 11.5713 12.2354C11.6222 12.1707 11.6222 12.0793 11.5713 12.0146C11.2052 11.5494 10.638 11.25 10 11.25ZM10 9.25C9.58579 9.25 9.25 9.58579 9.25 10C9.25 10.4142 9.58579 10.75 10 10.75C10.4142 10.75 10.75 10.4142 10.75 10C10.75 9.58579 10.4142 9.25 10 9.25Z" fill="black"/>
<g id="component_2">
<path d="M8.81156 5.28834C8.86123 5.11751 9.01775 5 9.19566 5H11.6691C11.7358 5 11.7838 5.06393 11.7652 5.12791L11.3048 6.71166C11.2551 6.88249 11.0986 7 10.9207 7H8.4472C8.38057 7 8.33258 6.93607 8.35118 6.87209L8.81156 5.28834Z" fill="black"/>
<path d="M5 5.8C5 5.35817 5.35817 5 5.8 5H7.89003C7.95666 5 8.00465 5.06393 7.98605 5.12791L7.52566 6.71166C7.476 6.88249 7.31947 7 7.14156 7H5.8C5.35817 7 5 6.64183 5 6.2V5.8Z" fill="black"/>
<path d="M12.5906 5.28834C12.6403 5.11751 12.7968 5 12.9747 5H14.2C14.6418 5 15 5.35817 15 5.8V6.2C15 6.64183 14.6418 7 14.2 7H12.2263C12.1596 7 12.1116 6.93607 12.1302 6.87209L12.5906 5.28834Z" fill="black"/>
</g>
<path id="component_1" d="M15.9004 6.5C15.9004 5.17452 14.8255 4.09961 13.5 4.09961H6.5C5.17452 4.09961 4.09961 5.17452 4.09961 6.5V13.5C4.09961 14.8255 5.17452 15.9004 6.5 15.9004H13.5C14.8255 15.9004 15.9004 14.8255 15.9004 13.5V6.5ZM17.0996 13.5C17.0996 15.4882 15.4882 17.0996 13.5 17.0996H6.5C4.51177 17.0996 2.90039 15.4882 2.90039 13.5V6.5C2.90039 4.51177 4.51178 2.90039 6.5 2.90039H13.5C15.4882 2.90039 17.0996 4.51178 17.0996 6.5V13.5Z" fill="black"/>
</g>
</svg>
