<svg width="20" height="20" viewBox="0 0 20 20" fill="none" xmlns="http://www.w3.org/2000/svg">
<g id="type=sysml, icon=attribute">
<path id="component_2" d="M9.73775 6.15896C9.85679 5.93869 10.196 5.95414 10.2837 6.20584L11.0835 8.5076L13.521 8.55838C13.8047 8.56447 13.9221 8.92443 13.6967 9.09646L11.7534 10.5691L12.4594 12.9021C12.5417 13.1742 12.2348 13.3979 12.0014 13.2361L10.0004 11.8426L7.99947 13.2361C7.76604 13.3981 7.45914 13.1742 7.54146 12.9021L8.24654 10.5691L6.30416 9.09646C6.07819 8.92446 6.19578 8.56417 6.47994 8.55838L8.91646 8.5076L9.71724 6.20584L9.73775 6.15896Z" fill="black"/>
<g id="component_1">
<path d="M5.24707 4.56825C5.4851 4.42883 5.79188 4.50908 5.93164 4.74696C6.07114 4.98502 5.99088 5.29177 5.75293 5.43153L5.39551 5.64051C4.9368 5.90982 4.65535 6.40254 4.65527 6.93446V8.94715C4.65527 9.368 4.45246 9.75431 4.12402 9.99989C4.45247 10.2454 4.65521 10.6318 4.65527 11.0526V13.0653C4.65527 13.5973 4.93679 14.0899 5.39551 14.3593L5.75293 14.5682C5.9909 14.7079 6.07103 15.0147 5.93164 15.2528C5.79191 15.4908 5.48516 15.571 5.24707 15.4315L4.88965 15.2216C4.12503 14.7727 3.65527 13.952 3.65527 13.0653V11.0526C3.65519 10.928 3.58213 10.8142 3.46875 10.7626L2.79297 10.455C2.61474 10.3737 2.5 10.1958 2.5 9.99989C2.50008 9.80406 2.61475 9.62601 2.79297 9.54481L3.46875 9.23719C3.58215 9.18549 3.65527 9.07179 3.65527 8.94715V6.93446C3.65535 6.04784 4.12503 5.22707 4.88965 4.77821L5.24707 4.56825Z" fill="black"/>
<path d="M14.0684 4.74696C14.2081 4.50909 14.5149 4.42883 14.7529 4.56825L15.1104 4.77821C15.875 5.22707 16.3447 6.04784 16.3447 6.93446V8.94715C16.3447 9.07179 16.4179 9.18549 16.5312 9.23719L17.207 9.54481C17.3852 9.62601 17.4999 9.80406 17.5 9.99989C17.5 10.1958 17.3853 10.3737 17.207 10.455L16.5312 10.7626C16.4179 10.8142 16.3448 10.928 16.3447 11.0526V13.0653C16.3447 13.952 15.875 14.7727 15.1104 15.2216L14.7529 15.4315C14.5148 15.571 14.2081 15.4908 14.0684 15.2528C13.929 15.0147 14.0091 14.7079 14.2471 14.5682L14.6045 14.3593C15.0632 14.0899 15.3447 13.5973 15.3447 13.0653V11.0526C15.3448 10.6318 15.5475 10.2454 15.876 9.99989C15.5475 9.75431 15.3447 9.368 15.3447 8.94715V6.93446C15.3447 6.40254 15.0632 5.90982 14.6045 5.64051L14.2471 5.43153C14.0091 5.29177 13.9289 4.98502 14.0684 4.74696Z" fill="black"/>
</g>
</g>
</svg>
