<svg width="20" height="20" viewBox="0 0 20 20" fill="none" xmlns="http://www.w3.org/2000/svg">
<g id="type=sysml, icon=part">
<path id="component_2" d="M8.85645 5.89133C9.57774 5.53818 10.4223 5.53818 11.1436 5.89133L13.4834 7.03781C13.8604 7.22247 14.0995 7.60629 14.0996 8.02609V11.9734C14.0996 12.3932 13.8604 12.7769 13.4834 12.9616L11.1436 14.1081C10.4222 14.4613 9.57779 14.4613 8.85645 14.1081L6.5166 12.9616C6.13956 12.7769 5.90039 12.3932 5.90039 11.9734V8.02609C5.90048 7.60629 6.13958 7.22247 6.5166 7.03781L8.85645 5.89133Z" fill="black"/>
<path id="component_1" d="M15.9004 7.27931C15.9002 6.73349 15.5824 6.23764 15.0869 6.0088L11.4248 4.31837C10.5208 3.90113 9.47923 3.90113 8.5752 4.31837L4.91309 6.0088C4.41756 6.23764 4.09975 6.73349 4.09961 7.27931V12.7207C4.09975 13.2665 4.41756 13.7624 4.91309 13.9912L8.5752 15.6817C9.47923 16.0989 10.5208 16.0989 11.4248 15.6817L15.0869 13.9912C15.5824 13.7624 15.9002 13.2665 15.9004 12.7207V7.27931ZM17.0996 12.7207C17.0995 13.7346 16.5104 14.6561 15.5898 15.0811L11.9277 16.7715C10.7047 17.336 9.29534 17.336 8.07227 16.7715L4.41016 15.0811C3.48961 14.6561 2.90053 13.7346 2.90039 12.7207V7.27931C2.90053 6.2654 3.48961 5.34393 4.41016 4.91896L8.07227 3.22853C9.29534 2.66406 10.7047 2.66406 11.9277 3.22853L15.5898 4.91896C16.5104 5.34393 17.0995 6.2654 17.0996 7.27931V12.7207Z" fill="black"/>
</g>
</svg>
