<svg width="20" height="20" viewBox="0 0 20 20" fill="none" xmlns="http://www.w3.org/2000/svg">
<g id="type=sysml, icon=package">
<path id="component_1" d="M16 3.5C16.5523 3.5 17 3.94771 17 4.5V5.5C17 6.05228 16.5523 6.5 16 6.5V14C16 15.3807 14.8807 16.5 13.5 16.5H6.5C5.11929 16.5 4 15.3807 4 14V6.5C3.44772 6.5 3 6.05229 3 5.5V4.5C3 3.94772 3.44772 3.5 4 3.5H16ZM5 14C5 14.8284 5.67157 15.5 6.5 15.5H13.5C14.3284 15.5 15 14.8284 15 14V6.5H5V14ZM12 8.40039C12.3314 8.40039 12.5996 8.66863 12.5996 9C12.5996 9.33137 12.3314 9.59961 12 9.59961H8C7.66863 9.59961 7.40039 9.33137 7.40039 9C7.40039 8.66863 7.66863 8.40039 8 8.40039H12ZM4 5.5H16V4.5H4V5.5Z" fill="black"/>
</g>
</svg>
