<svg width="20" height="20" viewBox="0 0 20 20" fill="none" xmlns="http://www.w3.org/2000/svg">
<g id="type=sysml, icon=interface_definition">
<path id="component_3" fill-rule="evenodd" clip-rule="evenodd" d="M5.69671 11.5C5.8015 11.5001 5.89309 11.5716 5.91853 11.6733L6.08175 12.3287C6.2739 12.38 6.45591 12.4549 6.62416 12.5522L7.2034 12.2056C7.29332 12.1517 7.40799 12.1658 7.48214 12.24L7.76004 12.5179C7.83419 12.592 7.84827 12.7067 7.79436 12.7966L7.44699 13.3758C7.54423 13.5439 7.61909 13.7255 7.67048 13.9174L8.32673 14.0815C8.42841 14.1069 8.4999 14.1985 8.5 14.3033V14.6967C8.49992 14.8015 8.42842 14.8931 8.32673 14.9185L7.67048 15.0818C7.61916 15.2737 7.54418 15.4552 7.44699 15.6233L7.79436 16.2034C7.84827 16.2933 7.83417 16.408 7.76004 16.4821L7.48214 16.76C7.408 16.8342 7.29333 16.8483 7.2034 16.7944L6.62333 16.447C6.45521 16.5442 6.27373 16.6192 6.08175 16.6705L5.91853 17.3267C5.8931 17.4284 5.80152 17.4999 5.69671 17.5H5.30329C5.19848 17.4999 5.1069 17.4284 5.08147 17.3267L4.91741 16.6705C4.72524 16.619 4.54324 16.5444 4.375 16.447L3.7966 16.7944C3.70666 16.8483 3.59201 16.8342 3.51786 16.76L3.23996 16.4821C3.16583 16.408 3.15171 16.2933 3.20564 16.2034L3.55218 15.6233C3.45504 15.4553 3.37997 15.2737 3.32868 15.0818L2.67327 14.9185C2.57158 14.8931 2.50008 14.8015 2.5 14.6967V14.3033C2.5001 14.1985 2.57159 14.1069 2.67327 14.0815L3.32868 13.9174C3.38003 13.7256 3.455 13.5439 3.55218 13.3758L3.20564 12.7966C3.15175 12.7067 3.16582 12.592 3.23996 12.5179L3.51786 12.24C3.59199 12.1658 3.70668 12.1518 3.7966 12.2056L4.37584 12.5522C4.54386 12.455 4.72555 12.38 4.91741 12.3287L5.08147 11.6733C5.10691 11.5716 5.1985 11.5001 5.30329 11.5H5.69671ZM5.5 13.6002C5.00296 13.6002 4.60019 14.003 4.60017 14.5C4.60017 14.9971 5.00294 15.3998 5.5 15.3998C5.99706 15.3998 6.39983 14.9971 6.39983 14.5C6.39981 14.003 5.99704 13.6002 5.5 13.6002Z" fill="black"/>
<path id="component_2" d="M8.70703 5.401C8.98438 5.4197 9.21292 5.62682 9.25879 5.901L10.1943 11.5172L11.4307 7.81018L11.4688 7.72033C11.5733 7.52165 11.7828 7.39516 12.0127 7.40002C12.2755 7.40573 12.5047 7.5819 12.5771 7.83459L13.1191 9.73303H14C14.3311 9.73303 14.5992 10.0016 14.5996 10.3326C14.5996 10.664 14.3314 10.9332 14 10.9332H12.667C12.3991 10.9332 12.1634 10.7553 12.0898 10.4977L11.9551 10.0289L10.5693 14.1891C10.4822 14.4506 10.2279 14.6198 9.95312 14.5983C9.76081 14.5832 9.59407 14.4772 9.49512 14.3219C9.47594 13.8844 9.38599 13.4658 9.2373 13.0758L8.49219 8.6051L7.90723 10.5094C7.82976 10.7612 7.59641 10.9332 7.33301 10.9332H7.30957C6.76603 10.6569 6.1515 10.4996 5.5 10.4996C5.47553 10.4996 5.45112 10.5011 5.42676 10.5016C5.41104 10.4479 5.40039 10.3914 5.40039 10.3326C5.40077 10.0016 5.66886 9.73303 6 9.73303H6.88965L8.09277 5.82287L8.13184 5.72815C8.2391 5.51688 8.46417 5.38479 8.70703 5.401Z" fill="black"/>
<path id="component_1" d="M8.07227 3.22901C9.29534 2.66455 10.7047 2.66455 11.9277 3.22901L15.5898 4.91944C16.5103 5.34446 17.0995 6.26596 17.0996 7.2798V12.7212C17.0993 13.7349 16.5102 14.6566 15.5898 15.0816L11.9277 16.772C10.8876 17.252 9.71322 17.3213 8.63281 16.9849C8.8887 16.6627 9.09564 16.3005 9.24316 15.9087C9.96918 16.0745 10.7368 15.9996 11.4248 15.6821L15.0869 13.9917C15.5823 13.7629 15.9001 13.2668 15.9004 12.7212V7.2798C15.9002 6.73404 15.5823 6.23817 15.0869 6.00929L11.4248 4.31886C10.5208 3.90162 9.47923 3.90162 8.5752 4.31886L4.91309 6.00929C4.41766 6.23817 4.09975 6.73404 4.09961 7.2798V10.7525C3.65723 10.9178 3.25261 11.1598 2.90039 11.4614V7.2798C2.90053 6.26596 3.48971 5.34446 4.41016 4.91944L8.07227 3.22901Z" fill="black"/>
</g>
</svg>
