<svg width="20" height="20" viewBox="0 0 20 20" fill="none" xmlns="http://www.w3.org/2000/svg">
<g id="type=sysml, icon=interface">
<path id="component_2" d="M8.70703 5.40137C8.9845 5.42008 9.21306 5.62702 9.25879 5.90137L10.1943 11.5176L11.4307 7.81055L11.4688 7.7207C11.5732 7.52185 11.7827 7.39552 12.0127 7.40039C12.2757 7.40611 12.5048 7.58209 12.5771 7.83496L13.1191 9.7334H14C14.3313 9.7334 14.5994 10.0018 14.5996 10.333C14.5996 10.6644 14.3314 10.9336 14 10.9336H12.667C12.3991 10.9336 12.1634 10.7556 12.0898 10.498L11.9551 10.0293L10.5693 14.1895C10.4822 14.4509 10.2279 14.6202 9.95312 14.5986C9.67831 14.5771 9.45352 14.3705 9.4082 14.0986L8.49219 8.60547L7.90723 10.5098C7.82976 10.7615 7.59641 10.9336 7.33301 10.9336H6C5.66863 10.9336 5.40039 10.6644 5.40039 10.333C5.40057 10.0018 5.66874 9.7334 6 9.7334H6.88965L8.09277 5.82324L8.13184 5.72852C8.23904 5.51707 8.46405 5.38514 8.70703 5.40137Z" fill="black"/>
<path id="component_1" d="M15.9004 7.27931C15.9002 6.73349 15.5824 6.23764 15.0869 6.0088L11.4248 4.31837C10.5208 3.90113 9.47923 3.90113 8.5752 4.31837L4.91309 6.0088C4.41756 6.23764 4.09975 6.73349 4.09961 7.27931V12.7207C4.09975 13.2665 4.41756 13.7624 4.91309 13.9912L8.5752 15.6817C9.47923 16.0989 10.5208 16.0989 11.4248 15.6817L15.0869 13.9912C15.5824 13.7624 15.9002 13.2665 15.9004 12.7207V7.27931ZM17.0996 12.7207C17.0995 13.7346 16.5104 14.6561 15.5898 15.0811L11.9277 16.7715C10.7047 17.336 9.29534 17.336 8.07227 16.7715L4.41016 15.0811C3.48961 14.6561 2.90053 13.7346 2.90039 12.7207V7.27931C2.90053 6.2654 3.48961 5.34393 4.41016 4.91896L8.07227 3.22853C9.29534 2.66406 10.7047 2.66406 11.9277 3.22853L15.5898 4.91896C16.5104 5.34393 17.0995 6.2654 17.0996 7.27931V12.7207Z" fill="black"/>
</g>
</svg>
