<svg width="20" height="20" viewBox="0 0 20 20" fill="none" xmlns="http://www.w3.org/2000/svg">
<g id="type=sysml, icon=requirement_definition">
<path id="component_4" fill-rule="evenodd" clip-rule="evenodd" d="M5.69671 11.5C5.8015 11.5001 5.89309 11.5716 5.91853 11.6733L6.08175 12.3287C6.2739 12.38 6.45591 12.4549 6.62416 12.5522L7.2034 12.2056C7.29332 12.1517 7.40799 12.1658 7.48214 12.24L7.76004 12.5179C7.83419 12.592 7.84827 12.7067 7.79436 12.7966L7.44699 13.3758C7.54423 13.5439 7.61909 13.7255 7.67048 13.9174L8.32673 14.0815C8.42841 14.1069 8.4999 14.1985 8.5 14.3033V14.6967C8.49992 14.8015 8.42842 14.8931 8.32673 14.9185L7.67048 15.0818C7.61916 15.2737 7.54418 15.4552 7.44699 15.6233L7.79436 16.2034C7.84827 16.2933 7.83417 16.408 7.76004 16.4821L7.48214 16.76C7.408 16.8342 7.29333 16.8483 7.2034 16.7944L6.62333 16.447C6.45521 16.5442 6.27373 16.6192 6.08175 16.6705L5.91853 17.3267C5.8931 17.4284 5.80152 17.4999 5.69671 17.5H5.30329C5.19848 17.4999 5.1069 17.4284 5.08147 17.3267L4.91741 16.6705C4.72524 16.619 4.54324 16.5444 4.375 16.447L3.7966 16.7944C3.70666 16.8483 3.59201 16.8342 3.51786 16.76L3.23996 16.4821C3.16583 16.408 3.15171 16.2933 3.20564 16.2034L3.55218 15.6233C3.45504 15.4553 3.37997 15.2737 3.32868 15.0818L2.67327 14.9185C2.57158 14.8931 2.50008 14.8015 2.5 14.6967V14.3033C2.5001 14.1985 2.57159 14.1069 2.67327 14.0815L3.32868 13.9174C3.38003 13.7256 3.455 13.5439 3.55218 13.3758L3.20564 12.7966C3.15175 12.7067 3.16582 12.592 3.23996 12.5179L3.51786 12.24C3.59199 12.1658 3.70668 12.1518 3.7966 12.2056L4.37584 12.5522C4.54386 12.455 4.72555 12.38 4.91741 12.3287L5.08147 11.6733C5.10691 11.5716 5.1985 11.5001 5.30329 11.5H5.69671ZM5.5 13.6002C5.00296 13.6002 4.60019 14.003 4.60017 14.5C4.60017 14.9971 5.00294 15.3998 5.5 15.3998C5.99706 15.3998 6.39983 14.9971 6.39983 14.5C6.39981 14.003 5.99704 13.6002 5.5 13.6002Z" fill="black"/>
<g id="component_3">
<path d="M5.5 9.59961C5.72091 9.59961 5.90039 9.77909 5.90039 10C5.90039 10.2209 5.72091 10.4004 5.5 10.4004H4C3.77909 10.4004 3.59961 10.2209 3.59961 10C3.59961 9.77909 3.77909 9.59961 4 9.59961H5.5Z" fill="black"/>
<path d="M5.5 7.59961C5.72091 7.59961 5.90039 7.77909 5.90039 8C5.90039 8.22091 5.72091 8.40039 5.5 8.40039H4.5C4.27909 8.40039 4.09961 8.22091 4.09961 8C4.09961 7.77909 4.27909 7.59961 4.5 7.59961H5.5Z" fill="black"/>
<path d="M5.5 5.59961C5.72091 5.59961 5.90039 5.77909 5.90039 6C5.90039 6.22091 5.72091 6.40039 5.5 6.40039H4C3.77909 6.40039 3.59961 6.22091 3.59961 6C3.59961 5.77909 3.77909 5.59961 4 5.59961H5.5Z" fill="black"/>
</g>
<g id="component_2">
<path d="M11.75 11.9996C12.1641 11.9996 12.4998 12.3356 12.5 12.7496C12.5 13.1638 12.1642 13.4996 11.75 13.4996C11.3358 13.4996 11 13.1638 11 12.7496C11.0002 12.3356 11.3359 11.9996 11.75 11.9996Z" fill="black"/>
<path d="M11.75 6.30042C12.8263 6.30042 13.8495 7.07286 13.8496 8.19983C13.8496 8.7588 13.5852 9.24544 13.1953 9.57971C12.9433 9.79563 12.7254 9.98102 12.5625 10.1803C12.4042 10.3741 12.3496 10.5204 12.3496 10.6432V10.8004C12.3494 11.1316 12.0812 11.4 11.75 11.4C11.4188 11.4 11.1506 11.1316 11.1504 10.8004V10.6432C11.1504 10.1348 11.3837 9.72645 11.6328 9.42151C11.8773 9.12222 12.1869 8.86321 12.4141 8.66858C12.5739 8.53157 12.6504 8.36396 12.6504 8.19983C12.6503 7.89099 12.3304 7.49963 11.75 7.49963C11.1696 7.49963 10.8497 7.89099 10.8496 8.19983C10.8496 8.5312 10.5814 8.80042 10.25 8.80042C9.91863 8.80042 9.65039 8.5312 9.65039 8.19983C9.65051 7.07286 10.6737 6.30042 11.75 6.30042Z" fill="black"/>
</g>
<path id="component_1" d="M13.0859 3.5C13.4837 3.50004 13.8652 3.65818 14.1465 3.93945L16.0605 5.85352C16.3418 6.13478 16.5 6.51629 16.5 6.91406V15C16.5 15.8284 15.8284 16.5 15 16.5H8.96387C9.14303 16.1904 9.28267 15.8549 9.37402 15.5H15C15.2761 15.5 15.5 15.2761 15.5 15V6.91406C15.5 6.78151 15.4472 6.65428 15.3535 6.56055L13.4395 4.64648C13.3457 4.55275 13.2185 4.50004 13.0859 4.5H8.5C8.22386 4.5 8 4.72386 8 5V11.3779C7.69925 11.1368 7.36279 10.9389 7 10.792V5C7 4.17157 7.67157 3.5 8.5 3.5H13.0859Z" fill="black"/>
</g>
</svg>
