<svg width="20" height="20" viewBox="0 0 20 20" fill="none" xmlns="http://www.w3.org/2000/svg">
<g id="type=sysml, icon=port">
<g id="component_2">
<path d="M8.9478 8.16322C9.07833 7.85903 9.43154 7.71778 9.73589 7.84779L15.4205 10.2833L14.9625 9.3683C14.8145 9.07203 14.9348 8.71083 15.231 8.56264C15.5273 8.41449 15.8884 8.53503 16.0367 8.83119L17.0367 10.8312C17.1211 11.0001 17.1211 11.1994 17.0367 11.3683L16.0367 13.3683C15.8885 13.6647 15.5274 13.785 15.231 13.6369C14.9349 13.4886 14.8143 13.1275 14.9625 12.8312L15.5542 11.6476L9.26323 8.95131C8.95907 8.8206 8.81743 8.46759 8.9478 8.16322Z" fill="black"/>
<path d="M5.96312 7.23152C6.11132 6.93514 6.47241 6.81477 6.76879 6.96296C7.06508 7.11119 7.1855 7.47228 7.03734 7.76863L6.44457 8.95124L12.7366 11.6485C13.0409 11.7791 13.1824 12.1321 13.052 12.4366C12.9215 12.7409 12.5683 12.8822 12.2639 12.752L6.57836 10.3155L7.03734 11.2315C7.18545 11.5279 7.06508 11.889 6.76879 12.0372C6.47243 12.1854 6.11135 12.0649 5.96312 11.7686L4.96312 9.76863C4.87867 9.59971 4.87867 9.40043 4.96312 9.23152L5.96312 7.23152Z" fill="black"/>
</g>
<path id="component_1" d="M15.9004 7.50017V7.27947C15.9003 6.73359 15.5825 6.23785 15.0869 6.00896L11.4248 4.31853C10.5208 3.90128 9.47924 3.90128 8.5752 4.31853L4.91309 6.00896C4.41754 6.23785 4.09967 6.73359 4.09961 7.27947V12.7199C4.09961 13.2659 4.4174 13.7625 4.91309 13.9914L8.5752 15.6818C9.47918 16.099 10.5208 16.099 11.4248 15.6818L14.082 14.4552C14.3828 14.3164 14.739 14.4476 14.8779 14.7482C15.0168 15.0491 14.8858 15.4062 14.585 15.5451L11.9277 16.7707C10.7046 17.3352 9.29538 17.3352 8.07227 16.7707L4.41016 15.0812C3.48945 14.6562 2.90039 13.734 2.90039 12.7199V7.27947C2.90045 6.26551 3.48959 5.34414 4.41016 4.91911L8.07227 3.22868C9.29538 2.66417 10.7046 2.66417 11.9277 3.22868L15.5898 4.91911C16.5104 5.34414 17.0995 6.26551 17.0996 7.27947V7.50017C17.0995 7.83143 16.8313 8.09978 16.5 8.09978C16.1687 8.09978 15.9005 7.83143 15.9004 7.50017Z" fill="black"/>
</g>
</svg>
