<svg width="20" height="20" viewBox="0 0 20 20" fill="none" xmlns="http://www.w3.org/2000/svg">
<g id="type=sysml, icon=state_definition">
<path id="component_4" fill-rule="evenodd" clip-rule="evenodd" d="M5.69671 11.5C5.8015 11.5001 5.89309 11.5716 5.91853 11.6733L6.08175 12.3287C6.2739 12.38 6.45591 12.4549 6.62416 12.5522L7.2034 12.2056C7.29332 12.1517 7.40799 12.1658 7.48214 12.24L7.76004 12.5179C7.83419 12.592 7.84827 12.7067 7.79436 12.7966L7.44699 13.3758C7.54423 13.5439 7.61909 13.7255 7.67048 13.9174L8.32673 14.0815C8.42841 14.1069 8.4999 14.1985 8.5 14.3033V14.6967C8.49992 14.8015 8.42842 14.8931 8.32673 14.9185L7.67048 15.0818C7.61916 15.2737 7.54418 15.4552 7.44699 15.6233L7.79436 16.2034C7.84827 16.2933 7.83417 16.408 7.76004 16.4821L7.48214 16.76C7.408 16.8342 7.29333 16.8483 7.2034 16.7944L6.62333 16.447C6.45521 16.5442 6.27373 16.6192 6.08175 16.6705L5.91853 17.3267C5.8931 17.4284 5.80152 17.4999 5.69671 17.5H5.30329C5.19848 17.4999 5.1069 17.4284 5.08147 17.3267L4.91741 16.6705C4.72524 16.619 4.54324 16.5444 4.375 16.447L3.7966 16.7944C3.70666 16.8483 3.59201 16.8342 3.51786 16.76L3.23996 16.4821C3.16583 16.408 3.15171 16.2933 3.20564 16.2034L3.55218 15.6233C3.45504 15.4553 3.37997 15.2737 3.32868 15.0818L2.67327 14.9185C2.57158 14.8931 2.50008 14.8015 2.5 14.6967V14.3033C2.5001 14.1985 2.57159 14.1069 2.67327 14.0815L3.32868 13.9174C3.38003 13.7256 3.455 13.5439 3.55218 13.3758L3.20564 12.7966C3.15175 12.7067 3.16582 12.592 3.23996 12.5179L3.51786 12.24C3.59199 12.1658 3.70668 12.1518 3.7966 12.2056L4.37584 12.5522C4.54386 12.455 4.72555 12.38 4.91741 12.3287L5.08147 11.6733C5.10691 11.5716 5.1985 11.5001 5.30329 11.5H5.69671ZM5.5 13.6002C5.00296 13.6002 4.60019 14.003 4.60017 14.5C4.60017 14.9971 5.00294 15.3998 5.5 15.3998C5.99706 15.3998 6.39983 14.9971 6.39983 14.5C6.39981 14.003 5.99704 13.6002 5.5 13.6002Z" fill="black"/>
<g id="component_3">
<path d="M11.4434 8.89651C11.664 8.89666 11.8435 9.07534 11.8438 9.29592C11.8437 9.51673 11.6641 9.69616 11.4434 9.69631H10.999C10.8929 9.69644 10.8068 9.78255 10.8066 9.88869V10.377H11.8887C12.1091 10.3774 12.2888 10.5569 12.2891 10.7774C12.2891 10.998 12.1092 11.1774 11.8887 11.1778H10.8066V13C10.8064 13.2206 10.6269 13.3993 10.4062 13.3994C10.1856 13.3993 10.0061 13.2206 10.0059 13V11.1778H9.96289C9.74198 11.1778 9.5625 10.9983 9.5625 10.7774C9.56279 10.5567 9.74215 10.377 9.96289 10.377H10.0059V9.88869C10.006 9.34072 10.451 8.89566 10.999 8.89553C11.1617 8.89553 11.1818 8.89548 11.2061 8.89553C11.2294 8.89558 11.2599 8.89649 11.4434 8.89651Z" fill="black"/>
<path d="M8.70312 10.377C8.92364 10.3772 9.10323 10.5569 9.10352 10.7774V12.7617C8.90195 12.3447 8.62948 11.9686 8.30273 11.6475V10.7774C8.30302 10.5567 8.48239 10.377 8.70312 10.377Z" fill="black"/>
<path d="M8.70312 9.00002C9.03011 9.00025 9.29574 9.26579 9.2959 9.59279C9.29565 9.91972 9.03005 10.1844 8.70312 10.1846C8.376 10.1846 8.1106 9.91986 8.11035 9.59279C8.11051 9.26565 8.37594 9.00002 8.70312 9.00002Z" fill="black"/>
</g>
<g id="component_2">
<path d="M8.81156 5.28834C8.86123 5.11751 9.01775 5 9.19566 5H11.6691C11.7358 5 11.7838 5.06393 11.7652 5.12791L11.3048 6.71166C11.2551 6.88249 11.0986 7 10.9207 7H8.4472C8.38057 7 8.33258 6.93607 8.35118 6.87209L8.81156 5.28834Z" fill="black"/>
<path d="M5 5.8C5 5.35817 5.35817 5 5.8 5H7.89003C7.95666 5 8.00465 5.06393 7.98605 5.12791L7.52566 6.71166C7.476 6.88249 7.31947 7 7.14156 7H5.8C5.35817 7 5 6.64183 5 6.2V5.8Z" fill="black"/>
<path d="M12.5906 5.28834C12.6403 5.11751 12.7968 5 12.9747 5H14.2C14.6418 5 15 5.35817 15 5.8V6.2C15 6.64183 14.6418 7 14.2 7H12.2263C12.1596 7 12.1116 6.93607 12.1302 6.87209L12.5906 5.28834Z" fill="black"/>
</g>
<path id="component_1" d="M13.5 2.90039C15.4882 2.90039 17.0996 4.51178 17.0996 6.5V13.5C17.0996 15.4882 15.4882 17.0996 13.5 17.0996H8.53906C8.84055 16.7475 9.08173 16.3426 9.24707 15.9004H13.5C14.8255 15.9004 15.9004 14.8255 15.9004 13.5V6.5C15.9004 5.17452 14.8255 4.09961 13.5 4.09961H6.5C5.17452 4.09961 4.09961 5.17452 4.09961 6.5V10.7529C3.65739 10.9183 3.25251 11.1595 2.90039 11.4609V6.5C2.90039 4.51177 4.51178 2.90039 6.5 2.90039H13.5Z" fill="black"/>
</g>
</svg>
