<svg width="20" height="20" viewBox="0 0 20 20" fill="none" xmlns="http://www.w3.org/2000/svg">
<g id="type=sysml, icon=requirement">
<g id="component_3">
<path d="M5.5 13.5996C5.72091 13.5996 5.90039 13.7791 5.90039 14C5.90039 14.2209 5.72091 14.4004 5.5 14.4004H4C3.77909 14.4004 3.59961 14.2209 3.59961 14C3.59961 13.7791 3.77909 13.5996 4 13.5996H5.5Z" fill="black"/>
<path d="M5.5 11.5996C5.72091 11.5996 5.90039 11.7791 5.90039 12C5.90039 12.2209 5.72091 12.4004 5.5 12.4004H4.5C4.27909 12.4004 4.09961 12.2209 4.09961 12C4.09961 11.7791 4.27909 11.5996 4.5 11.5996H5.5Z" fill="black"/>
<path d="M5.5 9.59961C5.72091 9.59961 5.90039 9.77909 5.90039 10C5.90039 10.2209 5.72091 10.4004 5.5 10.4004H4C3.77909 10.4004 3.59961 10.2209 3.59961 10C3.59961 9.77909 3.77909 9.59961 4 9.59961H5.5Z" fill="black"/>
<path d="M5.5 7.59961C5.72091 7.59961 5.90039 7.77909 5.90039 8C5.90039 8.22091 5.72091 8.40039 5.5 8.40039H4.5C4.27909 8.40039 4.09961 8.22091 4.09961 8C4.09961 7.77909 4.27909 7.59961 4.5 7.59961H5.5Z" fill="black"/>
<path d="M5.5 5.59961C5.72091 5.59961 5.90039 5.77909 5.90039 6C5.90039 6.22091 5.72091 6.40039 5.5 6.40039H4C3.77909 6.40039 3.59961 6.22091 3.59961 6C3.59961 5.77909 3.77909 5.59961 4 5.59961H5.5Z" fill="black"/>
</g>
<g id="component_2">
<path d="M11.75 11.9996C12.1641 11.9996 12.4998 12.3356 12.5 12.7496C12.5 13.1638 12.1642 13.4996 11.75 13.4996C11.3358 13.4996 11 13.1638 11 12.7496C11.0002 12.3356 11.3359 11.9996 11.75 11.9996Z" fill="black"/>
<path d="M11.75 6.30042C12.8263 6.30042 13.8495 7.07286 13.8496 8.19983C13.8496 8.7588 13.5852 9.24544 13.1953 9.57971C12.9433 9.79563 12.7254 9.98102 12.5625 10.1803C12.4042 10.3741 12.3496 10.5204 12.3496 10.6432V10.8004C12.3494 11.1316 12.0812 11.4 11.75 11.4C11.4188 11.4 11.1506 11.1316 11.1504 10.8004V10.6432C11.1504 10.1348 11.3837 9.72645 11.6328 9.42151C11.8773 9.12222 12.1869 8.86321 12.4141 8.66858C12.5739 8.53157 12.6504 8.36396 12.6504 8.19983C12.6503 7.89099 12.3304 7.49963 11.75 7.49963C11.1696 7.49963 10.8497 7.89099 10.8496 8.19983C10.8496 8.5312 10.5814 8.80042 10.25 8.80042C9.91863 8.80042 9.65039 8.5312 9.65039 8.19983C9.65051 7.07286 10.6737 6.30042 11.75 6.30042Z" fill="black"/>
</g>
<path id="component_1" d="M7 15V5C7 4.17157 7.67157 3.5 8.5 3.5H13.0859C13.4837 3.50004 13.8652 3.65818 14.1465 3.93945L16.0605 5.85352C16.3418 6.13478 16.5 6.51629 16.5 6.91406V15C16.5 15.8284 15.8284 16.5 15 16.5H8.5C7.67157 16.5 7 15.8284 7 15ZM8 15C8 15.2761 8.22386 15.5 8.5 15.5H15C15.2761 15.5 15.5 15.2761 15.5 15V6.91406C15.5 6.78151 15.4472 6.65428 15.3535 6.56055L13.4395 4.64648C13.3457 4.55275 13.2185 4.50004 13.0859 4.5H8.5C8.22386 4.5 8 4.72386 8 5V15Z" fill="black"/>
</g>
</svg>
