<svg width="20" height="20" viewBox="0 0 20 20" fill="none" xmlns="http://www.w3.org/2000/svg">
<g id="type=view, icon=view_diagram_structure">
<path id="component_4" d="M2.81006 13.7663C2.81006 13.647 2.87797 13.5381 2.9851 13.4857L4.44772 12.7693C4.79459 12.5994 5.20052 12.5994 5.54739 12.7693L7.01002 13.4857C7.11715 13.5381 7.18506 13.647 7.18506 13.7663V16.2336C7.18506 16.3529 7.11715 16.4618 7.01002 16.5143L5.54739 17.2307C5.20052 17.4005 4.79459 17.4005 4.44772 17.2307L2.9851 16.5143C2.87797 16.4618 2.81006 16.3529 2.81006 16.2336V13.7663Z" fill="black"/>
<g id="component_3">
<path d="M9.5 6.5C9.50017 7.32828 10.1717 8 11 8H14.3965C14.3982 8.05632 14.4004 8.14021 14.4004 8.26855V13.2998C14.4004 13.8693 14.3998 14.2612 14.375 14.5645C14.3508 14.8606 14.3057 15.0206 14.2471 15.1357C14.1129 15.3988 13.8989 15.6129 13.6357 15.7471C13.5205 15.8058 13.3607 15.8508 13.0645 15.875C12.7611 15.8998 12.3696 15.9004 11.7998 15.9004H8.89746C8.96406 15.6109 9 15.3097 9 15C9 12.9946 7.52436 11.3332 5.59961 11.0439V6.7002C5.59961 6.13067 5.60026 5.73885 5.625 5.43555C5.6492 5.13941 5.69429 4.97946 5.75293 4.86426C5.8871 4.60111 6.10112 4.38711 6.36426 4.25293C6.47948 4.19423 6.63919 4.14922 6.93555 4.125C7.23891 4.10024 7.63044 4.09961 8.2002 4.09961H9.5V6.5Z" fill="black" fill-opacity="0.24"/>
<path d="M13.4141 7H11C10.724 7 10.5002 6.77599 10.5 6.5V4.66797L13.4141 7Z" fill="black" fill-opacity="0.24"/>
</g>
<path id="component_2" fill-rule="evenodd" clip-rule="evenodd" d="M9.8291 9.35703C9.9399 9.3201 10.0601 9.32013 10.1709 9.35703L10.8789 9.59336C11.0257 9.64235 11.1249 9.7794 11.125 9.93418V10.9156C11.1249 11.0704 11.0258 11.2074 10.8789 11.2564L10.7715 11.2926L11.6055 12.5895L11.8545 12.5074C11.9653 12.4705 12.0855 12.4705 12.1963 12.5074L12.9043 12.7428C13.0511 12.7919 13.1504 12.9297 13.1504 13.0846V14.065C13.1504 14.2199 13.0511 14.3577 12.9043 14.4068L12.1963 14.6432C12.0855 14.6801 11.9653 14.68 11.8545 14.6432L11.1465 14.4068C10.9995 14.3578 10.9004 14.22 10.9004 14.065V13.7555H9.10059V14.065C9.10059 14.1837 9.04059 14.2907 8.94727 14.357C8.83489 13.6618 8.54394 13.0269 8.12207 12.5006C8.13003 12.5028 8.13861 12.5048 8.14648 12.5074L8.39453 12.5895L9.22852 11.2926L9.12109 11.2564C8.97434 11.2074 8.8751 11.0704 8.875 10.9156V9.93418C8.87515 9.77946 8.97435 9.6424 9.12109 9.59336L9.8291 9.35703ZM10.1709 11.4938C10.0602 11.5306 9.93983 11.5306 9.8291 11.4938L9.58008 11.4098L8.74707 12.7066L8.85449 12.7428C9.00125 12.7919 9.10059 12.9298 9.10059 13.0846V13.3951H10.9004V13.0846C10.9004 12.9297 10.9995 12.7918 11.1465 12.7428L11.2529 12.7066L10.4189 11.4098L10.1709 11.4938Z" fill="black"/>
<path id="component_1" fill-rule="evenodd" clip-rule="evenodd" d="M9.43848 2.90035C9.62239 2.90035 9.7978 2.89712 9.9707 2.93257C10.1118 2.96154 10.2486 3.00961 10.377 3.07515C10.5341 3.15547 10.6698 3.26689 10.8135 3.38179L14.7744 6.55074C14.9688 6.70626 15.1578 6.85143 15.2959 7.04195C15.3303 7.08941 15.3607 7.13962 15.3896 7.19038C15.437 7.24995 15.473 7.31926 15.4893 7.39644C15.5097 7.44846 15.5281 7.50157 15.543 7.55562C15.6054 7.7823 15.5996 8.01977 15.5996 8.26851V13.2998C15.5996 13.8496 15.6 14.2986 15.5703 14.6621C15.54 15.0326 15.4756 15.3681 15.3164 15.6806C15.0672 16.1695 14.6696 16.5672 14.1807 16.8164C13.8681 16.9756 13.5327 17.04 13.1621 17.0703C12.7986 17.0999 12.3498 17.0996 11.7998 17.0996H8.4043C8.62988 16.7346 8.79841 16.3309 8.89746 15.9003H11.7998C12.3696 15.9003 12.7611 15.8997 13.0645 15.875C13.3608 15.8507 13.5205 15.8057 13.6357 15.747C13.8989 15.6129 14.1129 15.3988 14.2471 15.1357C14.3058 15.0205 14.3508 14.8606 14.375 14.5644C14.3998 14.2611 14.4004 13.8694 14.4004 13.2998V8.26851C14.4004 8.14009 14.3982 8.05627 14.3965 7.99995H11C10.1716 7.99995 9.50012 7.32828 9.5 6.49995V4.09956H8.2002C7.63044 4.09956 7.23891 4.10019 6.93555 4.12495C6.63919 4.14917 6.47948 4.19418 6.36426 4.25288C6.1011 4.38706 5.8871 4.60105 5.75293 4.86421C5.69426 4.97942 5.64921 5.1393 5.625 5.4355C5.60025 5.73882 5.59961 6.13056 5.59961 6.70015V11.0439C5.40405 11.0145 5.20375 11 5 11C4.79625 11 4.59595 11.0145 4.40039 11.0439V6.70015C4.40039 6.15029 4.40002 5.70134 4.42969 5.33785C4.45996 4.96733 4.52439 4.63181 4.68359 4.31929C4.93281 3.83037 5.33042 3.43277 5.81934 3.18355C6.13191 3.02429 6.4673 2.95992 6.83789 2.92964C7.20144 2.89996 7.6502 2.90035 8.2002 2.90035H9.43848ZM10.5 6.49995C10.5001 6.776 10.7239 6.99995 11 6.99995H13.4141L10.5 4.66792V6.49995Z" fill="black"/>
</g>
</svg>
