<svg width="20" height="20" viewBox="0 0 20 20" fill="none" xmlns="http://www.w3.org/2000/svg">
<g id="type=view, icon=view_table">
<g id="component_3">
<path d="M9.5 4.09961V6.5C9.50017 7.32828 10.1717 8 11 8H14.3965C14.3982 8.05632 14.4004 8.14021 14.4004 8.26856V13.2998C14.4004 13.8693 14.3998 14.2612 14.375 14.5645C14.3508 14.8606 14.3057 15.0206 14.2471 15.1357C14.1129 15.3988 13.8989 15.6129 13.6357 15.7471C13.5205 15.8058 13.3607 15.8508 13.0645 15.875C12.7611 15.8998 12.3696 15.9004 11.7998 15.9004H8.2002C7.63045 15.9004 7.23891 15.8998 6.93555 15.875C6.63926 15.8508 6.47948 15.8058 6.36426 15.7471C6.10114 15.6129 5.88712 15.3988 5.75293 15.1357C5.69425 15.0206 5.64922 14.8606 5.625 14.5645C5.60025 14.2612 5.59961 13.8693 5.59961 13.2998V6.7002C5.59961 6.13067 5.60026 5.73885 5.625 5.43555C5.6492 5.13941 5.69429 4.97946 5.75293 4.86426C5.8871 4.60111 6.10112 4.38711 6.36426 4.25293C6.47948 4.19423 6.63919 4.14922 6.93555 4.125C7.23891 4.10024 7.63044 4.09961 8.2002 4.09961H9.5Z" fill="black" fill-opacity="0.24"/>
<path d="M13.4141 7H11C10.724 7 10.5002 6.77599 10.5 6.5V4.66797L13.4141 7Z" fill="black" fill-opacity="0.24"/>
</g>
<path id="component_2" fill-rule="evenodd" clip-rule="evenodd" d="M11.6663 9.59961C12.4395 9.59961 13.0667 10.2268 13.0667 11V13C13.0667 13.7732 12.4395 14.4004 11.6663 14.4004H8.33325C7.56005 14.4004 6.93286 13.7732 6.93286 13V11C6.93286 10.2268 7.56005 9.59961 8.33325 9.59961H11.6663ZM10.3 13.5996H11.6663C11.9976 13.5996 12.2668 13.3314 12.2668 13V12.2998H10.3V13.5996ZM7.73364 13C7.73364 13.3314 8.00188 13.5996 8.33325 13.5996H9.70044V12.2998H7.73364V13ZM10.3 11.7002H12.2668V11C12.2668 10.6686 11.9976 10.4004 11.6663 10.4004H10.3V11.7002ZM8.33325 10.4004C8.00188 10.4004 7.73364 10.6686 7.73364 11V11.7002H9.70044V10.4004H8.33325Z" fill="black"/>
<path id="component_1" fill-rule="evenodd" clip-rule="evenodd" d="M9.43848 2.9001C9.62239 2.9001 9.7978 2.89687 9.9707 2.93233C10.1119 2.9613 10.2486 3.00936 10.377 3.07491C10.5342 3.15523 10.6698 3.26662 10.8135 3.38155L14.7744 6.55049C14.9689 6.70605 15.1578 6.85115 15.2959 7.0417C15.3303 7.0892 15.3607 7.13932 15.3896 7.19014C15.4371 7.24973 15.473 7.31896 15.4893 7.39619C15.5097 7.44828 15.5281 7.50126 15.543 7.55537C15.6054 7.78211 15.5996 8.01946 15.5996 8.26827V13.2995C15.5996 13.8495 15.6 14.2983 15.5703 14.6618C15.54 15.0324 15.4757 15.3678 15.3164 15.6804C15.0672 16.1693 14.6696 16.5669 14.1807 16.8161C13.8681 16.9754 13.5327 17.0397 13.1621 17.07C12.7986 17.0997 12.3498 17.0993 11.7998 17.0993H8.2002C7.6502 17.0993 7.20144 17.0997 6.83789 17.07C6.46728 17.0397 6.13193 16.9754 5.81934 16.8161C5.33038 16.5669 4.93282 16.1693 4.68359 15.6804C4.52434 15.3678 4.45997 15.0324 4.42969 14.6618C4.40001 14.2983 4.40039 13.8495 4.40039 13.2995V6.69991C4.40039 6.14994 4.40001 5.70113 4.42969 5.3376C4.45997 4.96702 4.52433 4.63162 4.68359 4.31905C4.93282 3.8301 5.33038 3.43252 5.81934 3.1833C6.13192 3.02404 6.46729 2.95968 6.83789 2.9294C7.20144 2.89972 7.6502 2.9001 8.2002 2.9001H9.43848ZM8.2002 4.09932C7.63044 4.09932 7.23891 4.09995 6.93555 4.12471C6.63917 4.14892 6.47949 4.19393 6.36426 4.25264C6.10106 4.38682 5.88712 4.60078 5.75293 4.86397C5.69422 4.97919 5.64922 5.13891 5.625 5.43526C5.60024 5.73861 5.59961 6.13018 5.59961 6.69991V13.2995C5.59961 13.8692 5.60024 14.2608 5.625 14.5642C5.64921 14.8605 5.69423 15.0202 5.75293 15.1355C5.88711 15.3987 6.10105 15.6126 6.36426 15.7468C6.47949 15.8055 6.63915 15.8505 6.93555 15.8747C7.23891 15.8995 7.63043 15.9001 8.2002 15.9001H11.7998C12.3696 15.9001 12.7611 15.8995 13.0645 15.8747C13.3608 15.8505 13.5205 15.8055 13.6357 15.7468C13.8989 15.6126 14.1129 15.3987 14.2471 15.1355C14.3058 15.0202 14.3508 14.8605 14.375 14.5642C14.3998 14.2608 14.4004 13.8692 14.4004 13.2995V8.26827C14.4004 8.13968 14.3982 8.05603 14.3965 7.99971H11C10.1716 7.99971 9.5 7.32814 9.5 6.49971V4.09932H8.2002ZM10.5 6.49971C10.5 6.77585 10.7239 6.99971 11 6.99971H13.4141L10.5 4.66768V6.49971Z" fill="black"/>
</g>
</svg>
