<svg width="20" height="20" viewBox="0 0 20 20" fill="none" xmlns="http://www.w3.org/2000/svg">
<g id="type=view, icon=view_matrix">
<g id="component_4">
<path d="M9.5 4.09961V6.5C9.50017 7.32828 10.1717 8 11 8H14.3965C14.3982 8.05632 14.4004 8.14021 14.4004 8.26856V13.2998C14.4004 13.8693 14.3998 14.2612 14.375 14.5645C14.3508 14.8606 14.3057 15.0206 14.2471 15.1357C14.1129 15.3988 13.8989 15.6129 13.6357 15.7471C13.5205 15.8058 13.3607 15.8508 13.0645 15.875C12.7611 15.8998 12.3696 15.9004 11.7998 15.9004H8.2002C7.63045 15.9004 7.23891 15.8998 6.93555 15.875C6.63926 15.8508 6.47948 15.8058 6.36426 15.7471C6.10114 15.6129 5.88712 15.3988 5.75293 15.1357C5.69425 15.0206 5.64922 14.8606 5.625 14.5645C5.60025 14.2612 5.59961 13.8693 5.59961 13.2998V6.7002C5.59961 6.13067 5.60026 5.73885 5.625 5.43555C5.6492 5.13941 5.69429 4.97946 5.75293 4.86426C5.8871 4.60111 6.10112 4.38711 6.36426 4.25293C6.47948 4.19423 6.63919 4.14922 6.93555 4.125C7.23891 4.10024 7.63044 4.09961 8.2002 4.09961H9.5Z" fill="black" fill-opacity="0.24"/>
<path d="M13.4141 7H11C10.724 7 10.5002 6.77599 10.5 6.5V4.66797L13.4141 7Z" fill="black" fill-opacity="0.24"/>
</g>
<g id="component_3">
<path fill-rule="evenodd" clip-rule="evenodd" d="M8.95801 12.1084C9.47347 12.1084 9.8916 12.5265 9.8916 13.042V13.667C9.89143 14.1823 9.47336 14.5996 8.95801 14.5996H8.33301C7.8178 14.5994 7.40057 14.1822 7.40039 13.667V13.042C7.40039 12.5266 7.81769 12.1086 8.33301 12.1084H8.95801ZM8.33301 12.7246C8.15827 12.7248 8.0166 12.8672 8.0166 13.042V13.667C8.01678 13.8416 8.15838 13.9832 8.33301 13.9834H8.95801C9.13279 13.9834 9.27521 13.8417 9.27539 13.667V13.042C9.27539 12.8671 9.1329 12.7246 8.95801 12.7246H8.33301Z" fill="black"/>
<path fill-rule="evenodd" clip-rule="evenodd" d="M11.667 12.1084C12.1823 12.1086 12.5996 12.5266 12.5996 13.042V13.667C12.5994 14.1822 12.1822 14.5994 11.667 14.5996H11.042C10.5266 14.5996 10.1086 14.1823 10.1084 13.667V13.042C10.1084 12.5265 10.5265 12.1084 11.042 12.1084H11.667ZM11.042 12.7246C10.8671 12.7246 10.7246 12.8671 10.7246 13.042V13.667C10.7248 13.8417 10.8672 13.9834 11.042 13.9834H11.667C11.8416 13.9832 11.9832 13.8416 11.9834 13.667V13.042C11.9834 12.8672 11.8417 12.7248 11.667 12.7246H11.042Z" fill="black"/>
<path fill-rule="evenodd" clip-rule="evenodd" d="M11.667 9.40039C12.1822 9.40057 12.5994 9.8178 12.5996 10.333V10.958C12.5996 11.4734 12.1823 11.8914 11.667 11.8916H11.042C10.5265 11.8916 10.1084 11.4735 10.1084 10.958V10.333C10.1086 9.81769 10.5266 9.40039 11.042 9.40039H11.667ZM11.042 10.0166C10.8672 10.0166 10.7248 10.1583 10.7246 10.333V10.958C10.7246 11.1329 10.8671 11.2754 11.042 11.2754H11.667C11.8417 11.2752 11.9834 11.1328 11.9834 10.958V10.333C11.9832 10.1584 11.8416 10.0168 11.667 10.0166H11.042Z" fill="black"/>
</g>
<path id="component_2" fill-rule="evenodd" clip-rule="evenodd" d="M8.95801 9.40039C9.47337 9.40039 9.89143 9.81769 9.8916 10.333V10.958C9.8916 11.4735 9.47347 11.8916 8.95801 11.8916H8.33301C7.81769 11.8914 7.40039 11.4734 7.40039 10.958V10.333C7.40057 9.8178 7.8178 9.40057 8.33301 9.40039H8.95801ZM9.1748 10.0713C9.10226 10.0284 9.00741 10.0519 8.96387 10.124L8.54199 10.8281L8.32324 10.5537L8.27637 10.5146C8.22394 10.4865 8.15691 10.49 8.10742 10.5293C8.04135 10.5822 8.03048 10.6799 8.08301 10.7461L8.44043 11.1924C8.47178 11.2315 8.52051 11.2531 8.57031 11.25C8.6202 11.2466 8.66545 11.2186 8.69141 11.1758L9.22754 10.2822L9.24805 10.2246C9.25342 10.1852 9.24318 10.1444 9.21973 10.1123L9.1748 10.0713Z" fill="black"/>
<path id="component_1" fill-rule="evenodd" clip-rule="evenodd" d="M9.43848 2.9001C9.62239 2.9001 9.7978 2.89687 9.9707 2.93233C10.1119 2.9613 10.2486 3.00936 10.377 3.07491C10.5342 3.15523 10.6698 3.26662 10.8135 3.38155L14.7744 6.55049C14.9689 6.70605 15.1578 6.85115 15.2959 7.0417C15.3303 7.0892 15.3607 7.13932 15.3896 7.19014C15.4371 7.24973 15.473 7.31896 15.4893 7.39619C15.5097 7.44828 15.5281 7.50126 15.543 7.55537C15.6054 7.78211 15.5996 8.01946 15.5996 8.26827V13.2995C15.5996 13.8495 15.6 14.2983 15.5703 14.6618C15.54 15.0324 15.4757 15.3678 15.3164 15.6804C15.0672 16.1693 14.6696 16.5669 14.1807 16.8161C13.8681 16.9754 13.5327 17.0397 13.1621 17.07C12.7986 17.0997 12.3498 17.0993 11.7998 17.0993H8.2002C7.6502 17.0993 7.20144 17.0997 6.83789 17.07C6.46728 17.0397 6.13193 16.9754 5.81934 16.8161C5.33038 16.5669 4.93282 16.1693 4.68359 15.6804C4.52434 15.3678 4.45997 15.0324 4.42969 14.6618C4.40001 14.2983 4.40039 13.8495 4.40039 13.2995V6.69991C4.40039 6.14994 4.40001 5.70113 4.42969 5.3376C4.45997 4.96702 4.52433 4.63162 4.68359 4.31905C4.93282 3.8301 5.33038 3.43252 5.81934 3.1833C6.13192 3.02404 6.46729 2.95968 6.83789 2.9294C7.20144 2.89972 7.6502 2.9001 8.2002 2.9001H9.43848ZM8.2002 4.09932C7.63044 4.09932 7.23891 4.09995 6.93555 4.12471C6.63917 4.14892 6.47949 4.19393 6.36426 4.25264C6.10106 4.38682 5.88712 4.60078 5.75293 4.86397C5.69422 4.97919 5.64922 5.13891 5.625 5.43526C5.60024 5.73861 5.59961 6.13018 5.59961 6.69991V13.2995C5.59961 13.8692 5.60024 14.2608 5.625 14.5642C5.64921 14.8605 5.69423 15.0202 5.75293 15.1355C5.88711 15.3987 6.10105 15.6126 6.36426 15.7468C6.47949 15.8055 6.63915 15.8505 6.93555 15.8747C7.23891 15.8995 7.63043 15.9001 8.2002 15.9001H11.7998C12.3696 15.9001 12.7611 15.8995 13.0645 15.8747C13.3608 15.8505 13.5205 15.8055 13.6357 15.7468C13.8989 15.6126 14.1129 15.3987 14.2471 15.1355C14.3058 15.0202 14.3508 14.8605 14.375 14.5642C14.3998 14.2608 14.4004 13.8692 14.4004 13.2995V8.26827C14.4004 8.13968 14.3982 8.05603 14.3965 7.99971H11C10.1716 7.99971 9.5 7.32814 9.5 6.49971V4.09932H8.2002ZM10.5 6.49971C10.5 6.77585 10.7239 6.99971 11 6.99971H13.4141L10.5 4.66768V6.49971Z" fill="black"/>
</g>
</svg>
